<?xml version="1.0" encoding="UTF-8"?>
<svg width="65px" height="52px" viewBox="0 0 65 52" version="1.1" xmlns="http://www.w3.org/2000/svg" xmlns:xlink="http://www.w3.org/1999/xlink">
    <!-- Generator: Sketch 47.1 (45422) - http://www.bohemiancoding.com/sketch -->
    <title>AssetValue</title>
    <desc>Created with Sketch.</desc>
    <defs></defs>
    <g id="Page-1" stroke="none" stroke-width="1" fill="none" fill-rule="evenodd">
        <g id="Artboard-Copy-3" transform="translate(-1090.000000, -2789.000000)" fill-rule="nonzero">
            <g id="Section-2" transform="translate(0.000000, 1323.000000)">
                <g id="Section-2-List">
                    <g id="Lower" transform="translate(0.000000, 1267.000000)">
                        <g id="Colored-Icons" transform="translate(248.000000, 79.000000)">
                            <g id="AssetValue" transform="translate(842.000000, 120.000000)">
                                <polygon id="Shape" fill="#DCFBED" points="2.10294118 37.2264706 27.1088235 21.0147059 31.8117647 24.4176471 64.2352941 10.2323529 64.2352941 37.5705882 1.45294118 37.5705882"></polygon>
                                <path d="M0.764705882,37.15 C0.573529412,37.15 0.382352941,37.0735294 0.267647059,36.8823529 C0.114705882,36.6147059 0.191176471,36.2705882 0.458823529,36.0794118 L26.1147059,19.6764706 L30.8941176,23.0794118 L64.0058824,8.35882353 C64.3117647,8.24411765 64.6176471,8.35882353 64.7705882,8.66470588 C64.8852941,8.97058824 64.7705882,9.27647059 64.4647059,9.42941176 L30.7411765,24.4176471 L26.0764706,21.0911765 L1.07058824,37.0735294 C0.994117647,37.1117647 0.879411765,37.15 0.764705882,37.15 Z" id="Shape" fill="#586A99"></path>
                                <path d="M25.3109662,37.5054606 C26.4710563,38.6987826 27.921169,39.4943305 29.6613043,39.8352797 L29.6613043,28.2998341 C29.4872908,28.2430092 29.1972682,28.1293595 28.9072457,28.0725346 C28.5592186,27.9588849 28.2111916,27.9020601 27.8631645,27.8452352 C26.4710563,27.5042861 25.0789481,27.0496873 23.7448445,26.5382636 C22.4107408,26.0268399 21.1926461,25.4017665 20.0905604,24.5493936 C19.0464793,23.6970208 18.1764117,22.6741734 17.5383621,21.4808514 C16.9003125,20.2307046 16.5522854,18.6964335 16.5522854,16.8780382 C16.5522854,15.0028179 16.9003125,13.3548971 17.6543711,11.9342758 C18.4084297,10.5136544 19.3365018,9.32033243 20.5545965,8.29748503 C21.7726912,7.3314625 23.1647994,6.59273938 24.7309211,6.02449083 C26.2970428,5.51306713 27.921169,5.172118 29.6032998,5.05846829 L29.6032998,0.796604145 L32.9095567,0.796604145 L32.9095567,5.05846829 C34.5916875,5.22894285 36.1578092,5.62671684 37.6659264,6.13814054 C39.1740436,6.64956423 40.4501428,7.38828735 41.610233,8.35430989 C42.7123186,9.32033243 43.6403907,10.4568295 44.3944494,11.8774509 C45.0905035,13.2980723 45.496535,14.9459931 45.612544,16.8212133 L37.6079219,16.8212133 C37.5499174,15.3437671 37.0858813,14.0936203 36.2158137,13.0707729 C35.2877416,12.0479255 34.2436604,11.5365018 32.9675612,11.5365018 L32.9675612,21.3103769 C33.4315973,21.4240266 33.8956334,21.5376763 34.3596694,21.651326 C34.8237055,21.7649757 35.3457461,21.8786254 35.8677867,22.0491 C38.652003,22.7878231 40.7981698,23.6970208 42.3062871,24.776693 C43.8144043,25.8563653 44.9164899,26.9928624 45.612544,28.1861844 C46.3085981,29.3795063 46.7726342,30.5160034 46.8886432,31.7093254 C47.0046522,32.9026473 47.0626567,33.9254947 47.0626567,34.8346924 C47.0626567,35.6302404 46.8306387,36.6530878 46.4246071,37.9032346 C46.0185756,39.1533814 45.264517,40.3467034 44.2204358,41.5400253 C43.1763547,42.7333473 41.726242,43.7561947 39.9281022,44.6653924 C38.1299625,45.5745901 35.8097821,46.1428386 33.0255658,46.3133132 L33.0255658,51.0297762 L29.6613043,51.0297762 L29.6613043,46.3133132 C25.4269752,46.0291889 22.1787227,44.7222172 19.8005379,42.5060479 C17.4223531,40.2898785 16.0882494,36.9940369 15.6822178,32.6185231 L23.6288354,32.6185231 C23.5708309,34.607393 24.150876,36.2553138 25.3109662,37.5054606 Z M27.80516,11.7069763 C27.2251149,11.8774509 26.6450699,12.1615752 26.1810338,12.5593492 C25.7169977,12.9571232 25.3109662,13.411722 25.0209436,13.9799706 C24.7309211,14.5482191 24.6149121,15.2301174 24.6149121,15.9688405 C24.6149121,17.1621624 25.0209436,18.128185 25.7750022,18.8100832 C26.5870654,19.4919815 27.8631645,20.0034052 29.6613043,20.4011792 L29.6613043,11.4228521 C29.0232547,11.4228521 28.3852051,11.5365018 27.80516,11.7069763 Z M35.0557235,39.323856 C35.8097821,39.0965566 36.4478317,38.7556074 37.0278768,38.3010086 C37.6079219,37.8464097 38.071958,37.3349861 38.4779895,36.6530878 C38.8260166,36.0280144 39.0580346,35.2324664 39.0580346,34.3800936 C39.0580346,32.9594722 38.5939985,31.8797999 37.6659264,31.1410768 C36.7378543,30.4023537 35.1717326,29.7772803 32.9675612,29.2090318 L32.9675612,39.7784548 C33.6636153,39.72163 34.3596694,39.5511554 35.0557235,39.323856 Z" id="Shape" fill="#9DDC9F"></path>
                                <path d="M35.0557235,51.484375 L30.5893764,51.484375 L30.5893764,46.767912 C26.5290608,46.370138 23.2808084,45.0631664 20.9026236,42.846997 C18.4664342,40.5171779 17.0163215,37.0508618 16.6102899,32.6185231 L16.5522854,31.9934497 L25.7169977,31.9934497 L25.7169977,32.5616982 C25.6589932,34.4937433 26.1810338,36.0280144 27.2251149,37.1076866 L27.2251149,37.1076866 C28.1531871,38.0737092 29.2552727,38.7556074 30.5893764,39.0965566 L30.5893764,28.6976081 C30.4733674,28.6407832 30.3573584,28.6407832 30.2413494,28.5839583 C29.9513268,28.4703086 29.6032998,28.4134838 29.2552727,28.3566589 C27.80516,27.9588849 26.4130518,27.561111 25.0789481,27.0496873 C23.6868399,26.5382636 22.4107408,25.8563653 21.3086551,25.0039925 C20.1485649,24.1516196 19.2784973,23.0151225 18.5824432,21.7081509 C17.8863891,20.4011792 17.5383621,18.7532584 17.5383621,16.8212133 C17.5383621,14.8891682 17.9443936,13.1275977 18.6984522,11.5933266 C19.4525108,10.1158804 20.496592,8.80890873 21.7726912,7.78606134 C23.0487904,6.76321394 24.4989031,5.96766597 26.1230293,5.39941742 C27.573142,4.88799372 29.0812592,4.60386944 30.6473809,4.43339488 L30.6473809,0.114705882 L35.113728,0.114705882 L35.113728,4.49021973 C36.6798498,4.71751916 38.1299625,5.05846829 39.5220707,5.51306713 C41.0881924,6.08131568 42.4222961,6.8200388 43.6403907,7.84288619 C44.8004809,8.80890873 45.7865575,10.0590555 46.5406162,11.5365018 C47.2946748,13.013948 47.7007063,14.7186937 47.8167153,16.7075636 L47.8747198,17.332637 L38.7100076,17.332637 L38.7100076,16.7643885 C38.652003,15.4005919 38.2459715,14.3209197 37.4339084,13.3548971 C36.7958588,12.616174 36.0418002,12.1615752 35.1717326,12.0479255 L35.1717326,20.7421283 C35.4617551,20.7989532 35.8097821,20.9126029 36.0998047,20.9694277 C36.5638408,21.0830775 37.0858813,21.1967272 37.6079219,21.3672017 C40.4501428,22.1059249 42.6543141,23.0719474 44.2204358,24.2084445 C45.7865575,25.3449416 46.9466477,26.5382636 47.7007063,27.7884104 C48.4547649,29.0385572 48.918801,30.288704 49.03481,31.5388508 C49.150819,32.7321728 49.2088235,33.811845 49.2088235,34.7210427 C49.2088235,35.5734155 48.9768055,36.6530878 48.5707739,37.9600595 C48.1067379,39.2670311 47.3526793,40.5740028 46.2505936,41.7673248 C45.148508,43.0174716 43.6403907,44.0971438 41.7842465,45.0631664 C40.0441112,45.972364 37.8399399,46.5406126 35.1717326,46.767912 L35.1717326,51.484375 L35.0557235,51.484375 Z M31.7494666,50.3478779 L33.8956334,50.3478779 L33.8956334,45.6882398 L34.417674,45.6314149 C37.1438858,45.4609403 39.4060617,44.8926918 41.1461969,44.040319 C42.8863321,43.1311213 44.2784403,42.1650987 45.264517,41.0286016 C46.2505936,39.8921045 47.0046522,38.7556074 47.3526793,37.6191103 C47.7587108,36.4257884 47.9327244,35.4597658 47.9327244,34.7210427 C47.9327244,33.811845 47.8747198,32.7889976 47.7587108,31.6525005 C47.6427018,30.5728283 47.2366703,29.4363312 46.5406162,28.3566589 C45.8445621,27.2769867 44.8004809,26.1404896 43.3503682,25.1176422 C41.9002555,24.0947948 39.8120932,23.1855971 37.1438858,22.5036988 C36.6218453,22.3332243 36.0998047,22.2195746 35.6937731,22.1059249 C35.2297371,21.9922751 34.765701,21.8786254 34.3016649,21.7649757 L33.8376289,21.651326 L33.8376289,10.8546035 L34.417674,10.8546035 C35.8677867,10.8546035 37.0858813,11.4228521 38.1299625,12.616174 C39.0000301,13.6390214 39.5220707,14.8323434 39.6380797,16.1961399 L46.4826116,16.1961399 C46.3085981,14.605044 45.9605711,13.2412474 45.3225215,12.0479255 C44.6264674,10.7409538 43.7563998,9.6044567 42.7123186,8.69525902 C41.6682375,7.78606134 40.3921383,7.10416307 39.0000301,6.59273938 C37.5499174,6.08131568 35.9837957,5.74036655 34.3596694,5.56989198 L33.8376289,5.51306713 L33.8376289,1.30802784 L31.6914621,1.30802784 L31.6914621,5.51306713 L31.1694215,5.56989198 C29.5452953,5.68354169 27.921169,5.96766597 26.4130518,6.47908967 C24.9049346,6.99051336 23.5708309,7.72923648 22.4107408,8.63843417 C21.2506506,9.54763185 20.3225785,10.684129 19.6845289,12.0479255 C18.9884748,13.411722 18.6404477,15.0028179 18.6404477,16.7643885 C18.6404477,18.525959 18.9304703,19.9465804 19.5105154,21.1399023 C20.0905604,22.2763994 20.9026236,23.242422 21.8887002,24.0379699 C22.9327813,24.8335179 24.0928715,25.4585913 25.3689707,25.9131902 C26.7030744,26.4246138 28.0951826,26.8223878 29.4292863,27.2201618 C29.7773133,27.2769867 30.1253403,27.3906364 30.4733674,27.4474612 C30.8213944,27.561111 31.111417,27.6179358 31.2854305,27.7315855 L31.6334576,27.9020601 L31.6334576,40.5171779 L30.9374035,40.4035282 C29.0812592,40.0625791 27.5151375,39.2102063 26.2970428,37.9032346 L26.2970428,37.9032346 C25.1369526,36.7099126 24.4989031,35.0619918 24.4408985,33.1299468 L17.8283846,33.1299468 C18.2344162,36.9940369 19.5685199,40.0057542 21.7146867,42.051449 C23.9768625,44.2107935 27.1671104,45.4041155 31.227426,45.6882398 L31.7494666,45.7450646 L31.7494666,50.3478779 Z M33.8956334,40.4603531 L33.8956334,28.4703086 L34.649692,28.6407832 C36.9698723,29.2658566 38.5939985,29.9477549 39.5800752,30.686478 C40.6241563,31.5388508 41.2042014,32.7321728 41.2042014,34.3800936 C41.2042014,35.3461161 40.9721834,36.1984889 40.5661518,36.9372121 C40.1601203,37.6191103 39.6380797,38.2441837 39.0000301,38.7556074 C38.3619805,39.2102063 37.6659264,39.6079803 36.8538633,39.8921045 C36.0998047,40.119404 35.3457461,40.2898785 34.649692,40.4035282 L33.8956334,40.4603531 Z M35.0557235,29.9477549 L35.0557235,39.1533814 C35.5197596,39.0965566 35.9257912,38.9829069 36.3898272,38.8124323 C37.0278768,38.5851329 37.6659264,38.3010086 38.187967,37.9032346 C38.7100076,37.5054606 39.1160391,36.9940369 39.4640662,36.4257884 C39.8120932,35.8575398 39.9281022,35.1756416 39.9281022,34.4369184 C39.9281022,33.1867716 39.5220707,32.2775739 38.7680121,31.6525005 C38.071958,31.0274271 36.8538633,30.4591786 35.0557235,29.9477549 Z M31.7494666,21.1399023 L31.0534125,20.9694277 C29.1392637,20.5148289 27.80516,20.0034052 26.9350924,19.2646821 C26.0070203,18.4691341 25.5429842,17.3894619 25.5429842,16.0256653 C25.5429842,15.1732925 25.7169977,14.4345694 26.0070203,13.7526711 C26.2970428,13.1275977 26.7610789,12.5593492 27.341124,12.1047503 C27.8631645,11.6501515 28.5012141,11.3660272 29.1392637,11.1387278 L29.1392637,11.1387278 C29.7773133,10.9114284 30.4733674,10.8546035 31.1694215,10.8546035 L31.7494666,10.8546035 L31.7494666,21.1399023 L31.7494666,21.1399023 Z M29.4872908,12.2752249 C28.9652502,12.4456995 28.4432096,12.6729989 28.0371781,13.013948 C27.6311465,13.3548971 27.2831194,13.7526711 27.0511014,14.2640948 C26.8190834,14.7755185 26.7030744,15.3437671 26.7030744,16.0256653 C26.7030744,17.0485127 27.0511014,17.8440607 27.689151,18.4123093 C28.3272006,18.923733 29.2552727,19.3783318 30.6473809,19.7192809 L30.6473809,12.0479255 C30.2413494,12.0479255 29.8353178,12.1615752 29.4872908,12.2752249 L29.4872908,12.2752249 Z" id="Shape" fill="#7D8EB8"></path>
                            </g>
                        </g>
                    </g>
                </g>
            </g>
        </g>
    </g>
</svg>