<?xml version="1.0" encoding="utf-8"?>
<!-- Generator: Adobe Illustrator 18.1.1, SVG Export Plug-In . SVG Version: 6.00 Build 0)  -->
<svg version="1.1" id="Layer_1" xmlns="http://www.w3.org/2000/svg" xmlns:xlink="http://www.w3.org/1999/xlink" x="0px" y="0px"
	 viewBox="5.4 108.6 272.2 66.2" enable-background="new 5.4 108.6 272.2 66.2" xml:space="preserve">
<g>
	<g stroke="none" stroke-width="1" fill="none" fill-rule="evenodd" opacity="0.245131341">
		<path fill-rule="nonzero" fill="#FFFFFF" d="M42,140.5c-0.1-0.1-0.1-0.2-0.2-0.2c-0.1-0.1-0.1-0.1-0.2-0.2c-0.1-0.1-0.2-0.1-0.2-0.2
			c-0.1-0.1-0.1-0.1-0.1-0.1l-16.1-8.9l-13.5,7.5l17,10.1L42,140.5L42,140.5"/>
		<path fill-rule="nonzero" fill="#FFFFFF" d="M43,140.8L43,140.8L43,140.8c0-0.1,0-0.2-0.1-0.3c0-0.1,0-0.2-0.1-0.2c0-0.1-0.1-0.2-0.1-0.3
			c0-0.1-0.1-0.1-0.1-0.2l-13.9,8.6V170l13.2-8.2c0.6-0.4,1-1,1-1.7C43,160.1,43,140.8,43,140.8z"/>
		<path fill-rule="nonzero" fill="#FFFFFF" d="M80.5,140.1c0.3-0.3,0.5-0.5,0.7-0.8c0.3-0.4,0.4-0.8,0.5-1.2c0.1-0.5,0.2-0.9,0.2-1.5
			c0-0.8-0.2-1.5-0.4-2.2c-0.3-0.7-0.6-1.3-1.2-1.7c-0.6-0.6-1.4-1.1-2.3-1.4c-0.8-0.3-1.7-0.5-2.7-0.5H65.3c-0.4,0-0.7,0.3-0.7,0.7
			v19.7c0,0.4,0.3,0.7,0.7,0.7h10.6c1,0,2-0.2,2.8-0.5c0.9-0.4,1.6-0.8,2.3-1.5c0.6-0.6,1.2-1.3,1.5-2.1c0.4-0.8,0.5-1.7,0.5-2.6
			c0-1.4-0.4-2.6-1.1-3.6C81.5,140.9,81.1,140.4,80.5,140.1 M75.9,147.4h-6.5v-4.7h6.7c0.4,0,0.7,0.1,1,0.2c0.3,0.2,0.6,0.4,0.8,0.6
			c0.3,0.4,0.5,0.9,0.5,1.5c0,0.3-0.1,0.7-0.2,0.9c-0.1,0.3-0.2,0.5-0.4,0.7c-0.3,0.2-0.5,0.4-0.9,0.6
			C76.6,147.3,76.2,147.4,75.9,147.4 M76.8,137.9c-0.1,0.2-0.3,0.3-0.5,0.4c-0.2,0.1-0.3,0.1-0.5,0.1h-6.4v-3.3h5.9
			c0.6,0,1.1,0.2,1.5,0.5c0.3,0.3,0.5,0.7,0.5,1.2C77.2,137.2,77.1,137.6,76.8,137.9"/>
		<path fill-rule="nonzero" fill="#FFFFFF" d="M91.8,130.7h-3.5c-0.4,0-0.7,0.3-0.7,0.7v19.7c0,0.4,0.3,0.7,0.7,0.7h14.8c0.4,0,0.7-0.3,0.7-0.7V148
			c0-0.4-0.3-0.7-0.7-0.7H92.4v-15.9C92.4,131,92.1,130.7,91.8,130.7"/>
		<path fill-rule="nonzero" fill="#FFFFFF" d="M124.1,133.2c-1-1-2.1-1.7-3.5-2.3c-1.3-0.5-2.8-0.8-4.4-0.8c-1.7,0-3.2,0.3-4.6,0.9
			c-1.4,0.6-2.6,1.4-3.6,2.5c-0.9,1-1.7,2.1-2.1,3.4c-0.5,1.3-0.8,2.7-0.8,4.1c0,1.4,0.3,2.7,0.8,4c0.5,1.3,1.2,2.4,2.1,3.4
			c1,1,2.1,1.9,3.6,2.5s2.9,0.9,4.6,0.9s3.2-0.3,4.5-0.8c1.4-0.6,2.5-1.4,3.5-2.4c0.9-1,1.7-2.1,2.2-3.4c0.5-1.3,0.8-2.7,0.8-4.2
			c0-1.5-0.3-2.9-0.8-4.2C125.9,135.4,125.1,134.3,124.1,133.2 M122.5,141c0,0.9-0.2,1.8-0.5,2.5c-0.3,0.7-0.7,1.4-1.2,2
			c-0.6,0.6-1.3,1.1-2,1.4c-1.6,0.7-3.6,0.7-5.1,0c-0.8-0.4-1.5-0.8-2-1.5c-0.5-0.6-0.9-1.2-1.3-2c-0.3-0.7-0.5-1.6-0.5-2.5
			s0.2-1.8,0.5-2.5c0.3-0.7,0.7-1.4,1.3-2c0.6-0.6,1.3-1.1,2-1.4c0.8-0.3,1.6-0.5,2.5-0.5s1.7,0.2,2.5,0.5c0.8,0.3,1.5,0.8,2,1.4
			c0.5,0.5,0.9,1.2,1.3,1.9C122.3,139.2,122.5,140.1,122.5,141"/>
		<path fill-rule="nonzero" fill="#FFFFFF" d="M136.6,136.6c0.6-0.6,1.3-1,2-1.3c1.7-0.7,3.8-0.6,5.3,0.1c0.7,0.3,2.1,1.4,2.7,1.9
			c0.2,0.2,0.4,0.1,0.6-0.1l2.4-2.7c0.2-0.2,0.2-0.5-0.1-0.6c-0.8-0.6-2.9-2.3-3.9-2.7c-1.3-0.6-2.9-0.8-4.6-0.8
			c-1.6,0-3.1,0.3-4.5,0.8c-1.4,0.5-2.5,1.3-3.5,2.3s-1.7,2.1-2.3,3.5c-0.5,1.3-0.8,2.7-0.8,4.2c0,1.6,0.3,3,0.8,4.3
			c0.5,1.3,1.4,2.5,2.4,3.5s2.1,1.7,3.5,2.3c1.3,0.5,2.8,0.8,4.4,0.8c1.7,0,3.3-0.3,4.6-0.8c1-0.4,3.1-2.1,3.9-2.7
			c0.2-0.2,0.2-0.4,0.1-0.6l-2.4-2.6c-0.2-0.2-0.4-0.2-0.6-0.1c-0.6,0.5-2,1.6-2.7,1.8c-1.6,0.7-3.7,0.8-5.4,0.1
			c-0.8-0.3-1.5-0.8-2-1.4c-0.5-0.5-0.9-1.2-1.3-1.9c-0.3-0.8-0.5-1.6-0.5-2.6c0-0.9,0.2-1.8,0.5-2.6
			C135.6,137.9,136,137.1,136.6,136.6"/>
		<path fill-rule="nonzero" fill="#FFFFFF" d="M172.7,130.7h-4.6c-0.3,0-0.6,0.2-0.8,0.4l-5.1,7.2h-3.1v-6.9c0-0.4-0.3-0.7-0.7-0.7H155
			c-0.4,0-0.7,0.3-0.7,0.7v19.7c0,0.4,0.3,0.7,0.7,0.7h3.5c0.4,0,0.7-0.3,0.7-0.7v-8.3h3.2l5.6,8.5c0.2,0.3,0.5,0.4,0.8,0.4h4.5
			c0.3,0,0.4-0.3,0.3-0.5l-7.1-10.8l6.6-9.2C173,131,172.9,130.7,172.7,130.7"/>
		<path fill-rule="nonzero" fill="#FFFFFF" d="M182,136.6c0.6-0.6,1.3-1,2-1.3c1.7-0.7,3.8-0.6,5.3,0.1c0.7,0.3,2.1,1.4,2.7,1.9c0.2,0.2,0.4,0.1,0.6-0.1
			l2.4-2.7c0.2-0.2,0.2-0.5-0.1-0.6c-0.8-0.6-2.9-2.3-3.9-2.7c-1.3-0.6-2.9-0.8-4.6-0.8c-1.6,0-3.1,0.3-4.5,0.8
			c-1.4,0.5-2.5,1.3-3.5,2.3c-1,1-1.7,2.1-2.3,3.5c-0.5,1.3-0.8,2.7-0.8,4.2c0,1.6,0.3,3,0.8,4.3c0.5,1.3,1.4,2.5,2.4,3.5
			c1,1,2.1,1.7,3.5,2.3c1.3,0.5,2.8,0.8,4.4,0.8c1.7,0,3.3-0.3,4.6-0.8c1-0.4,3.1-2.1,3.9-2.7c0.2-0.2,0.2-0.4,0.1-0.6l-2.4-2.6
			c-0.2-0.2-0.4-0.2-0.6-0.1c-0.6,0.5-2,1.6-2.7,1.8c-1.6,0.7-3.7,0.8-5.4,0.1c-0.8-0.3-1.5-0.8-2-1.4c-0.5-0.5-0.9-1.2-1.3-1.9
			c-0.3-0.8-0.5-1.6-0.5-2.6c0-0.9,0.2-1.8,0.5-2.6C181,137.9,181.4,137.1,182,136.6"/>
		<path fill-rule="nonzero" fill="#FFFFFF" d="M213.3,138.1h-9.1v-6.9c0-0.4-0.3-0.7-0.7-0.7H200c-0.4,0-0.7,0.3-0.7,0.7v19.7c0,0.4,0.3,0.7,0.7,0.7h3.5
			c0.4,0,0.7-0.3,0.7-0.7v-8.3h9.1v8.3c0,0.4,0.3,0.7,0.7,0.7h3.5c0.4,0,0.7-0.3,0.7-0.7v-19.7c0-0.4-0.3-0.7-0.7-0.7H214
			c-0.4,0-0.7,0.3-0.7,0.7V138.1z"/>
		<path fill-rule="nonzero" fill="#FFFFFF" d="M230.6,131.3l-8.9,20c-0.1,0.2,0.1,0.4,0.3,0.4h4c0.4,0,0.7-0.2,0.9-0.6l1.4-3h9.7l1.4,3
			c0.2,0.3,0.5,0.6,0.9,0.6h4.1c0.2,0,0.4-0.2,0.3-0.4l-8.9-20c-0.2-0.4-0.5-0.6-0.9-0.6h-3.4C231.1,130.7,230.7,130.9,230.6,131.3
			 M236.1,143.7h-6l2.9-7.5L236.1,143.7z"/>
		<path fill-rule="nonzero" fill="#FFFFFF" d="M248.9,151.7h3.4c0.4,0,0.7-0.3,0.7-0.7v-19.7c0-0.4-0.3-0.7-0.7-0.7h-3.4c-0.4,0-0.7,0.3-0.7,0.7v19.7
			C248.2,151.4,248.5,151.7,248.9,151.7"/>
		<path fill-rule="nonzero" fill="#FFFFFF" d="M273.7,145.3c0.4-0.2,0.7-0.4,1-0.7c0.5-0.4,0.9-0.8,1.3-1.3c1-1.3,1.5-2.9,1.5-4.7c0-1.2-0.2-2.2-0.6-3.1
			c-0.4-0.9-1-1.7-1.7-2.5c-0.7-0.7-1.6-1.3-2.6-1.7c-1-0.4-2-0.6-3.1-0.6h-9.7c-0.4,0-0.7,0.3-0.7,0.7v19.7c0,0.4,0.3,0.7,0.7,0.7
			h3.5c0.4,0,0.7-0.3,0.7-0.7v-4.7h5.1l2.9,4.9c0.2,0.3,0.5,0.5,0.8,0.5h4.6c0.2,0,0.3-0.2,0.2-0.4L273.7,145.3z M263.9,135.2h5.5
			c0.5,0,1,0.1,1.5,0.3c0.5,0.2,0.8,0.5,1.1,0.8c0.6,0.6,0.8,1.3,0.8,2.3c0,0.4-0.1,0.8-0.2,1.3c-0.2,0.4-0.4,0.7-0.7,1.1
			c-0.3,0.3-0.6,0.5-0.9,0.7c-0.4,0.2-0.9,0.3-1.4,0.3h-5.7L263.9,135.2L263.9,135.2z"/>
		<path fill-rule="nonzero" fill="#FFFFFF" d="M26.3,149.9l-2.4,0.3l-11.5,7.6c-1.2,0.7-1.1,2.4,0.1,3.1l11.2,6.6L26.3,149.9"/>
		<path fill-rule="nonzero" fill="#FFFFFF" d="M11.7,138.5l13.5-7.7v-18.3c0-1.2-1.3-1.9-2.3-1.4l-11.2,6.2V138.5z"/>
		<path fill-rule="nonzero" fill="#FFFFFF" d="M43.6,141c0-0.1,0-0.2-0.1-0.3c0-0.1,0-0.2-0.1-0.2c0-0.1-0.1-0.2-0.1-0.3c-0.1-0.1-0.1-0.2-0.1-0.2
			c-0.1-0.1-0.1-0.2-0.2-0.2c-0.1-0.1-0.1-0.1-0.2-0.2c-0.1-0.1-0.2-0.1-0.2-0.2c-0.1-0.1-0.1-0.1-0.2-0.2l0,0l0,0l-16.2-9v-19.9
			c0-0.7-0.4-1.3-0.9-1.6c-0.6-0.4-1.3-0.4-1.9-0.1l-17.1,9.3c-0.6,0.3-1,1-1,1.7v21.3c0,0.1,0,0.2,0.1,0.3c0,0.1,0,0.2,0.1,0.2
			c0,0.1,0.1,0.2,0.1,0.3c0,0.1,0.1,0.1,0.1,0.2c0.1,0.1,0.2,0.2,0.2,0.3c0.1,0.1,0.1,0.1,0.1,0.1c0.1,0.1,0.3,0.2,0.4,0.3l0,0
			l14.6,8.6L6.3,161c0,0,0,0-0.1,0c-0.1,0.1-0.1,0.1-0.2,0.2C6,161.2,6,161.2,6,161.3c-0.1,0.1-0.1,0.1-0.1,0.2
			c-0.1,0.1-0.1,0.1-0.1,0.2c0,0,0,0,0,0.1c0,0.1-0.1,0.1-0.1,0.1c-0.1,0.1-0.1,0.1-0.1,0.2c0,0.1-0.1,0.1-0.1,0.2
			c0,0.1-0.1,0.1-0.1,0.2c0,0.1,0,0.1,0,0.2c0,0.1,0,0.1,0,0.2c0,0.1,0,0.1,0,0.2c0,0.1,0,0.1,0.1,0.2c0,0.1,0.1,0.1,0.1,0.2
			c0,0.1,0.1,0.1,0.1,0.2c0.1,0.1,0.1,0.1,0.1,0.2c0,0.1,0.1,0.1,0.1,0.1c0,0,0,0,0,0.1c0.1,0.1,0.2,0.2,0.3,0.3l0.1,0.1
			c0.1,0.1,0.2,0.1,0.2,0.2l17.2,10.4l0,0l0,0c0.1,0.1,0.2,0.1,0.3,0.1c0.1,0,0.1,0.1,0.2,0.1c0.2,0.1,0.3,0.1,0.4,0.1h0.1l0,0l0,0
			c0,0,0,0,0.1,0c0.2,0,0.3,0,0.5-0.1c0.1,0,0.1-0.1,0.2-0.1c0.1-0.1,0.2-0.1,0.3-0.2l0,0l17.2-10.2c0.6-0.4,0.9-0.9,0.9-1.6
			L43.6,141C43.6,141.1,43.6,141,43.6,141L43.6,141 M9.2,120.9l13.4-7.2v16.8l-13.4,7.4V120.9z M11.1,141.2l13.4-7.4l13.4,7.4
			l-13.4,7.9L11.1,141.2z M22.6,154.8v14.8l-11.8-7L22.6,154.8z M39.8,161.7l-13.4,8v-17.3l13.4-8V161.7z"/>
	</g>
</g>
</svg>
