<?xml version="1.0" encoding="UTF-8"?>
<svg width="352px" height="349px" viewBox="0 0 352 349" version="1.1" xmlns="http://www.w3.org/2000/svg" xmlns:xlink="http://www.w3.org/1999/xlink">
    <!-- Generator: Sketch 47.1 (45422) - http://www.bohemiancoding.com/sketch -->
    <title>CrowdfundICO</title>
    <desc>Created with Sketch.</desc>
    <defs></defs>
    <g id="Page-1" stroke="none" stroke-width="1" fill="none" fill-rule="evenodd">
        <g id="Artboard-Copy-3" transform="translate(-979.000000, -1717.000000)">
            <g id="Section-2" transform="translate(0.000000, 1323.000000)">
                <g id="Section-2-List">
                    <g id="Upper" transform="translate(318.000000, 0.000000)">
                        <g id="CrowdfundICO" transform="translate(661.000000, 394.000000)">
                            <path d="M39,123 L115,161" id="Shape" stroke="#EA9F6C" opacity="0.497509058"></path>
                            <path d="M93,60 L133,128" id="Shape" stroke="#EA9F6C" opacity="0.497509058"></path>
                            <path d="M173,45 L172,117" id="Shape" stroke="#EA9F6C" opacity="0.497509058"></path>
                            <path d="M253,69 L208,126" id="Shape" stroke="#EA9F6C" opacity="0.497509058"></path>
                            <path d="M313,132 L238,161" id="Shape" stroke="#EA9F6C" opacity="0.497509058"></path>
                            <path d="M172,247 L172,280" id="Shape" stroke="#6786B2"></path>
                            <circle id="Oval" fill="#789EC4" fill-rule="nonzero" cx="173" cy="312" r="37"></circle>
                            <g id="Group" transform="translate(17.000000, 139.000000)" stroke="#A3B3C9">
                                <path d="M0.211764706,0.211392405 C0.211764706,0.211392405 0.370588235,1.32120253 0.794117647,3.32943038" id="Shape"></path>
                                <path d="M1.95882353,8.4556962 C8.15294118,34.0341772 32.9823529,113.200633 111.970588,163.829114" id="Shape" stroke-dasharray="11.9886,9.990500000000001"></path>
                                <path d="M114.247059,165.308861 C115.147059,165.89019 116.047059,166.418671 116.947059,167" id="Shape"></path>
                            </g>
                            <g id="Group" transform="translate(85.000000, 71.000000)" stroke="#A3B3C9">
                                <path d="M0.264705882,0.158690176 C0.264705882,0.158690176 0.211764706,1.26952141 0.211764706,3.3324937" id="Shape"></path>
                                <path d="M0.317647059,8.62216625 C1.16470588,33.324937 8.15294118,109.760705 60.0882353,204.657431" id="Shape" stroke-dasharray="11.9874,9.9895"></path>
                                <path d="M61.3588235,206.984887 C61.8882353,207.884131 62.3647059,208.836272 62.8941176,209.735516" id="Shape"></path>
                            </g>
                            <g id="Group" transform="translate(211.000000, 146.000000)" stroke="#A3B3C9">
                                <path d="M118.89469,0 C118.89469,0 118.736726,1.10981013 118.315487,3.11803797" id="Shape"></path>
                                <path d="M117.104425,8.2971519 C110.785841,33.928481 85.5115044,113.094937 5.21283186,163.67057" id="Shape" stroke-dasharray="12.0821,10.0684"></path>
                                <path d="M2.94867257,165.097468 C2.05353982,165.625949 1.15840708,166.207278 0.263274336,166.735759" id="Shape"></path>
                            </g>
                            <g id="Group" transform="translate(200.000000, 76.000000)" stroke="#A3B3C9">
                                <path d="M64.101626,0.158690176 C64.101626,0.158690176 64.1544715,1.26952141 64.1544715,3.3324937" id="Shape"></path>
                                <path d="M64.0487805,8.62216625 C63.203252,33.3778338 56.0691057,109.760705 3.11788618,204.657431" id="Shape" stroke-dasharray="12.014,10.0117"></path>
                                <path d="M1.74390244,206.984887 C1.21544715,207.884131 0.68699187,208.836272 0.158536585,209.735516" id="Shape"></path>
                            </g>
                            <circle id="Oval" fill="#EA9F6C" fill-rule="nonzero" cx="175" cy="180" r="67"></circle>
                            <path d="M62,134.252101 C62,135.582633 61.3684211,136.753501 60.2105263,137.605042 C59.4210526,138.190476 58.3157895,138.616246 57.1578947,138.77591 L57.1578947,140 L55.5789474,140 L55.5789474,138.829132 C52.9473684,138.669468 50.8421053,137.338936 50,135.316527 L52.5789474,134.305322 C53.1052632,135.47619 54.1578947,136.168067 55.5263158,136.27451 L55.5263158,131.537815 L55.4736842,131.537815 C54.4736842,131.112045 53.3684211,130.579832 52.4736842,129.781513 C51.4736842,128.929972 51,127.918768 51,126.694678 C51,125.417367 51.5263158,124.29972 52.5263158,123.448179 C53.3157895,122.756303 54.3684211,122.330532 55.5789474,122.170868 L55.5789474,121 L57.1578947,121 L57.1578947,122.170868 C59.1052632,122.330532 60.6842105,123.341737 61.5263158,124.938375 L58.8421053,126.002801 C58.6315789,125.577031 58.3157895,125.257703 57.8947368,124.991597 C57.6842105,124.885154 57.4210526,124.778711 57.1578947,124.72549 L57.1578947,129.408964 L57.1578947,129.408964 C57.2631579,129.462185 57.3684211,129.515406 57.4736842,129.568627 C59.5263158,130.473389 62,131.537815 62,134.252101 Z M55.5789474,128.663866 L55.5789474,124.72549 C54.5789474,124.991597 53.8947368,125.630252 53.8947368,126.535014 C53.8947368,127.173669 54.2105263,127.705882 54.8947368,128.184874 C55.0526316,128.344538 55.3157895,128.504202 55.5789474,128.663866 Z M58.8947368,134.411765 C58.8947368,133.507003 58.1052632,132.815126 57.1578947,132.282913 L57.1578947,136.168067 C57.4736842,136.114846 57.7894737,136.008403 58,135.848739 C58.5789474,135.47619 58.8947368,134.997199 58.8947368,134.411765 Z" id="Shape" fill="#6CB271" fill-rule="nonzero"></path>
                            <path d="M179,70.2359551 C179,71.5702247 178.368421,72.744382 177.210526,73.5983146 C176.421053,74.1853933 175.315789,74.6123596 174.157895,74.7724719 L174.157895,76 L172.578947,76 L172.578947,74.8258427 C169.947368,74.6657303 167.842105,73.3314607 167,71.3033708 L169.578947,70.2893258 C170.105263,71.4634831 171.157895,72.1573034 172.526316,72.2640449 L172.526316,67.5140449 L172.473684,67.5140449 C171.473684,67.0870787 170.368421,66.5533708 169.473684,65.752809 C168.473684,64.8988764 168,63.8848315 168,62.6573034 C168,61.3764045 168.526316,60.255618 169.526316,59.4016854 C170.315789,58.7078652 171.368421,58.2808989 172.578947,58.1207865 L172.578947,57 L174.157895,57 L174.157895,58.1741573 C176.105263,58.3342697 177.684211,59.3483146 178.526316,60.9494382 L175.842105,62.0168539 C175.631579,61.5898876 175.315789,61.2696629 174.894737,61.002809 C174.684211,60.8960674 174.421053,60.7893258 174.157895,60.7359551 L174.157895,65.4325843 L174.157895,65.4325843 C174.263158,65.4859551 174.368421,65.5393258 174.473684,65.5926966 C176.526316,66.4466292 179,67.5140449 179,70.2359551 Z M172.578947,64.6320225 L172.578947,60.6825843 C171.578947,60.9494382 170.894737,61.5898876 170.894737,62.497191 C170.894737,63.1376404 171.210526,63.6713483 171.894737,64.1516854 C172.052632,64.3117978 172.315789,64.4719101 172.578947,64.6320225 Z M175.894737,70.3960674 C175.894737,69.488764 175.105263,68.7949438 174.157895,68.261236 L174.157895,72.1573034 C174.473684,72.1039326 174.789474,71.997191 175,71.8370787 C175.578947,71.4634831 175.894737,70.9831461 175.894737,70.3960674 Z" id="Shape" fill="#6CB271" fill-rule="nonzero"></path>
                            <path d="M112,84.2521008 C112,85.5826331 111.368421,86.7535014 110.210526,87.605042 C109.421053,88.1904762 108.315789,88.6162465 107.157895,88.7759104 L107.157895,90 L105.578947,90 L105.578947,88.8291317 C102.947368,88.6694678 100.842105,87.3389356 100,85.3165266 L102.578947,84.3053221 C103.105263,85.4761905 104.157895,86.1680672 105.526316,86.2745098 L105.526316,81.5378151 L105.473684,81.5378151 C104.473684,81.1120448 103.368421,80.5798319 102.473684,79.7815126 C101.473684,78.929972 101,77.9187675 101,76.6946779 C101,75.4173669 101.526316,74.2997199 102.526316,73.4481793 C103.315789,72.7563025 104.368421,72.3305322 105.578947,72.1708683 L105.578947,71 L107.157895,71 L107.157895,72.1708683 C109.105263,72.3305322 110.684211,73.3417367 111.526316,74.9383754 L108.842105,76.0028011 C108.631579,75.5770308 108.315789,75.2577031 107.894737,74.9915966 C107.684211,74.8851541 107.421053,74.7787115 107.157895,74.7254902 L107.157895,79.4089636 L107.157895,79.4089636 C107.263158,79.4621849 107.368421,79.5154062 107.473684,79.5686275 C109.526316,80.4733894 112,81.5378151 112,84.2521008 Z M105.578947,78.6638655 L105.578947,74.7254902 C104.578947,74.9915966 103.894737,75.6302521 103.894737,76.535014 C103.894737,77.1736695 104.210526,77.7058824 104.894737,78.1848739 C105.105263,78.3445378 105.315789,78.5042017 105.578947,78.6638655 Z M108.894737,84.4117647 C108.894737,83.5070028 108.105263,82.8151261 107.157895,82.2829132 L107.157895,86.1680672 C107.473684,86.1148459 107.789474,86.0084034 108,85.8487395 C108.578947,85.4761905 108.894737,84.9971989 108.894737,84.4117647 Z" id="Shape" fill="#6CB271" fill-rule="nonzero"></path>
                            <path d="M303,141.252101 C303,142.582633 302.368421,143.753501 301.210526,144.605042 C300.421053,145.190476 299.315789,145.616246 298.157895,145.77591 L298.157895,147 L296.578947,147 L296.578947,145.829132 C293.947368,145.669468 291.842105,144.338936 291,142.316527 L293.578947,141.305322 C294.105263,142.47619 295.157895,143.168067 296.526316,143.27451 L296.526316,138.537815 L296.473684,138.537815 C295.473684,138.112045 294.368421,137.579832 293.473684,136.781513 C292.473684,135.929972 292,134.918768 292,133.694678 C292,132.417367 292.526316,131.29972 293.526316,130.448179 C294.315789,129.756303 295.368421,129.330532 296.578947,129.170868 L296.578947,128 L298.157895,128 L298.157895,129.170868 C300.105263,129.330532 301.684211,130.341737 302.526316,131.938375 L299.842105,133.002801 C299.631579,132.577031 299.315789,132.257703 298.894737,131.991597 C298.684211,131.885154 298.421053,131.778711 298.157895,131.72549 L298.157895,136.408964 L298.157895,136.408964 C298.263158,136.462185 298.368421,136.515406 298.473684,136.568627 C300.526316,137.420168 303,138.484594 303,141.252101 Z M296.578947,135.663866 L296.578947,131.72549 C295.578947,131.991597 294.894737,132.630252 294.894737,133.535014 C294.894737,134.173669 295.210526,134.705882 295.894737,135.184874 C296.105263,135.344538 296.315789,135.504202 296.578947,135.663866 Z M299.894737,141.358543 C299.894737,140.453782 299.105263,139.761905 298.157895,139.229692 L298.157895,143.114846 C298.473684,143.061625 298.789474,142.955182 299,142.795518 C299.578947,142.422969 299.894737,141.943978 299.894737,141.358543 Z" id="Shape" fill="#6CB271" fill-rule="nonzero"></path>
                            <path d="M246,89.2521008 C246,90.5826331 245.368421,91.7535014 244.210526,92.605042 C243.421053,93.1904762 242.315789,93.6162465 241.157895,93.7759104 L241.157895,95 L239.578947,95 L239.578947,93.8291317 C236.947368,93.6694678 234.842105,92.3389356 234,90.3165266 L236.578947,89.3053221 C237.105263,90.4761905 238.157895,91.1680672 239.526316,91.2745098 L239.526316,86.5378151 L239.473684,86.5378151 C238.473684,86.1120448 237.368421,85.5798319 236.473684,84.7815126 C235.473684,83.929972 235,82.9187675 235,81.6946779 C235,80.4173669 235.526316,79.2997199 236.526316,78.4481793 C237.315789,77.7563025 238.368421,77.3305322 239.578947,77.1708683 L239.578947,76 L241.157895,76 L241.157895,77.1708683 C243.105263,77.3305322 244.684211,78.3417367 245.526316,79.9383754 L242.842105,81.0028011 C242.631579,80.5770308 242.315789,80.2577031 241.894737,79.9915966 C241.684211,79.8851541 241.421053,79.7787115 241.157895,79.7254902 L241.157895,84.4089636 L241.157895,84.4089636 C241.263158,84.4621849 241.368421,84.5154062 241.473684,84.5686275 C243.526316,85.4201681 246,86.4845938 246,89.2521008 Z M239.578947,83.6638655 L239.578947,79.7254902 C238.578947,79.9915966 237.894737,80.6302521 237.894737,81.535014 C237.894737,82.1736695 238.210526,82.7058824 238.894737,83.1848739 C239.052632,83.3445378 239.315789,83.5042017 239.578947,83.6638655 Z M242.894737,89.3585434 C242.894737,88.4537815 242.105263,87.7619048 241.157895,87.2296919 L241.157895,91.1148459 C241.473684,91.0616246 241.789474,90.9551821 242,90.7955182 C242.578947,90.4229692 242.894737,89.9439776 242.894737,89.3585434 Z" id="Shape" fill="#6CB271" fill-rule="nonzero"></path>
                            <circle id="Oval" fill="#B4C2D6" fill-rule="nonzero" cx="22" cy="110" r="22"></circle>
                            <circle id="Oval" fill="#B4C2D6" fill-rule="nonzero" cx="81" cy="46" r="22"></circle>
                            <circle id="Oval" fill="#B4C2D6" fill-rule="nonzero" cx="172" cy="22" r="22"></circle>
                            <circle id="Oval" fill="#B4C2D6" fill-rule="nonzero" cx="268" cy="51" r="22"></circle>
                            <circle id="Oval" fill="#B4C2D6" fill-rule="nonzero" cx="330" cy="120" r="22"></circle>
                            <g id="Group" transform="translate(132.000000, 119.000000)" fill-rule="nonzero">
                                <path d="M27.0967391,0.159016393 L72.1173913,0.159016393 C72.1173913,0.159016393 59.148913,14.6295082 48.5,15.0005464 C37.851087,15.2655738 27.0967391,0.159016393 27.0967391,0.159016393 Z" id="Shape" fill="#F2DD9C"></path>
                                <path d="M0.474456522,96.5759563 C0.474456522,96.5759563 8.27663043,22.3153005 48.6581522,22.3153005 C89.0396739,22.3153005 96.8418478,96.5759563 96.8418478,96.5759563 L0.474456522,96.5759563 L0.474456522,96.5759563 Z" id="Shape" fill="#F2DD9C"></path>
                                <path d="M52.8755435,22.3153005 L44.3880435,22.3153005 C42.3847826,22.3153005 40.7505435,20.6721311 40.7505435,18.6579235 L40.7505435,18.6579235 C40.7505435,16.6437158 42.3847826,15.0005464 44.3880435,15.0005464 L52.8755435,15.0005464 C54.8788043,15.0005464 56.5130435,16.6437158 56.5130435,18.6579235 L56.5130435,18.6579235 C56.5657609,20.6721311 54.9315217,22.3153005 52.8755435,22.3153005 Z" id="Shape" fill="#635355"></path>
                                <path d="M57.0929348,64.0836066 C57.0929348,64.8256831 56.9875,65.5677596 56.7766304,66.3098361 C56.5657609,67.0519126 56.2494565,67.7409836 55.775,68.3240437 C54.9315217,69.4371585 54.0353261,70.2852459 53.086413,70.8153005 C52.2429348,71.2923497 51.2940217,71.6103825 50.3451087,71.7163934 L50.3451087,74.5256831 C50.3451087,74.7907104 50.1342391,75.0027322 49.8706522,75.0027322 L47.551087,75.0027322 C47.2875,75.0027322 47.0766304,74.7907104 47.0766304,74.5256831 L47.0766304,71.663388 C45.6532609,71.3983607 44.3880435,70.868306 43.2282609,70.0202186 C41.9630435,69.0661202 40.961413,67.7939891 40.2233696,66.1508197 C40.1179348,65.9387978 40.2233696,65.6737705 40.3815217,65.5677596 L42.701087,64.1896175 C42.8065217,64.136612 42.9646739,64.0836066 43.0701087,64.136612 C43.1755435,64.1896175 43.2809783,64.2956284 43.386413,64.4016393 C43.9663043,65.6737705 44.7570652,66.6808743 45.6532609,67.2639344 C46.5494565,67.9 47.6565217,68.1650273 48.8163043,68.1650273 C49.7125,68.1650273 50.5032609,68.0060109 51.188587,67.6349727 C51.873913,67.2639344 52.4538043,66.7338798 52.9809783,65.9387978 C53.2972826,65.4617486 53.4027174,64.931694 53.4027174,64.2956284 C53.4027174,63.8715847 53.35,63.447541 53.1918478,63.0234973 C53.0336957,62.652459 52.8755435,62.3344262 52.6119565,62.0163934 C52.0320652,61.4333333 51.3994565,60.9562842 50.661413,60.6382514 C49.9233696,60.2672131 49.0798913,59.9491803 48.236413,59.6311475 C47.3929348,59.3131148 46.4967391,58.995082 45.6005435,58.6240437 C44.7043478,58.2530055 43.8081522,57.7229508 43.0173913,57.0868852 C42.2793478,56.5038251 41.7521739,55.7617486 41.3831522,54.9136612 C41.0668478,54.0655738 40.8559783,53.2174863 40.8559783,52.263388 C40.8559783,51.5743169 40.961413,50.8322404 41.1722826,50.1961749 C41.3831522,49.5071038 41.6467391,48.8710383 42.0157609,48.3409836 C42.7538043,47.1748634 43.65,46.3797814 44.6516304,45.9557377 C45.4423913,45.5846995 46.2858696,45.3726776 47.023913,45.2666667 L47.023913,43.3054645 C47.023913,43.0404372 47.2347826,42.8284153 47.4983696,42.8284153 L49.8179348,42.8284153 C50.0815217,42.8284153 50.2923913,43.0404372 50.2923913,43.3054645 L50.2923913,45.2666667 C51.3467391,45.4256831 52.401087,45.7437158 53.2972826,46.220765 C54.3516304,46.7508197 55.3532609,47.5989071 56.1440217,48.6590164 C56.3021739,48.8710383 56.2494565,49.1360656 56.0913043,49.295082 L54.1407609,51.3092896 C54.0353261,51.4153005 53.9298913,51.468306 53.7717391,51.468306 C53.613587,51.468306 53.5081522,51.4153005 53.4027174,51.2562842 C52.7173913,50.4081967 52.0320652,49.7721311 51.2940217,49.4010929 C50.5559783,49.0300546 49.6597826,48.8710383 48.7108696,48.8710383 C47.9201087,48.8710383 47.1820652,48.9770492 46.5494565,49.2420765 C45.9168478,49.4540984 45.3896739,49.984153 44.9152174,50.673224 C44.8097826,50.8322404 44.7043478,51.0972678 44.6516304,51.3622951 C44.5461957,51.6273224 44.5461957,51.9453552 44.5461957,52.263388 C44.5461957,52.5814208 44.598913,52.8994536 44.7043478,53.2174863 C44.8097826,53.5355191 44.9679348,53.747541 45.2315217,53.9595628 C45.9168478,54.5956284 46.6548913,55.0726776 47.4456522,55.3907104 C48.2891304,55.7617486 49.1326087,56.0797814 49.976087,56.3978142 C50.8722826,56.715847 51.7157609,57.0868852 52.5592391,57.4579235 C53.4554348,57.8819672 54.2461957,58.4120219 55.0369565,59.1540984 C55.7222826,59.7901639 56.2494565,60.5852459 56.5657609,61.4333333 C56.9347826,62.2814208 57.0929348,63.1825137 57.0929348,64.0836066 Z" id="Shape" fill="#429648"></path>
                            </g>
                            <g id="Group" transform="translate(134.000000, 172.000000)" fill-rule="nonzero">
                                <path d="M16.7082569,12.5492063 C7.50275229,12.5492063 0.0532110092,9.78412698 0.0532110092,6.38095238 L0.0532110092,15.4738095 C0.0532110092,18.8769841 7.50275229,21.6420635 16.7082569,21.6420635 C25.9137615,21.6420635 33.3633028,18.8769841 33.3633028,15.4738095 L33.3633028,6.38095238 C33.3633028,9.78412698 25.9137615,12.5492063 16.7082569,12.5492063 Z" id="Shape" fill="#C0CCD6"></path>
                                <path d="M16.7082569,21.2698413 C7.50275229,21.2698413 0.0532110092,18.5047619 0.0532110092,15.1015873 L0.0532110092,24.1944444 C0.0532110092,27.597619 7.50275229,30.3626984 16.7082569,30.3626984 C25.9137615,30.3626984 33.3633028,27.597619 33.3633028,24.1944444 L33.3633028,15.1015873 C33.3633028,18.5047619 25.9137615,21.2698413 16.7082569,21.2698413 Z" id="Shape" fill="#A9BCC8"></path>
                                <path d="M16.7082569,29.9904762 C7.50275229,29.9904762 0.0532110092,27.2253968 0.0532110092,23.8222222 L0.0532110092,32.9150794 C0.0532110092,36.318254 7.50275229,39.0833333 16.7082569,39.0833333 C25.9137615,39.0833333 33.3633028,36.318254 33.3633028,32.9150794 L33.3633028,23.8222222 C33.3633028,27.2253968 25.9137615,29.9904762 16.7082569,29.9904762 Z" id="Shape" fill="#C0CCD6"></path>
                                <path d="M16.7082569,38.7111111 C7.50275229,38.7111111 0.0532110092,35.9460317 0.0532110092,32.5428571 L0.0532110092,41.6357143 C0.0532110092,45.0388889 7.50275229,47.8039683 16.7082569,47.8039683 C25.9137615,47.8039683 33.3633028,45.0388889 33.3633028,41.6357143 L33.3633028,32.5428571 C33.3633028,35.9460317 25.9137615,38.7111111 16.7082569,38.7111111 Z" id="Shape" fill="#A9BCC8"></path>
                                <path d="M16.7082569,47.4849206 C7.50275229,47.4849206 0.0532110092,44.7198413 0.0532110092,41.3166667 L0.0532110092,50.4095238 C0.0532110092,53.8126984 7.50275229,56.5777778 16.7082569,56.5777778 C25.9137615,56.5777778 33.3633028,53.8126984 33.3633028,50.4095238 L33.3633028,41.3166667 C33.3633028,44.7198413 25.9137615,47.4849206 16.7082569,47.4849206 Z" id="Shape" fill="#C0CCD6"></path>
                                <path d="M16.7082569,56.2055556 C7.50275229,56.2055556 0.0532110092,53.4404762 0.0532110092,50.0373016 L0.0532110092,59.1301587 C0.0532110092,62.5333333 7.50275229,65.2984127 16.7082569,65.2984127 C25.9137615,65.2984127 33.3633028,62.5333333 33.3633028,59.1301587 L33.3633028,50.0373016 C33.3633028,53.4404762 25.9137615,56.2055556 16.7082569,56.2055556 Z" id="Shape" fill="#A9BCC8"></path>
                                <ellipse id="Oval" fill="#F5F5F5" cx="16.7082569" cy="6.38095238" rx="16.6550459" ry="6.16825397"></ellipse>
                                <path d="M40.866055,31.3198413 C31.6605505,31.3198413 24.2110092,28.5547619 24.2110092,25.1515873 L24.2110092,34.2444444 C24.2110092,37.647619 31.6605505,40.4126984 40.866055,40.4126984 C50.0715596,40.4126984 57.5211009,37.647619 57.5211009,34.2444444 L57.5211009,25.1515873 C57.5211009,28.5547619 50.0715596,31.3198413 40.866055,31.3198413 Z" id="Shape" fill="#E2B564"></path>
                                <path d="M40.866055,40.0404762 C31.6605505,40.0404762 24.2110092,37.2753968 24.2110092,33.8722222 L24.2110092,42.9650794 C24.2110092,46.368254 31.6605505,49.1333333 40.866055,49.1333333 C50.0715596,49.1333333 57.5211009,46.368254 57.5211009,42.9650794 L57.5211009,33.8722222 C57.5211009,37.2753968 50.0715596,40.0404762 40.866055,40.0404762 Z" id="Shape" fill="#D1A154"></path>
                                <path d="M40.866055,48.7611111 C31.6605505,48.7611111 24.2110092,45.9960317 24.2110092,42.5928571 L24.2110092,51.6857143 C24.2110092,55.0888889 31.6605505,57.8539683 40.866055,57.8539683 C50.0715596,57.8539683 57.5211009,55.0888889 57.5211009,51.6857143 L57.5211009,42.5928571 C57.5211009,45.9960317 50.0715596,48.7611111 40.866055,48.7611111 Z" id="Shape" fill="#E2B564"></path>
                                <path d="M40.866055,57.481746 C31.6605505,57.481746 24.2110092,54.7166667 24.2110092,51.3134921 L24.2110092,60.4063492 C24.2110092,63.8095238 31.6605505,66.5746032 40.866055,66.5746032 C50.0715596,66.5746032 57.5211009,63.8095238 57.5211009,60.4063492 L57.5211009,51.3134921 C57.5211009,54.7166667 50.0715596,57.481746 40.866055,57.481746 Z" id="Shape" fill="#D1A154"></path>
                                <ellipse id="Oval" fill="#F8E4C5" cx="40.866055" cy="25.1515873" rx="16.6550459" ry="6.16825397"></ellipse>
                            </g>
                            <g id="Group" transform="translate(80.000000, 70.000000)" stroke="#617FB5">
                                <path d="M5.555,0.490909091 L0.165,5.50909091" id="Shape"></path>
                                <path d="M5.5,0.981818182 L10.505,5.12727273" id="Shape"></path>
                            </g>
                            <g id="Group" transform="translate(13.000000, 136.000000)" stroke="#617FB5">
                                <path d="M4.42105263,0.109090909 L0.157894737,6" id="Shape"></path>
                                <path d="M4.42105263,0.6 L9.84210526,3.81818182" id="Shape"></path>
                            </g>
                            <g id="Group" transform="translate(258.000000, 74.000000)" stroke="#617FB5">
                                <path d="M5.29047619,0.1 L10.6333333,4.7" id="Shape"></path>
                                <path d="M5.34285714,0.55 L0.366666667,4.35" id="Shape"></path>
                            </g>
                            <g id="Group" transform="translate(325.000000, 145.000000)" stroke="#617FB5">
                                <path d="M6.215,0.163636364 L10.835,6" id="Shape"></path>
                                <path d="M6.215,0.654545455 L0.33,3.81818182" id="Shape"></path>
                            </g>
                            <circle id="Oval" fill="#FEFEFE" fill-rule="nonzero" cx="22" cy="101" r="6"></circle>
                            <path d="M27.0373134,107 L15.9626866,107 C13.2462687,107 11,109.258403 11,111.989496 L11,127.010504 C11,129.741597 13.2462687,132 15.9626866,132 L27.0373134,132 C29.7537313,132 32,129.741597 32,127.010504 L32,111.989496 C32,109.258403 29.7537313,107 27.0373134,107 Z" id="Shape" fill="#FEFEFE" fill-rule="nonzero"></path>
                            <g id="Group" transform="translate(70.000000, 30.000000)" fill-rule="nonzero" fill="#FEFEFE">
                                <ellipse id="Oval" cx="10.9463415" cy="6.06944444" rx="5.95609756" ry="5.85833333"></ellipse>
                                <path d="M16.902439,12.4555556 L5.52682927,12.4555556 C2.73658537,12.4555556 0.429268293,14.725 0.429268293,17.4694444 L0.429268293,32.5638889 C0.429268293,35.3083333 2.73658537,37.5777778 5.52682927,37.5777778 L16.902439,37.5777778 C19.6926829,37.5777778 22,35.3083333 22,32.5638889 L22,17.4694444 C22,14.725 19.6926829,12.4555556 16.902439,12.4555556 Z" id="Shape"></path>
                            </g>
                            <g id="Group" transform="translate(258.000000, 35.000000)" fill-rule="nonzero" fill="#FEFEFE">
                                <ellipse id="Oval" cx="10.6857143" cy="5.96388889" rx="5.81428571" ry="5.85833333"></ellipse>
                                <path d="M16.5,12.4027778 L5.3952381,12.4027778 C2.67142857,12.4027778 0.419047619,14.6722222 0.419047619,17.4166667 L0.419047619,32.5111111 C0.419047619,35.2555556 2.67142857,37.525 5.3952381,37.525 L16.5,37.525 C19.2238095,37.525 21.4761905,35.2555556 21.4761905,32.5111111 L21.4761905,17.4166667 C21.4761905,14.6194444 19.2238095,12.4027778 16.5,12.4027778 Z" id="Shape"></path>
                            </g>
                            <g id="Group" transform="translate(162.000000, 6.000000)" fill-rule="nonzero" fill="#FEFEFE">
                                <ellipse id="Oval" cx="10.9463415" cy="6.175" rx="5.95609756" ry="5.85833333"></ellipse>
                                <path d="M16.902439,12.6138889 L5.52682927,12.6138889 C2.73658537,12.6138889 0.429268293,14.8833333 0.429268293,17.6277778 L0.429268293,32.7222222 C0.429268293,35.4666667 2.73658537,37.7361111 5.52682927,37.7361111 L16.902439,37.7361111 C19.6926829,37.7361111 22,35.4666667 22,32.7222222 L22,17.6277778 C22,14.8833333 19.6926829,12.6138889 16.902439,12.6138889 Z" id="Shape"></path>
                            </g>
                            <g id="Group" transform="translate(320.000000, 105.000000)" fill-rule="nonzero" fill="#FEFEFE">
                                <ellipse id="Oval" cx="10.6780488" cy="5.83661972" rx="5.95609756" ry="5.78450704"></ellipse>
                                <path d="M16.6341463,12.1422535 L5.25853659,12.1422535 C2.46829268,12.1422535 0.16097561,14.3830986 0.16097561,17.0929577 L0.16097561,31.9971831 C0.16097561,34.7070423 2.46829268,36.9478873 5.25853659,36.9478873 L16.6341463,36.9478873 C19.4243902,36.9478873 21.7317073,34.7070423 21.7317073,31.9971831 L21.7317073,17.0929577 C21.7317073,14.3830986 19.4243902,12.1422535 16.6341463,12.1422535 Z" id="Shape"></path>
                            </g>
                            <circle id="Oval" fill="#90AFD3" fill-rule="nonzero" cx="173.5" cy="312.5" r="28.5"></circle>
                            <g id="Group" transform="translate(159.000000, 300.000000)" fill-rule="nonzero" fill="#FFFFFF">
                                <polygon id="Shape" points="6.60555556 5.75 4.88703704 0.104545455 6.28333333 0.104545455 7.3037037 3.92045455 7.3037037 3.92045455 8.32407407 0.104545455 9.61296296 0.104545455 7.89444444 5.75 7.89444444 8.52045455 6.55185185 8.52045455 6.55185185 5.75"></polygon>
                                <path d="M9.93518519,2.14318182 C9.93518519,0.784090909 10.687037,0.0522727273 11.9759259,0.0522727273 C13.3185185,0.0522727273 14.0166667,0.836363636 14.0166667,2.14318182 L14.0166667,6.53409091 C14.0166667,7.89318182 13.2648148,8.625 11.9759259,8.625 C10.6333333,8.625 9.93518519,7.84090909 9.93518519,6.53409091 L9.93518519,2.14318182 Z M11.3314815,6.58636364 C11.3314815,7.16136364 11.6,7.42272727 12.0296296,7.42272727 C12.4592593,7.42272727 12.7277778,7.21363636 12.7277778,6.58636364 L12.7277778,2.03863636 C12.7277778,1.46363636 12.4592593,1.20227273 12.0296296,1.20227273 C11.6,1.20227273 11.3314815,1.41136364 11.3314815,2.03863636 L11.3314815,6.58636364 Z" id="Shape"></path>
                                <path d="M16.2722222,0.104545455 L16.2722222,6.58636364 C16.2722222,7.16136364 16.5407407,7.42272727 16.9703704,7.42272727 C17.4,7.42272727 17.6685185,7.21363636 17.6685185,6.58636364 L17.6685185,0.104545455 L18.9574074,0.104545455 L18.9574074,6.53409091 C18.9574074,7.89318182 18.2592593,8.625 16.9166667,8.625 C15.5740741,8.625 14.8759259,7.84090909 14.8759259,6.53409091 L14.8759259,0.104545455 L16.2722222,0.104545455 Z" id="Shape"></path>
                                <path d="M22.7166667,8.52045455 C22.662963,8.31136364 22.6092593,8.15454545 22.6092593,7.475 L22.6092593,6.16818182 C22.6092593,5.38409091 22.3407407,5.12272727 21.6962963,5.12272727 L21.212963,5.12272727 L21.212963,8.57272727 L19.8703704,8.57272727 L19.8703704,0.156818182 L21.9111111,0.156818182 C23.3074074,0.156818182 23.8981481,0.784090909 23.8981481,2.09090909 L23.8981481,2.77045455 C23.8981481,3.65909091 23.6296296,4.18181818 22.9851852,4.44318182 L22.9851852,4.44318182 C23.6833333,4.70454545 23.8981481,5.33181818 23.8981481,6.22045455 L23.8981481,7.52727273 C23.8981481,7.94545455 23.8981481,8.25909091 24.0592593,8.57272727 L22.7166667,8.57272727 L22.7166667,8.52045455 Z M21.212963,1.30681818 L21.212963,3.86818182 L21.75,3.86818182 C22.2333333,3.86818182 22.5555556,3.65909091 22.5555556,2.97954545 L22.5555556,2.14318182 C22.5555556,1.56818182 22.3407407,1.25454545 21.8574074,1.25454545 L21.212963,1.25454545 L21.212963,1.30681818 Z" id="Shape"></path>
                                <polygon id="Shape" points="0 12.3886364 5.10185185 12.3886364 5.10185185 13.8522727 3.38333333 13.8522727 3.38333333 22.6340909 1.71851852 22.6340909 1.71851852 13.8522727 0 13.8522727"></polygon>
                                <path d="M5.69259259,14.8454545 C5.69259259,13.225 6.60555556,12.2840909 8.21666667,12.2840909 C9.82777778,12.2840909 10.7407407,13.225 10.7407407,14.8454545 L10.7407407,20.1772727 C10.7407407,21.7977273 9.82777778,22.7386364 8.21666667,22.7386364 C6.60555556,22.7386364 5.69259259,21.7977273 5.69259259,20.1772727 L5.69259259,14.8454545 Z M7.35740741,20.2818182 C7.35740741,21.0136364 7.67962963,21.275 8.21666667,21.275 C8.7537037,21.275 9.07592593,21.0136364 9.07592593,20.2818182 L9.07592593,14.7409091 C9.07592593,14.0090909 8.7537037,13.7477273 8.21666667,13.7477273 C7.67962963,13.7477273 7.35740741,14.0090909 7.35740741,14.7409091 L7.35740741,20.2818182 Z" id="Shape"></path>
                                <polygon id="Shape" points="13.9092593 18.5568182 13.3722222 19.4977273 13.3722222 22.6340909 11.7074074 22.6340909 11.7074074 12.3886364 13.3722222 12.3886364 13.3722222 16.8318182 13.4259259 16.8318182 15.5740741 12.3886364 17.2388889 12.3886364 14.9296296 16.9363636 17.2388889 22.6340909 15.5203704 22.6340909"></polygon>
                                <polygon id="Shape" points="19.6555556 16.7272727 21.9111111 16.7272727 21.9111111 18.1909091 19.6555556 18.1909091 19.6555556 21.1704545 22.5018519 21.1704545 22.5018519 22.6340909 17.9907407 22.6340909 17.9907407 12.3886364 22.5018519 12.3886364 22.5018519 13.8522727 19.6555556 13.8522727"></polygon>
                                <polygon id="Shape" points="25.0259259 15.2113636 25.0259259 15.2113636 24.9722222 22.6340909 23.4685185 22.6340909 23.4685185 12.3886364 25.562963 12.3886364 27.2277778 18.5045455 27.2814815 18.5045455 27.2814815 12.3886364 28.7314815 12.3886364 28.7314815 22.6340909 27.012963 22.6340909"></polygon>
                            </g>
                        </g>
                    </g>
                </g>
            </g>
        </g>
    </g>
</svg>