<?xml version="1.0" encoding="UTF-8"?>
<svg width="65px" height="73px" viewBox="0 0 65 73" version="1.1" xmlns="http://www.w3.org/2000/svg" xmlns:xlink="http://www.w3.org/1999/xlink">
    <!-- Generator: Sketch 47.1 (45422) - http://www.bohemiancoding.com/sketch -->
    <title>DaemonIcon</title>
    <desc>Created with Sketch.</desc>
    <defs></defs>
    <g id="Page-1" stroke="none" stroke-width="1" fill="none" fill-rule="evenodd">
        <g id="Artboard-Copy-3" transform="translate(-1090.000000, -2669.000000)" fill-rule="nonzero">
            <g id="Section-2" transform="translate(0.000000, 1323.000000)">
                <g id="Section-2-List">
                    <g id="Lower" transform="translate(0.000000, 1267.000000)">
                        <g id="Colored-Icons" transform="translate(248.000000, 79.000000)">
                            <g id="DaemonIcon" transform="translate(842.000000, 0.000000)">
                                <path d="M50.343949,23.433121 C49.9299363,19.4585987 41.2770701,16.3121019 30.6369427,16.3121019 C19.9968153,16.3121019 11.343949,19.4585987 10.9299363,23.433121 L10.9299363,23.433121 L10.9299363,53.0764331 L10.9299363,53.0764331 C11.343949,57.0509554 19.9968153,60.1974522 30.6369427,60.1974522 C41.2770701,60.1974522 49.9299363,57.0509554 50.343949,53.0764331 L50.343949,53.0764331 L50.343949,23.433121 L50.343949,23.433121 Z" id="Shape" fill="#EAF9FF"></path>
                                <path d="M31.133758,16.1050955 C31.133758,16.1050955 20.1210191,14.656051 12.7101911,22.3980892 L13,52.9522293 C13,52.9522293 17.2643312,59.9904459 29.9745223,60.0318471 L31.133758,16.1050955 Z" id="Shape" fill="#D5E3F3"></path>
                                <ellipse id="Oval" fill="#EAF9FF" cx="31.2579618" cy="23.433121" rx="19.7070064" ry="7.41082803"></ellipse>
                                <g id="Group" transform="translate(12.006369, 22.770701)" fill="#A3B6E8">
                                    <path d="M20.410828,27.7802548 C9.10828025,27.7802548 0.289808917,24.343949 0.289808917,19.955414 C0.289808917,19.7070064 0.455414013,19.5414013 0.703821656,19.5414013 C0.952229299,19.5414013 1.11783439,19.7070064 1.11783439,19.955414 C1.11783439,23.7643312 9.97770701,26.9522293 20.410828,26.9522293 C20.6592357,26.9522293 20.8248408,27.1178344 20.8248408,27.366242 C20.8248408,27.6146497 20.6592357,27.7802548 20.410828,27.7802548 Z" id="Shape"></path>
                                    <path d="M20.410828,27.7802548 C20.1624204,27.7802548 19.9968153,27.6146497 19.9968153,27.366242 C19.9968153,27.1178344 20.1624204,26.9522293 20.410828,26.9522293 C20.9076433,26.9522293 21.4044586,26.9522293 21.9426752,26.910828 C22.1496815,26.910828 22.3566879,27.0764331 22.3566879,27.3248408 C22.3566879,27.5732484 22.1910828,27.7388535 21.9426752,27.7388535 C21.4458599,27.7388535 20.9490446,27.7802548 20.410828,27.7802548 Z" id="Shape"></path>
                                    <path d="M27.366242,27.2834395 C27.1592357,27.2834395 26.9936306,27.1178344 26.9522293,26.910828 C26.910828,26.7038217 27.0764331,26.455414 27.3248408,26.455414 C28.3598726,26.2898089 29.3949045,26.1242038 30.388535,25.9171975 C30.5955414,25.8757962 30.843949,26 30.8853503,26.2484076 C30.9267516,26.4968153 30.8025478,26.7038217 30.5541401,26.7452229 C29.5605096,26.9522293 28.5254777,27.1592357 27.4490446,27.3248408 C27.4076433,27.2834395 27.4076433,27.2834395 27.366242,27.2834395 Z" id="Shape"></path>
                                    <path d="M33.6592357,25.8757962 C33.4936306,25.8757962 33.3280255,25.7515924 33.2452229,25.5859873 C33.1624204,25.3789809 33.2866242,25.1305732 33.4936306,25.0477707 C36.1433121,24.1783439 39.7038217,22.7292994 39.7038217,19.9140127 C39.7038217,19.6656051 39.8694268,19.5 40.1178344,19.5 L40.1178344,19.5 C40.366242,19.5 40.5318471,19.6656051 40.5318471,19.9140127 C40.5318471,23.6401274 35.6050955,25.2133758 33.7420382,25.8343949 C33.7420382,25.8757962 33.7006369,25.8757962 33.6592357,25.8757962 Z" id="Shape"></path>
                                    <path d="M20.410828,17.9681529 C9.10828025,17.9681529 0.289808917,14.5318471 0.289808917,10.1433121 C0.289808917,9.89490446 0.455414013,9.72929936 0.703821656,9.72929936 C0.952229299,9.72929936 1.11783439,9.89490446 1.11783439,10.1433121 C1.11783439,13.9522293 9.97770701,17.1401274 20.410828,17.1401274 C20.6592357,17.1401274 20.8248408,17.3057325 20.8248408,17.5541401 C20.8248408,17.8025478 20.6592357,17.9681529 20.410828,17.9681529 Z" id="Shape"></path>
                                    <path d="M20.410828,17.9681529 C20.1624204,17.9681529 19.9968153,17.8025478 19.9968153,17.5541401 C19.9968153,17.3057325 20.1624204,17.1401274 20.410828,17.1401274 C20.9076433,17.1401274 21.4044586,17.1401274 21.9426752,17.0987261 C22.1496815,17.0987261 22.3566879,17.2643312 22.3566879,17.5127389 C22.3566879,17.7611465 22.1910828,17.9267516 21.9426752,17.9267516 C21.4458599,17.9681529 20.9490446,17.9681529 20.410828,17.9681529 Z" id="Shape"></path>
                                    <path d="M27.366242,17.5127389 C27.1592357,17.5127389 26.9936306,17.3471338 26.9522293,17.1401274 C26.910828,16.933121 27.0764331,16.6847134 27.2834395,16.6847134 C28.3598726,16.5191083 29.3535032,16.3535032 30.3471338,16.1464968 C30.5541401,16.1050955 30.8025478,16.2292994 30.843949,16.477707 C30.8853503,16.7261146 30.7611465,16.933121 30.5127389,16.9745223 C29.5191083,17.1815287 28.4840764,17.388535 27.4076433,17.5541401 C27.4076433,17.5127389 27.4076433,17.5127389 27.366242,17.5127389 Z" id="Shape"></path>
                                    <path d="M33.7420382,16.022293 C33.5764331,16.022293 33.410828,15.8980892 33.3280255,15.7324841 C33.2452229,15.5254777 33.3694268,15.2770701 33.5764331,15.1942675 C36.1847134,14.3248408 39.6624204,12.8757962 39.7038217,10.1019108 C39.7038217,9.85350318 39.8694268,9.68789809 40.1178344,9.68789809 L40.1178344,9.68789809 C40.366242,9.68789809 40.5318471,9.85350318 40.5318471,10.1019108 C40.5318471,13.4140127 36.7229299,15.0286624 33.866242,15.9808917 C33.866242,16.022293 33.7834395,16.022293 33.7420382,16.022293 Z" id="Shape"></path>
                                    <path d="M20.410828,8.48726115 C9.10828025,8.48726115 0.289808917,5.05095541 0.289808917,0.662420382 C0.289808917,0.414012739 0.455414013,0.248407643 0.703821656,0.248407643 C0.952229299,0.248407643 1.11783439,0.414012739 1.11783439,0.662420382 C1.11783439,4.47133758 9.97770701,7.65923567 20.410828,7.65923567 C20.6592357,7.65923567 20.8248408,7.82484076 20.8248408,8.07324841 C20.8248408,8.32165605 20.6592357,8.48726115 20.410828,8.48726115 Z" id="Shape"></path>
                                    <path d="M20.4522293,8.48726115 C20.2038217,8.48726115 19.9968153,8.32165605 19.9968153,8.07324841 C19.9968153,7.82484076 20.1624204,7.65923567 20.410828,7.65923567 L20.410828,7.65923567 C20.8248408,7.65923567 21.2802548,7.65923567 21.7356688,7.65923567 C21.7356688,7.65923567 21.7356688,7.65923567 21.7356688,7.65923567 C21.9426752,7.65923567 22.1496815,7.82484076 22.1496815,8.07324841 C22.1496815,8.32165605 21.9840764,8.48726115 21.7356688,8.48726115 C21.3216561,8.48726115 20.9076433,8.48726115 20.4522293,8.48726115 Z" id="Shape"></path>
                                    <path d="M27.0350318,8.07324841 C26.8280255,8.07324841 26.6624204,7.90764331 26.6210191,7.70063694 C26.5796178,7.49363057 26.7452229,7.24522293 26.9936306,7.24522293 C28.2356688,7.07961783 29.3949045,6.87261146 30.5127389,6.62420382 C30.7197452,6.58280255 30.9681529,6.70700637 31.0095541,6.95541401 C31.0509554,7.16242038 30.9267516,7.41082803 30.6783439,7.4522293 C29.5605096,7.70063694 28.3184713,7.90764331 27.0764331,8.07324841 C27.0764331,8.07324841 27.0764331,8.07324841 27.0350318,8.07324841 Z" id="Shape"></path>
                                    <path d="M33.9490446,6.5 C33.7834395,6.5 33.6178344,6.37579618 33.5764331,6.21019108 C33.4936306,6.00318471 33.6178344,5.75477707 33.8248408,5.67197452 C36.3503185,4.84394904 39.7452229,3.39490446 39.7452229,0.621019108 C39.7452229,0.372611465 39.910828,0.207006369 40.1592357,0.207006369 L40.1592357,0.207006369 C40.4076433,0.207006369 40.5732484,0.372611465 40.5732484,0.621019108 C40.5732484,3.89171975 36.888535,5.50636943 34.0732484,6.45859873 C34.0318471,6.5 33.9904459,6.5 33.9490446,6.5 Z" id="Shape"></path>
                                </g>
                                <path d="M32.4171975,60.5286624 C21.7770701,60.5286624 13.2898089,57.5063694 12.2133758,53.4076433 L12.089172,53.4076433 L12.089172,52.7866242 L12.089172,22.522293 L12.2133758,22.522293 C13.3312102,18.4235669 21.7770701,15.4012739 32.4171975,15.4012739 C43.0573248,15.4012739 51.544586,18.4235669 52.6210191,22.522293 L52.7452229,22.522293 L52.7452229,53.4076433 L52.6210191,53.4076433 C51.544586,57.5063694 43.0987261,60.5286624 32.4171975,60.5286624 Z M13.3312102,52.6210191 L13.3312102,52.7452229 C13.6624204,55.8917197 21.0732484,59.3280255 32.4171975,59.3280255 C43.8025478,59.3280255 51.1719745,55.933121 51.5031847,52.7452229 L51.5031847,52.5796178 L51.5031847,23.3089172 L51.5031847,23.1847134 C51.1719745,20.0382166 43.7611465,16.6019108 32.4171975,16.6019108 C21.0732484,16.6433121 13.6624204,20.0382166 13.3312102,23.1847134 L13.3312102,23.3503185 L13.3312102,52.6210191 Z" id="Shape" fill="#586A99"></path>
                                <g id="Group" transform="translate(2.484076, 2.898089)" fill="#586A99">
                                    <path d="M7.12101911,26.3312102 C7.03821656,26.3312102 6.95541401,26.3312102 6.91401274,26.2898089 C6.87261146,26.2898089 6.04458599,25.9585987 4.96815287,25.2133758 C4.67834395,25.0063694 4.5955414,24.633758 4.80254777,24.343949 C5.00955414,24.0541401 5.38216561,23.9713376 5.67197452,24.1783439 C6.62420382,24.7993631 7.36942675,25.089172 7.36942675,25.1305732 C7.70063694,25.2547771 7.86624204,25.6273885 7.74203822,25.9171975 C7.57643312,26.1656051 7.36942675,26.3312102 7.12101911,26.3312102 Z" id="Shape"></path>
                                    <path d="M2.35987261,22.3980892 C2.15286624,22.3980892 1.94585987,22.3152866 1.82165605,22.1082803 C0.993630573,20.8248408 0.455414013,19.4171975 0.289808917,17.9267516 C0.248407643,17.5955414 0.496815287,17.2643312 0.828025478,17.2229299 C1.15923567,17.1815287 1.49044586,17.4299363 1.53184713,17.7611465 C1.69745223,19.0859873 2.15286624,20.3280255 2.8566879,21.4044586 C3.06369427,21.6942675 2.98089172,22.066879 2.6910828,22.2738854 C2.56687898,22.3566879 2.44267516,22.3980892 2.35987261,22.3980892 Z M1.20063694,14.2834395 C1.15923567,14.2834395 1.11783439,14.2834395 1.03503185,14.2834395 C0.703821656,14.2006369 0.496815287,13.8694268 0.579617834,13.5382166 C0.74522293,12.9171975 0.952229299,12.2547771 1.20063694,11.5923567 C1.49044586,10.8471338 1.82165605,10.1433121 2.19426752,9.48089172 C2.35987261,9.1910828 2.73248408,9.06687898 3.06369427,9.27388535 C3.35350318,9.43949045 3.47770701,9.81210191 3.27070064,10.1433121 C2.93949045,10.7643312 2.60828025,11.3853503 2.35987261,12.0477707 C2.11146497,12.6687898 1.94585987,13.2898089 1.82165605,13.8694268 C1.7388535,14.0764331 1.49044586,14.2834395 1.20063694,14.2834395 Z M5.42356688,7.16242038 C5.25796178,7.16242038 5.09235669,7.07961783 4.96815287,6.95541401 C4.7611465,6.70700637 4.7611465,6.29299363 5.05095541,6.08598726 C6.12738854,5.17515924 7.36942675,4.38853503 8.77707006,3.76751592 C9.10828025,3.6433121 9.43949045,3.76751592 9.60509554,4.09872611 C9.72929936,4.42993631 9.60509554,4.7611465 9.27388535,4.92675159 C7.99044586,5.50636943 6.83121019,6.21019108 5.83757962,7.03821656 C5.7133758,7.12101911 5.5477707,7.16242038 5.42356688,7.16242038 Z M13,3.68471338 C12.7101911,3.68471338 12.4617834,3.47770701 12.3789809,3.18789809 C12.2961783,2.8566879 12.5031847,2.52547771 12.8757962,2.44267516 C14.2420382,2.15286624 15.6910828,1.98726115 17.1401274,1.9044586 C17.4713376,1.9044586 17.7611465,2.15286624 17.8025478,2.48407643 C17.8025478,2.81528662 17.5541401,3.10509554 17.2229299,3.14649682 C15.8152866,3.18789809 14.4490446,3.39490446 13.1242038,3.6433121 C13.0828025,3.68471338 13.0414013,3.68471338 13,3.68471338 Z M29.8089172,3.27070064 C29.477707,3.27070064 29.1878981,2.98089172 29.1878981,2.64968153 C29.1878981,2.31847134 29.477707,2.02866242 29.8089172,2.02866242 C31.133758,2.02866242 32.5828025,2.02866242 34.0318471,2.02866242 C34.0318471,2.02866242 34.0318471,2.02866242 34.0318471,2.02866242 C34.3630573,2.02866242 34.6528662,2.31847134 34.6528662,2.64968153 C34.6528662,2.98089172 34.3630573,3.27070064 34.0318471,3.27070064 C32.5828025,3.27070064 31.1751592,3.27070064 29.8089172,3.27070064 C29.8089172,3.27070064 29.8089172,3.27070064 29.8089172,3.27070064 Z M25.6273885,3.27070064 C25.6273885,3.27070064 25.6273885,3.27070064 25.6273885,3.27070064 C23.888535,3.27070064 22.4394904,3.22929936 21.4044586,3.22929936 C21.0732484,3.22929936 20.7834395,2.93949045 20.7834395,2.60828025 C20.7834395,2.27707006 21.0732484,1.98726115 21.4044586,1.98726115 C22.4394904,1.98726115 23.888535,2.02866242 25.6273885,2.02866242 C25.9585987,2.02866242 26.2484076,2.31847134 26.2484076,2.64968153 C26.2484076,2.98089172 25.9585987,3.27070064 25.6273885,3.27070064 Z M38.2547771,3.18789809 C37.9235669,3.18789809 37.633758,2.89808917 37.633758,2.56687898 C37.633758,2.23566879 37.8821656,1.94585987 38.2547771,1.94585987 C39.6624204,1.9044586 41.0700637,1.9044586 42.477707,1.86305732 C42.8089172,1.86305732 43.0987261,2.11146497 43.0987261,2.48407643 C43.0987261,2.81528662 42.8503185,3.10509554 42.477707,3.10509554 C41.111465,3.14649682 39.6624204,3.18789809 38.2547771,3.18789809 C38.2547771,3.18789809 38.2547771,3.18789809 38.2547771,3.18789809 Z M46.6592357,2.93949045 C46.3280255,2.93949045 46.0382166,2.6910828 46.0382166,2.35987261 C46.0382166,2.02866242 46.2866242,1.7388535 46.6178344,1.69745223 C48.1910828,1.61464968 49.5987261,1.53184713 50.7993631,1.44904459 C51.1305732,1.40764331 51.4203822,1.65605096 51.4617834,2.02866242 C51.5031847,2.35987261 51.2547771,2.64968153 50.8821656,2.6910828 C49.7229299,2.77388535 48.2738854,2.8566879 46.6592357,2.93949045 C46.7006369,2.93949045 46.7006369,2.93949045 46.6592357,2.93949045 Z" id="Shape"></path>
                                    <path d="M55.0636943,2.15286624 C54.7738854,2.15286624 54.5254777,1.94585987 54.4426752,1.65605096 C54.3598726,1.32484076 54.6082803,0.993630573 54.9394904,0.910828025 C56.0573248,0.703821656 56.3471338,0.496815287 56.4299363,0.455414013 C56.5955414,0.165605096 56.9681529,0.0828025478 57.2579618,0.207006369 C57.5477707,0.372611465 57.6719745,0.74522293 57.5477707,1.03503185 C57.2993631,1.53184713 56.6369427,1.82165605 55.2292994,2.11146497 C55.1464968,2.15286624 55.1050955,2.15286624 55.0636943,2.15286624 Z" id="Shape"></path>
                                </g>
                                <g id="Group" transform="translate(4.554140, 43.057325)" fill="#586A99">
                                    <path d="M52.455414,2.60828025 C52.3312102,2.60828025 52.2070064,2.56687898 52.1242038,2.48407643 C51.1719745,1.86305732 50.4681529,1.57324841 50.4267516,1.53184713 C50.0955414,1.40764331 49.9299363,1.03503185 50.0541401,0.74522293 C50.1783439,0.414012739 50.5509554,0.248407643 50.8407643,0.372611465 C50.8821656,0.372611465 51.7101911,0.703821656 52.7866242,1.44904459 C53.0764331,1.65605096 53.1592357,2.02866242 52.9522293,2.31847134 C52.8694268,2.52547771 52.6624204,2.60828025 52.455414,2.60828025 Z" id="Shape"></path>
                                    <path d="M6.87261146,25.2547771 C6.54140127,25.2547771 6.29299363,25.0063694 6.25159236,24.6751592 C6.21019108,24.343949 6.45859873,24.0541401 6.83121019,24.0127389 C8.03184713,23.9299363 9.48089172,23.8057325 11.0541401,23.7643312 C11.3853503,23.7643312 11.6751592,24.0127389 11.7165605,24.343949 C11.7165605,24.6751592 11.4681529,24.9649682 11.1369427,25.0063694 C9.56369427,25.089172 8.15605096,25.1719745 6.95541401,25.2547771 C6.91401274,25.2547771 6.91401274,25.2547771 6.87261146,25.2547771 Z M15.3184713,24.8407643 C14.9872611,24.8407643 14.6974522,24.5923567 14.6974522,24.2197452 C14.6974522,23.888535 14.9458599,23.5987261 15.3184713,23.5987261 C16.6847134,23.5573248 18.133758,23.5159236 19.5414013,23.5159236 C19.8726115,23.5159236 20.1624204,23.7643312 20.1624204,24.1369427 C20.1624204,24.4681529 19.9140127,24.7579618 19.5414013,24.7579618 C18.133758,24.7579618 16.7261146,24.7993631 15.3184713,24.8407643 C15.3184713,24.8407643 15.3184713,24.8407643 15.3184713,24.8407643 Z M40.5732484,24.7579618 C40.2420382,24.7579618 39.9522293,24.5095541 39.9522293,24.1783439 C39.9522293,23.8471338 40.2006369,23.5573248 40.5318471,23.5159236 C41.9394904,23.4745223 43.3057325,23.2675159 44.6305732,23.0191083 C44.9617834,22.9363057 45.2929936,23.1433121 45.3757962,23.5159236 C45.4585987,23.888535 45.2515924,24.1783439 44.8789809,24.2611465 C43.5127389,24.5095541 42.0636943,24.6751592 40.5732484,24.7579618 C40.6146497,24.7579618 40.6146497,24.7579618 40.5732484,24.7579618 Z M36.3917197,24.7165605 C36.3917197,24.7165605 36.3917197,24.7165605 36.3917197,24.7165605 C35.3566879,24.7165605 33.9076433,24.6751592 32.1687898,24.6751592 C31.8375796,24.6751592 31.5477707,24.3853503 31.5477707,24.0541401 C31.5477707,23.7229299 31.8375796,23.433121 32.1687898,23.433121 C32.1687898,23.433121 32.1687898,23.433121 32.1687898,23.433121 C33.9076433,23.433121 35.3566879,23.4745223 36.3917197,23.4745223 C36.7229299,23.4745223 37.0127389,23.7643312 37.0127389,24.0955414 C37.0127389,24.4267516 36.7229299,24.7165605 36.3917197,24.7165605 Z M23.7229299,24.6751592 C23.3917197,24.6751592 23.1019108,24.3853503 23.1019108,24.0541401 C23.1019108,23.7229299 23.3917197,23.433121 23.7229299,23.433121 C25.1719745,23.433121 26.5796178,23.433121 27.9458599,23.433121 C27.9458599,23.433121 27.9458599,23.433121 27.9458599,23.433121 C28.2770701,23.433121 28.566879,23.7229299 28.566879,24.0541401 C28.566879,24.3853503 28.2770701,24.6751592 27.9458599,24.6751592 C26.6210191,24.6751592 25.2133758,24.6751592 23.7229299,24.6751592 C23.7229299,24.6751592 23.7229299,24.6751592 23.7229299,24.6751592 Z M48.7707006,22.977707 C48.522293,22.977707 48.3152866,22.8535032 48.1910828,22.6050955 C48.066879,22.2738854 48.1910828,21.9426752 48.522293,21.7770701 C49.8057325,21.1974522 50.9649682,20.4936306 51.9585987,19.6656051 C52.2070064,19.4585987 52.6210191,19.4585987 52.8280255,19.7484076 C53.0350318,20.0382166 53.0350318,20.410828 52.7452229,20.6178344 C51.6687898,21.5286624 50.4267516,22.3152866 49.0191083,22.9363057 C48.9363057,22.9363057 48.8535032,22.977707 48.7707006,22.977707 Z M55.0636943,17.5541401 C54.9394904,17.5541401 54.8566879,17.5127389 54.7324841,17.4713376 C54.4426752,17.3057325 54.3184713,16.933121 54.5254777,16.6019108 C54.8566879,15.9808917 55.1878981,15.3598726 55.4363057,14.6974522 C55.6847134,14.0764331 55.8503185,13.455414 55.9745223,12.8757962 C56.0573248,12.544586 56.388535,12.3375796 56.7197452,12.4203822 C57.0509554,12.5031847 57.2579618,12.8343949 57.1751592,13.1656051 C57.0095541,13.7866242 56.8025478,14.4490446 56.5541401,15.111465 C56.2643312,15.8566879 55.933121,16.5605096 55.5605096,17.2229299 C55.477707,17.4713376 55.2707006,17.5541401 55.0636943,17.5541401 Z M56.8853503,9.48089172 C56.5955414,9.48089172 56.3057325,9.23248408 56.2643312,8.94267516 C56.0987261,7.61783439 55.6433121,6.37579618 54.9394904,5.29936306 C54.7324841,5.00955414 54.8152866,4.63694268 55.1050955,4.42993631 C55.3949045,4.22292994 55.7675159,4.30573248 55.9745223,4.5955414 C56.8025478,5.87898089 57.3407643,7.2866242 57.5063694,8.77707006 C57.5477707,9.10828025 57.2993631,9.43949045 56.9681529,9.48089172 C56.9267516,9.48089172 56.8853503,9.48089172 56.8853503,9.48089172 Z" id="Shape"></path>
                                    <path d="M0.828025478,26.5382166 C0.74522293,26.5382166 0.621019108,26.4968153 0.538216561,26.455414 C0.248407643,26.2898089 0.124203822,25.9171975 0.248407643,25.6273885 C0.496815287,25.1305732 1.15923567,24.8407643 2.56687898,24.5509554 C2.89808917,24.4681529 3.22929936,24.7165605 3.31210191,25.0477707 C3.39490446,25.3789809 3.14649682,25.7101911 2.81528662,25.7929936 C1.69745223,26 1.40764331,26.2070064 1.32484076,26.2484076 C1.24203822,26.4140127 1.03503185,26.5382166 0.828025478,26.5382166 Z" id="Shape"></path>
                                </g>
                                <path d="M61.8121019,6.08598726 C60.156051,6.08598726 58.8312102,4.7611465 58.8312102,3.10509554 C58.8312102,1.44904459 60.156051,0.124203822 61.8121019,0.124203822 C63.4681529,0.124203822 64.7929936,1.44904459 64.7929936,3.10509554 C64.7929936,4.7611465 63.4681529,6.08598726 61.8121019,6.08598726 Z M61.8121019,1.36624204 C60.8598726,1.36624204 60.0732484,2.15286624 60.0732484,3.10509554 C60.0732484,4.05732484 60.8598726,4.84394904 61.8121019,4.84394904 C62.7643312,4.84394904 63.5509554,4.05732484 63.5509554,3.10509554 C63.5509554,2.15286624 62.7643312,1.36624204 61.8121019,1.36624204 Z" id="Shape" fill="#586A99"></path>
                                <path d="M3.06369427,72.2452229 C1.40764331,72.2452229 0.0828025478,70.9203822 0.0828025478,69.2643312 C0.0828025478,67.6082803 1.40764331,66.2834395 3.06369427,66.2834395 C4.71974522,66.2834395 6.04458599,67.6082803 6.04458599,69.2643312 C6.04458599,70.9203822 4.71974522,72.2452229 3.06369427,72.2452229 Z M3.06369427,67.4840764 C2.11146497,67.4840764 1.32484076,68.2707006 1.32484076,69.2229299 C1.32484076,70.1751592 2.11146497,70.9617834 3.06369427,70.9617834 C4.01592357,70.9617834 4.80254777,70.1751592 4.80254777,69.2229299 C4.80254777,68.2707006 4.01592357,67.4840764 3.06369427,67.4840764 Z" id="Shape" fill="#586A99"></path>
                            </g>
                        </g>
                    </g>
                </g>
            </g>
        </g>
    </g>
</svg>