<?xml version="1.0" encoding="UTF-8"?>
<svg width="67px" height="46px" viewBox="0 0 67 46" version="1.1" xmlns="http://www.w3.org/2000/svg" xmlns:xlink="http://www.w3.org/1999/xlink">
    <!-- Generator: Sketch 47.1 (45422) - http://www.bohemiancoding.com/sketch -->
    <title>Exchange</title>
    <desc>Created with Sketch.</desc>
    <defs></defs>
    <g id="Page-1" stroke="none" stroke-width="1" fill="none" fill-rule="evenodd">
        <g id="Artboard-Copy-3" transform="translate(-655.000000, -2678.000000)" fill-rule="nonzero">
            <g id="Section-2" transform="translate(0.000000, 1323.000000)">
                <g id="Section-2-List">
                    <g id="Lower" transform="translate(0.000000, 1267.000000)">
                        <g id="Colored-Icons" transform="translate(248.000000, 79.000000)">
                            <g id="Exchange" transform="translate(407.000000, 9.000000)">
                                <circle id="Oval" fill="#F1F7F8" cx="42.5" cy="23.5" r="21.5"></circle>
                                <circle id="Oval" fill="#F8C281" cx="21.5" cy="23.5" r="21.5"></circle>
                                <path d="M46,23 L44.6666667,23 C44.6666667,21.0819672 44.4444444,19.2131148 44,17.3934426 L45.2888889,17 C45.7333333,18.9672131 46,20.9836066 46,23 Z" id="Shape" fill="#586A99"></path>
                                <path d="M23.0022727,45 C10.8795455,45 1,34.8969631 1,22.5 C1,10.1030369 10.8795455,0 23.0022727,0 C31.5931818,0 39.4204545,5.12472885 43,13.1290672 L41.7113636,13.7635575 C38.3704545,6.29609544 31.0204545,1.51301518 23.0022727,1.51301518 C11.6909091,1.46420824 2.43181818,10.8839479 2.43181818,22.5 C2.43181818,34.1160521 11.6431818,43.5357918 23.0022727,43.5357918 C25.7704545,43.5357918 28.4909091,42.9989154 31.0204545,41.8763557 L31.5931818,43.2429501 C28.8727273,44.4143167 26.0090909,45 23.0022727,45 Z" id="Shape" fill="#586A99"></path>
                                <path d="M23.4615385,28 C23.1538462,26.3870968 23,24.6666667 23,23 L24.5384615,23 C24.5384615,24.5591398 24.6923077,26.172043 25,27.6774194 L23.4615385,28 Z" id="Shape" fill="#586A99"></path>
                                <path d="M44.8761161,46 C35.5178571,46 27.1194196,39.9479393 24,30.967462 L25.34375,30.4793926 C28.2712054,38.8741866 36.09375,44.5357918 44.8761161,44.5357918 C56.2979911,44.5357918 65.5602679,35.1160521 65.5602679,23.5 C65.5602679,11.8839479 56.2979911,2.46420824 44.8761161,2.46420824 C42.4285714,2.46420824 40.0290179,2.90347072 37.7254464,3.73318872 L37.2455357,2.36659436 C39.6930804,1.43926247 42.2845982,1 44.8761161,1 C57.0658482,1 67,11.1030369 67,23.5 C67,35.8969631 57.0658482,46 44.8761161,46 Z" id="Shape" fill="#586A99"></path>
                                <g id="Group" transform="translate(18.000000, 18.000000)">
                                    <polygon id="Shape" fill="#FFFFFF" points="2.58088235 4.25367647 8.02941176 4.25367647 5.01838235 1.24264706 1.95955882 4.25367647"></polygon>
                                    <path d="M9.79779412,4.97058824 L0.238970588,4.97058824 L5.01838235,0.191176471 L9.79779412,4.97058824 Z M3.68014706,3.53676471 L6.30882353,3.53676471 L4.97058824,2.19852941 L3.68014706,3.53676471 Z" id="Shape" fill="#586A99"></path>
                                </g>
                                <g id="Group" transform="translate(40.000000, 21.000000)">
                                    <polygon id="Shape" fill="#FFFFFF" points="7.36029412 1.05529412 1.91176471 1.05529412 4.97058824 3.94588235 8.02941176 1.05529412"></polygon>
                                    <path d="M4.97058824,4.95529412 L0.191176471,0.367058824 L9.75,0.367058824 L4.97058824,4.95529412 Z M3.68014706,1.74352941 L5.01838235,3.02823529 L6.35661765,1.74352941 L3.68014706,1.74352941 Z" id="Shape" fill="#586A99"></path>
                                </g>
                            </g>
                        </g>
                    </g>
                </g>
            </g>
        </g>
    </g>
</svg>