<?xml version="1.0" encoding="UTF-8"?>
<svg width="120px" height="32px" viewBox="0 0 120 32" version="1.1" xmlns="http://www.w3.org/2000/svg" xmlns:xlink="http://www.w3.org/1999/xlink">
    <!-- Generator: Sketch 47.1 (45422) - http://www.bohemiancoding.com/sketch -->
    <title>forbes</title>
    <desc>Created with Sketch.</desc>
    <defs></defs>
    <g id="Page-1" stroke="none" stroke-width="1" fill="none" fill-rule="evenodd" opacity="0.664402174">
        <g id="Artboard-Copy-3" transform="translate(-1000.000000, -765.000000)" fill-rule="nonzero" fill="#FFFFFF">
            <g id="Featured-Logos" transform="translate(0.000000, 721.000000)">
                <g id="forbes" transform="translate(1000.000000, 44.000000)">
                    <path d="M68.1209503,0.0259179266 L67.775378,0.0950323974 C67.5853132,0.138228942 65.6414687,0.501079914 63.4557235,0.90712743 C61.2699784,1.31317495 59.3952484,1.6587473 59.2915767,1.68466523 C59.1360691,1.71922246 59.1015119,1.77969762 59.1187905,2.05615551 C59.1360691,2.34989201 59.161987,2.38444924 59.4816415,2.45356371 C60.5788337,2.69546436 60.7775378,2.78185745 61.1835853,3.19654428 C61.6760259,3.71490281 61.9092873,4.37149028 62.0561555,5.74514039 C62.1684665,6.84233261 62.1943844,25.6933045 62.0820734,28.475162 L62.0215983,30.12527 L62.9114471,30.3153348 C66.2807775,31.0410367 69.6414687,31.2915767 71.74946,30.9719222 C74.3758099,30.5831533 76.2937365,29.6760259 77.9265659,28.0777538 C80.2591793,25.7710583 81.3822894,22.5053996 81.2958963,18.488121 C81.2095032,16.4233261 80.8639309,15.0669546 80,13.3909287 C78.825054,11.1187905 76.8466523,9.52915767 74.5831533,9.06263499 C72.8984881,8.70842333 70.712743,8.98488121 69.062635,9.76241901 C68.6479482,9.9524838 68.25054,10.1079914 68.1814255,10.1079914 C68.0691145,10.1079914 68.0604752,9.46868251 68.0863931,5.0712743 L68.1209503,0.0259179266 L68.1209503,0.0259179266 Z M0.0777537797,0.60475162 L0.103671706,1.14902808 L0.129589633,1.68466523 L0.90712743,1.77969762 C1.94470842,1.90928726 2.32397408,2.02159827 2.73866091,2.32397408 C3.37796976,2.78185745 3.76673866,3.45572354 4.00863931,4.51835853 C4.3887689,6.16846652 4.52699784,9.89200864 4.46652268,16.8466523 C4.39740821,24.1987041 4.30237581,25.7278618 3.83585313,27.2138229 C3.44708423,28.4319654 2.7300216,29.0799136 1.54730022,29.2786177 C1.22073434,29.3304536 0.758531317,29.4168467 0.520086393,29.4686825 L0.0863930886,29.5637149 L0.0863930886,30.4967603 L15.5507559,30.4967603 L15.5507559,30.0215983 C15.5507559,29.762419 15.524838,29.5464363 15.4989201,29.5464363 C15.0842333,29.5464363 13.1663067,29.1317495 12.8552916,28.9762419 C11.7580994,28.4233261 11.2570194,27.1101512 11.0583153,24.3196544 C10.9200864,22.3326134 10.7818575,16.4838013 10.8682505,16.3974082 C10.9546436,16.3110151 14.600432,16.4578834 15.0323974,16.5615551 C16.2073434,16.8466523 17.1231102,18.0043197 17.5723542,19.8099352 L17.7796976,20.6047516 L18.3066955,20.6306695 L18.8336933,20.6565875 L18.8336933,10.6263499 L18.2721382,10.6263499 C17.7451404,10.6263499 17.7105832,10.6436285 17.7105832,10.825054 C17.7105832,11.1533477 17.3822894,12.1900648 17.0712743,12.838013 C16.587473,13.8660907 15.9049676,14.4794816 15.0323974,14.6781857 C14.8164147,14.7300216 13.8056156,14.8077754 12.7861771,14.8596112 C11.3520518,14.9200864 10.9200864,14.9200864 10.8596112,14.8336933 C10.7645788,14.6868251 10.9892009,3.30885529 11.1015119,2.78185745 L11.1447084,2.58315335 L14.3239741,2.60907127 L17.4946004,2.6349892 L18.2289417,2.90280778 C19.9395248,3.5161987 21.174946,4.76025918 22.2030238,6.9287257 C22.4276458,7.42116631 22.7300216,8.12958963 22.8596112,8.50971922 C22.9892009,8.88984881 23.1015119,9.21814255 23.1101512,9.22678186 C23.1274298,9.24406048 23.412527,9.174946 23.7408207,9.0712743 L24.3542117,8.8812095 L24.3110151,6.06479482 C24.2850972,4.50971922 24.25054,2.64362851 24.2159827,1.92656587 L24.1727862,0.60475162 L0.0777537797,0.60475162 L0.0777537797,0.60475162 Z M58.0043197,8.57019438 C57.9092873,8.57019438 57.8142549,8.57019438 57.7105832,8.57883369 C55.5680346,8.69978402 53.6587473,10.12527 52.2937365,12.6306695 C52.0604752,13.0539957 51.8272138,13.3909287 51.7667387,13.3909287 C51.6803456,13.3909287 51.6717063,12.9157667 51.7149028,11.0151188 L51.775378,8.63066955 L51.5680346,8.6825054 C51.4557235,8.70842333 49.7278618,9.05399568 47.7321814,9.4600432 C43.4470842,10.3153348 42.8509719,10.4449244 42.7559395,10.5053996 C42.712743,10.5313175 42.6781857,10.6868251 42.6781857,10.8509719 C42.6781857,11.1706263 42.6349892,11.1533477 43.6112311,11.3088553 C44.950324,11.524838 45.4168467,12.1814255 45.6155508,14.0820734 C45.8833693,16.5701944 45.7796976,26.2548596 45.4773218,27.5766739 C45.3218143,28.25054 44.924406,28.9071274 44.5269978,29.1317495 C44.3714903,29.2181425 43.9049676,29.3563715 43.4902808,29.4427646 L42.7213823,29.5896328 L42.6954644,30.0475162 L42.6695464,30.4967603 L55.3779698,30.4967603 L55.3779698,29.5637149 L54.7041037,29.5032397 C53.1663067,29.3736501 52.7429806,29.2181425 52.336933,28.6393089 C51.74946,27.7926566 51.6198704,26.2289417 51.6198704,19.9049676 L51.6198704,14.9632829 L51.8358531,14.7300216 C52.1036717,14.4449244 52.950324,14.0475162 53.5464363,13.9179266 C54.7559395,13.6673866 56.3110151,13.8833693 57.5205184,14.4794816 C57.8660907,14.6522678 58.1684665,14.7732181 58.1857451,14.7559395 C58.2203024,14.7213823 60.2159827,9.4600432 60.2764579,9.23542117 C60.3023758,9.14038877 60.1900648,9.04535637 59.8531317,8.91576674 C59.2224622,8.66522678 58.6695464,8.55291577 58.0043197,8.57019438 L58.0043197,8.57019438 Z M32.1814255,8.63930886 C29.0799136,8.63930886 26.5831533,9.60691145 24.6565875,11.5334773 C22.600432,13.6069114 21.511879,16.5010799 21.511879,19.887689 C21.511879,23.412527 22.4967603,26.2548596 24.4060475,28.2419006 C25.4514039,29.3390929 26.4794816,29.9956803 27.9481641,30.5226782 C28.4665227,30.7041037 28.8466523,30.7904968 30.237581,31.049676 C30.3585313,31.075594 31.1533477,31.075594 32.0086393,31.0583153 C33.1663067,31.0323974 33.7537797,30.9805616 34.2980562,30.8596112 C35.8272138,30.4967603 37.0539957,29.9524838 38.1425486,29.1403888 C40.8034557,27.1533477 42.2548596,24.112311 42.3930886,20.2591793 C42.5226782,16.4665227 41.3822894,13.2354212 39.161987,11.1447084 C37.3736501,9.45140389 35.1101512,8.63930886 32.1814255,8.63930886 Z M93.7365011,8.63930886 C90.7991361,8.63930886 88.3801296,9.61555076 86.4794816,11.5680346 C84.924406,13.1231102 84.0604752,14.8682505 83.5421166,17.3218143 C83.3693305,18.0647948 83.3693305,18.4449244 83.3693305,20 C83.3693305,21.5464363 83.3693305,21.9438445 83.5421166,22.6522678 C84.4924406,27.187905 87.5161987,30.1684665 91.8358531,30.937365 C92.8725702,31.1274298 94.5140389,31.1447084 95.5507559,30.9719222 C97.537797,30.6436285 99.524838,29.6846652 100.907127,28.3455724 C101.684665,27.6112311 101.943844,27.2570194 101.857451,27.0669546 C101.598272,26.574514 101.598272,26.574514 100.820734,27.0237581 C99.6976242,27.7408207 99.0928726,27.9395248 97.7105832,28.0863931 C96.1555076,28.25054 94.600432,27.9827214 93.3045356,27.2742981 C92.3542117,26.8077754 91.2311015,25.7365011 90.712743,24.7688985 C90.0215983,23.4470842 89.5896328,21.9092873 89.5032397,19.9308855 C89.4168467,19.0928726 89.4168467,18.8855292 89.5032397,18.825054 C89.5896328,18.7818575 92.4406048,18.7473002 95.9827214,18.7473002 L102.289417,18.7473002 L102.289417,18.4967603 C102.289417,17.9265659 102.116631,16.4060475 101.943844,15.6025918 C101.2527,12.3801296 99.524838,10.0907127 96.9330454,9.1663067 C95.9827214,8.79481641 95.0323974,8.63930886 93.7365011,8.63930886 L93.7365011,8.63930886 Z M112.656587,8.69114471 C110.75594,8.69114471 110.583153,8.70842333 109.805616,8.91576674 C107.473002,9.54643629 105.74514,10.8423326 104.88121,12.6479482 C104.449244,13.6155508 104.276458,14.349892 104.276458,15.5075594 C104.276458,17.1490281 104.708423,18.3671706 105.74514,19.4298056 C106.522678,20.336933 107.645788,20.9848812 109.546436,21.6846652 C111.015119,22.237581 112.570194,22.9978402 113.174946,23.4816415 C113.520518,23.7667387 113.779698,24.0950324 113.952484,24.4578834 C114.211663,24.9848812 114.298056,25.0539957 114.298056,25.87473 C114.298056,26.6695464 114.211663,26.7904968 113.952484,27.3174946 C113.347732,28.7084233 112.051836,29.3909287 110.323974,29.2526998 C107.991361,29.062635 106.349892,27.5161987 104.967603,24.25054 C104.62203,23.4038877 104.62203,23.3866091 104.103672,23.5853132 L103.844492,23.6803456 L103.930886,26.7213823 C103.930886,29.425486 103.930886,29.7796976 104.103672,29.87473 C104.449244,30.1684665 106.954644,30.7559395 108.682505,30.9632829 C110.064795,31.1274298 112.051836,31.1274298 113.088553,30.9805616 C116.803456,30.4190065 119.136069,28.4492441 119.740821,25.4427646 C120.086393,23.9913607 119.913607,22.3758099 119.395248,21.2958963 C118.704104,19.7840173 117.408207,18.8768898 114.384449,17.5809935 C112.138229,16.6306695 110.75594,15.8185745 110.237581,15.0842333 C109.719222,14.488121 109.632829,14.0215983 109.632829,13.2181425 C109.632829,12.0086393 110.064795,11.0842333 110.928726,10.5053996 C111.706263,10.0215983 112.570194,9.90064795 113.693305,10.1511879 C114.989201,10.462203 115.939525,11.2483801 116.803456,12.7170626 C117.062635,13.1835853 117.667387,14.4967603 117.926566,15.3088553 C118.012959,15.4298056 118.012959,15.4384449 118.358531,15.3520518 C118.531317,15.2915767 118.704104,15.2224622 118.790497,15.187905 L118.790497,12.4406048 L118.704104,9.74514039 L118.358531,9.61555076 C117.840173,9.39092873 116.457883,9.01079914 115.593952,8.84665227 C114.902808,8.71706263 114.298056,8.69114471 112.656587,8.69114471 Z M31.6717063,10.1079914 C32.5010799,10.1079914 32.9589633,10.3153348 33.6069114,10.9632829 C35.1533477,12.5269978 35.887689,15.4989201 35.8790497,20.1727862 C35.8704104,23.9049676 35.4989201,26.2548596 34.6695464,27.8444924 C34.2634989,28.6133909 33.511879,29.3218143 32.8984881,29.5032397 C30.5313175,30.2030238 28.8466523,27.9568035 28.1900648,23.2397408 C27.9740821,21.7192225 27.9827214,17.5723542 28.1900648,15.8272138 C28.6565875,12.0345572 29.8228942,10.1166307 31.6717063,10.1079914 Z M93.3045356,10.1166307 C94.7732181,10.1079914 95.7235421,12.1727862 95.8963283,15.9308855 L95.8963283,17.0021598 L94.4276458,17.0539957 C93.5637149,17.0799136 92.1814255,17.1144708 91.3174946,17.1317495 L89.6760259,17.1576674 L89.6760259,16.812095 C89.6760259,16.6133909 89.762419,16.112311 89.8488121,15.6803456 C90.3671706,12.1987041 91.663067,10.1166307 93.3045356,10.1166307 L93.3045356,10.1166307 Z M70.1943844,11.2742981 C70.9287257,11.2742981 71.0237581,11.300216 71.637149,11.6025918 C73.1231102,12.336933 74.1425486,14.1598272 74.6177106,16.9330454 C74.7904968,17.9611231 74.8164147,20.7602592 74.6522678,21.987041 C74.2634989,25.0021598 73.2786177,27.4384449 71.9654428,28.6220302 C71.4470842,29.0885529 70.9546436,29.3390929 70.3326134,29.4600432 C69.87473,29.5464363 69.7365011,29.5464363 68.9157667,29.4859611 C68.5615551,29.4600432 68.4838013,29.4168467 68.4146868,29.2354212 C68.3023758,28.9416847 68.1727862,18.8164147 68.224622,14.7732181 L68.2678186,11.6112311 L68.8466523,11.4470842 C69.2267819,11.3347732 69.6760259,11.2742981 70.1943844,11.2742981 L70.1943844,11.2742981 Z" id="Shape"></path>
                </g>
            </g>
        </g>
    </g>
</svg>