<?xml version="1.0" encoding="UTF-8"?>
<svg width="110px" height="40px" viewBox="0 0 110 40" version="1.1" xmlns="http://www.w3.org/2000/svg" xmlns:xlink="http://www.w3.org/1999/xlink">
    <!-- Generator: Sketch 47.1 (45422) - http://www.bohemiancoding.com/sketch -->
    <title>OmniSpec</title>
    <desc>Created with Sketch.</desc>
    <defs></defs>
    <g id="Page-1" stroke="none" stroke-width="1" fill="none" fill-rule="evenodd">
        <g id="Artboard-Copy-3" transform="translate(-54.000000, -20.000000)" fill-rule="nonzero">
            <g id="Menu" transform="translate(54.000000, 20.000000)">
                <g id="OmniSpec">
                    <path d="M40.0096302,19.93361 C39.9745876,30.8902802 31.1087958,39.5341351 20.3974243,39.5341351 C9.55756295,39.5341351 0.715132979,30.7150669 0.785218289,19.8051203 C0.855303599,8.96525901 9.69773357,0.3097232 20.420786,0.321404085 C31.0503914,0.33308497 39.9862684,8.93021635 40.0096302,19.93361 Z M34.7999555,19.93361 C34.7765937,11.8621185 28.2352981,5.54275969 20.4324669,5.51939792 C12.5245077,5.49603615 5.99489301,11.9322038 5.99489301,19.9102483 C5.98321213,27.9116545 12.4894651,34.2543751 20.2455727,34.3361413 C28.0484039,34.4179075 34.7649128,28.1219105 34.7999555,19.93361 Z" id="Shape" fill="#1C347A"></path>
                    <path d="M82.0935026,29.9255043 C82.0935026,29.8203763 82.0935026,29.7386101 82.0935026,29.6568439 C82.0935026,26.8183889 82.0935026,23.9682529 82.0935026,21.1297979 C82.0935026,20.6275198 82.0584599,20.1252418 81.9416511,19.6346446 C81.8715658,19.3659842 81.7897996,19.1090048 81.6729907,18.8637062 C81.3926495,18.2796619 80.9137332,17.9876398 80.2712845,17.9409163 C79.9559006,17.9175545 79.6405167,17.9409163 79.3368137,18.0343633 C78.7410886,18.1978957 78.3088958,18.5600032 78.0168737,19.0973239 C77.7715751,19.5645593 77.6314045,20.0785182 77.5379574,20.5924772 C77.4211486,21.2466067 77.3977868,21.9124172 77.3977868,22.5665467 C77.3977868,24.9260855 77.3977868,27.2856243 77.3977868,29.6451631 C77.3977868,29.7269293 77.3977868,29.8203763 77.3977868,29.9021425 C77.2342544,29.9488661 73.6131801,29.960547 73.309477,29.9138234 C73.309477,29.8320572 73.309477,29.750291 73.309477,29.6685248 C73.309477,26.8300698 73.309477,23.9799338 73.309477,21.1414788 C73.309477,20.5807963 73.2744344,20.0201138 73.110902,19.4711122 C73.0524976,19.2608563 72.9707314,19.0506003 72.8772843,18.8520253 C72.5852622,18.267981 72.1063459,17.9759589 71.4755781,17.9409163 C71.2302795,17.9292354 70.9616191,17.9409163 70.7163206,17.9876398 C70.0738719,18.1044486 69.5949556,18.4665561 69.2795717,19.0389195 C69.0576349,19.4360695 68.9174643,19.8565814 68.8240172,20.300455 C68.637123,21.1765214 68.6137613,22.0759496 68.6137613,22.9753777 C68.6137613,25.2064267 68.6137613,27.4257949 68.6137613,29.6568439 C68.6137613,29.7386101 68.6137613,29.8320572 68.6137613,29.9255043 C67.2470977,29.9255043 65.9037959,29.9255043 64.5371324,29.9255043 C64.5371324,24.9494473 64.5371324,19.9617094 64.5371324,14.9856523 C64.677303,14.9506097 67.3872683,14.9389288 67.6442478,14.9739715 C67.8194611,15.5930584 68.0063552,16.2238262 68.1815685,16.8429131 C68.4035053,16.8896366 68.4035053,16.8896366 68.4852715,16.749466 C69.1043584,15.733229 70.0037866,15.1141421 71.1485133,14.8454817 C72.3399636,14.5534596 73.519733,14.6235449 74.6878215,15.0090141 C75.5872496,15.3127171 76.264741,15.8850805 76.7319764,16.7144233 C76.8137425,16.8662748 76.9539132,16.9246793 77.1174456,16.8662748 C77.1524882,16.854594 77.1875309,16.8078704 77.2108926,16.7728278 C77.9935119,15.4996113 79.1732813,14.8922053 80.6217111,14.716992 C81.4160112,14.6235449 82.1986305,14.6585876 82.969569,14.8571626 C84.4647222,15.2309509 85.4342357,16.1537408 85.8781093,17.6372132 C86.0416417,18.1978957 86.1350888,18.7702591 86.1701315,19.3543033 C86.1934932,19.7748152 86.2051741,20.1953271 86.2051741,20.6158389 C86.2051741,23.6295073 86.2051741,26.6431756 86.2051741,29.6568439 C86.2051741,29.7386101 86.2051741,29.8320572 86.2051741,29.9255043 C84.8268297,29.9255043 83.471847,29.9255043 82.0935026,29.9255043 Z" id="Shape" fill="#131313"></path>
                    <path d="M44.6145299,19.9803616 C44.6262108,18.4618465 44.7780623,17.0134168 45.2102551,15.6000297 C45.5606816,14.4436221 46.0980023,13.3806616 46.9039834,12.4695525 C47.9669439,11.2781022 49.2868839,10.5305256 50.8404416,10.1684182 C51.9501257,9.89975781 53.0714907,9.84135339 54.2045365,9.9114387 C55.0338794,9.95816224 55.8515413,10.086652 56.6458415,10.3436314 C58.8068052,11.0561654 60.3136394,12.4812334 61.2247484,14.5487501 C61.6335794,15.4832209 61.878878,16.4644152 62.0307295,17.4806522 C62.2059428,18.613698 62.2409854,19.7584248 62.182581,20.9031515 C62.1008148,22.4333474 61.8555162,23.9285007 61.2364293,25.3418878 C60.150107,27.8415972 58.2578036,29.3484314 55.582881,29.8623903 C53.9125144,30.1894551 52.2421478,30.1660933 50.5951431,29.7222197 C48.2472852,29.0914519 46.6002804,27.6196604 45.619086,25.4002922 C45.2219359,24.5008641 44.9766374,23.5430315 44.8247859,22.5735181 C44.6729344,21.6974517 44.6262108,20.8097044 44.6145299,19.9803616 Z M57.8956962,19.9686807 C57.8956962,19.7701057 57.8956962,19.5715306 57.8956962,19.3729556 C57.8840153,18.5669745 57.7905682,17.7726743 57.6036741,16.990055 C57.4401417,16.3008828 57.1948431,15.6467532 56.8093739,15.0510281 C56.2720532,14.245047 55.5478383,13.6960454 54.6016866,13.4741086 C54.0059615,13.333938 53.3985555,13.3105762 52.7911494,13.3806616 C51.8566786,13.4974704 51.0506976,13.8829396 50.4082489,14.5837927 C50.1279077,14.8874957 49.9059708,15.2379223 49.7190767,15.6117106 C49.3452884,16.3592872 49.1583942,17.1535874 49.0415854,17.9712494 C48.9130956,18.8122731 48.9014147,19.6649777 48.9247765,20.5060014 C48.9481383,21.3003016 49.0299045,22.0829209 49.2051177,22.8538593 C49.380331,23.6247977 49.6606723,24.3606935 50.1279077,25.014823 C50.6885901,25.7740806 51.4244859,26.2880395 52.3472758,26.4866146 C52.9313201,26.6151043 53.5153643,26.6267852 54.0994086,26.5566999 C55.3609442,26.4048484 56.3070958,25.7740806 56.9495445,24.6760774 C57.2415666,24.1854802 57.4401417,23.6481595 57.5803123,23.0991579 C57.8256109,22.07124 57.9073771,21.0199604 57.8956962,19.9686807 Z" id="Shape" fill="#131313"></path>
                    <path d="M102.248367,29.9637088 C100.881703,29.9637088 99.5267207,29.9637088 98.1600571,29.9637088 C98.1600571,29.8702617 98.1600571,29.7884955 98.1600571,29.6950484 C98.1600571,26.8332316 98.1600571,23.9714148 98.1600571,21.1095979 C98.1600571,20.5489155 98.1133336,19.988233 97.9498012,19.4392314 C97.9030776,19.2873799 97.8563541,19.1472093 97.7862688,19.0070386 C97.4942467,18.3529091 96.9919686,18.0258443 96.2911155,17.9674399 C95.9640507,17.9440781 95.636986,17.9674399 95.3216021,18.0492061 C94.714196,18.2010576 94.2820033,18.5748459 93.9783003,19.1121666 C93.7213208,19.5677211 93.5811502,20.0583183 93.499384,20.5722772 C93.3708943,21.2964921 93.3358516,22.0323879 93.3358516,22.7682836 C93.3358516,25.069418 93.3358516,27.3822332 93.3358516,29.6833675 C93.3358516,29.7651337 93.3358516,29.8468999 93.3358516,29.9169852 C93.1723192,29.9637088 89.7147772,29.9870706 89.2825845,29.940347 C89.235861,29.8001764 89.2241801,15.2457937 89.2709036,14.9771333 C90.2988215,14.9771333 91.3267394,14.9771333 92.3663381,14.9771333 C92.5415514,15.5962202 92.7284456,16.226988 92.9036589,16.8460749 C93.1139148,16.9044793 93.1255957,16.9044793 93.2073619,16.7643087 C93.7914061,15.8064761 94.6441107,15.210751 95.7070713,14.907048 C96.8751598,14.5683023 98.0549292,14.5916641 99.2230177,14.9420906 C100.484553,15.3275598 101.313896,16.1919453 101.792812,17.4067574 C102.014749,17.9674399 102.143239,18.5514841 102.189962,19.1588901 C102.225005,19.5560402 102.236686,19.9415094 102.236686,20.3386595 C102.236686,23.4457749 102.236686,26.5528904 102.236686,29.6600058 C102.248367,29.7884955 102.248367,29.8702617 102.248367,29.9637088 Z" id="Shape" fill="#131313"></path>
                    <path d="M105.179241,14.665666 C106.534224,14.665666 107.877526,14.665666 109.232509,14.665666 C109.232509,19.653404 109.232509,24.629461 109.232509,29.6288798 C107.877526,29.6288798 106.534224,29.6288798 105.179241,29.6288798 C105.179241,24.6411419 105.179241,19.6650848 105.179241,14.665666 Z" id="Shape" fill="#131313"></path>
                    <path d="M31.8640644,1.93856224 C34.036709,1.91520047 36.2093536,1.91520047 38.3819982,1.91520047 C38.3819982,4.11120686 38.3819982,6.28385147 38.3819982,8.45649609 C36.6649081,5.82829696 34.4922635,3.66733323 31.8640644,1.93856224 Z" id="Shape" fill="#1C347A"></path>
                    <path d="M38.3819982,31.4006521 C38.3819982,33.6200203 38.3819982,35.7926649 38.3819982,37.9769904 C36.2093536,37.9769904 34.036709,37.9769904 31.8640644,37.9769904 C34.4922635,36.2365385 36.6649081,34.0638939 38.3819982,31.4006521 Z" id="Shape" fill="#1C347A"></path>
                    <path d="M8.93158922,1.94494465 C6.26834743,3.66203475 4.1073837,5.82299848 2.37861272,8.43951673 C2.37861272,6.278553 2.37861272,4.11758927 2.37861272,1.95662554 C2.51878334,1.909902 8.4760347,1.89822111 8.93158922,1.94494465 Z" id="Shape" fill="#1C347A"></path>
                    <path d="M8.90292897,37.9419477 C6.74196524,37.9419477 4.58100151,37.9419477 2.42003778,37.9419477 C2.37331424,37.7900962 2.36163336,31.6693125 2.4083569,31.4006521 C4.11376611,34.0405321 6.28641073,36.2131767 8.90292897,37.9419477 Z" id="Shape" fill="#1C347A"></path>
                    <path d="M107.39861,13.1230831 C107.071545,13.0997214 106.74448,13.0646787 106.429096,12.9712316 C105.728243,12.7492948 105.331093,12.2703785 105.214284,11.5461637 C105.167561,11.2424606 105.167561,10.9387576 105.214284,10.6233737 C105.307731,9.92252064 105.774967,9.38519993 106.464139,9.20998665 C107.083226,9.04645426 107.702313,9.04645426 108.33308,9.20998665 C109.033933,9.38519993 109.501169,9.93420152 109.606297,10.6467355 C109.65302,10.9854812 109.65302,11.312546 109.582935,11.6396107 C109.419403,12.3755065 108.963848,12.831061 108.227952,13.0062743 C107.947611,13.0646787 107.678951,13.0880405 107.39861,13.1230831 Z" id="Shape" fill="#131313"></path>
                </g>
            </g>
        </g>
    </g>
</svg>