<?xml version="1.0" encoding="UTF-8"?>
<svg width="188px" height="69px" viewBox="0 0 188 69" version="1.1" xmlns="http://www.w3.org/2000/svg" xmlns:xlink="http://www.w3.org/1999/xlink">
    <!-- Generator: Sketch 47.1 (45422) - http://www.bohemiancoding.com/sketch -->
    <title>OmniSpec</title>
    <desc>Created with Sketch.</desc>
    <defs></defs>
    <g id="Page-1" stroke="none" stroke-width="1" fill="none" fill-rule="evenodd">
        <g id="Artboard-Copy-3" transform="translate(-378.000000, -4429.000000)" fill-rule="nonzero">
            <g id="Section-4" transform="translate(0.000000, 4201.000000)">
                <g id="Protocol" transform="translate(301.000000, 181.000000)">
                    <g id="OmniSpec" transform="translate(77.000000, 47.000000)">
                        <path d="M67.9455723,34.3500838 C67.8851859,53.2308856 52.607437,68.1261875 34.1493398,68.1261875 C15.469826,68.1261875 0.232334621,52.9289538 0.35310734,34.1286672 C0.473880059,15.4491534 15.7113714,0.533722586 34.1895974,0.553851372 C52.5067931,0.573980159 67.9053147,15.388767 67.9455723,34.3500838 Z M58.9681335,34.3500838 C58.927876,20.4410924 47.6557555,9.55141892 34.2097262,9.51116135 C20.5825377,9.47090378 9.3305461,20.5618651 9.3305461,34.3098263 C9.31041732,48.098045 20.5221514,59.0279761 33.8876656,59.1688776 C47.333695,59.3097791 58.9077472,48.4603632 58.9681335,34.3500838 Z" id="Shape" fill="#1C347A"></path>
                        <path d="M140.465529,51.5683601 C140.465529,51.3872011 140.465529,51.2462996 140.465529,51.1053981 C140.465529,46.2141029 140.465529,41.302679 140.465529,36.4113839 C140.465529,35.5458461 140.405143,34.6803083 140.203855,33.8348993 C140.083082,33.3719372 139.942181,32.9291039 139.740893,32.5063994 C139.257802,31.49996 138.432522,30.9967404 137.325439,30.9162252 C136.781961,30.8759677 136.238484,30.9162252 135.715136,31.0772555 C134.688568,31.3590585 133.943803,31.9830509 133.440583,32.9089751 C133.017878,33.7141265 132.776333,34.5997931 132.615303,35.4854598 C132.414015,36.6126718 132.373757,37.7600126 132.373757,38.8872247 C132.373757,42.9532395 132.373757,47.0192544 132.373757,51.0852693 C132.373757,51.2261708 132.373757,51.3872011 132.373757,51.5281026 C132.091954,51.6086177 125.85203,51.6287465 125.328682,51.5482314 C125.328682,51.4073298 125.328682,51.2664283 125.328682,51.1255268 C125.328682,46.2342317 125.328682,41.3228078 125.328682,36.4315127 C125.328682,35.465331 125.268296,34.4991492 124.986493,33.5530963 C124.885849,33.1907781 124.744947,32.8284599 124.583917,32.4862706 C124.080697,31.4798312 123.255417,30.9766116 122.168462,30.9162252 C121.745758,30.8960964 121.282796,30.9162252 120.860091,30.9967404 C119.753008,31.1980282 118.927728,31.8220206 118.384251,32.8083312 C118.001804,33.4927099 117.760258,34.2173462 117.599228,34.9822401 C117.277167,36.4918991 117.23691,38.0418156 117.23691,39.5917322 C117.23691,43.4363304 117.23691,47.2607998 117.23691,51.1053981 C117.23691,51.2462996 117.23691,51.4073298 117.23691,51.5683601 C114.881842,51.5683601 112.567031,51.5683601 110.211963,51.5683601 C110.211963,42.9934971 110.211963,34.3985053 110.211963,25.8236423 C110.453509,25.7632559 115.123387,25.7431271 115.56622,25.8035135 C115.868152,26.8703391 116.190213,27.9572936 116.492145,29.0241193 C116.874592,29.1046344 116.874592,29.1046344 117.015493,28.863089 C118.082319,27.1118846 119.632235,26.0450589 121.604856,25.5820968 C123.657993,25.0788772 125.691,25.1996499 127.703879,25.8638998 C129.253795,26.3872483 130.421265,27.3735588 131.226416,28.8027026 C131.367318,29.0643769 131.608863,29.1650208 131.890666,29.0643769 C131.951053,29.0442481 132.011439,28.9637329 132.051697,28.9033466 C133.400325,26.7093089 135.433333,25.662612 137.929302,25.3606802 C139.29806,25.1996499 140.646688,25.2600362 141.975188,25.6022256 C144.551673,26.2463468 146.222362,27.8365209 146.987256,30.3928768 C147.269059,31.3590585 147.430089,32.3453691 147.490476,33.3518084 C147.530733,34.0764447 147.550862,34.801081 147.550862,35.5257173 C147.550862,40.7189442 147.550862,45.9121711 147.550862,51.1053981 C147.550862,51.2462996 147.550862,51.4073298 147.550862,51.5683601 C145.175665,51.5683601 142.840726,51.5683601 140.465529,51.5683601 Z" id="Shape" fill="#131313"></path>
                        <path d="M75.880848,34.4306473 C75.9009768,31.813905 76.162651,29.3179355 76.9074161,26.8823523 C77.5112797,24.8896025 78.4372039,23.0578829 79.8260901,21.4878376 C81.6578097,19.4347013 83.9323626,18.146459 86.6094912,17.5224666 C88.5217259,17.0595045 90.4540894,16.9588606 92.4065817,17.0796333 C93.8357255,17.1601485 95.2447406,17.3815651 96.613498,17.8243984 C100.337324,19.0522544 102.933937,21.5079663 104.503982,25.0707615 C105.20849,26.6810645 105.631194,28.3718825 105.892869,30.123087 C106.1948,32.0755792 106.255187,34.0482003 106.154543,36.0208214 C106.013641,38.6576924 105.590937,41.2341771 104.524111,43.6697602 C102.652134,47.9773205 99.3912706,50.573934 94.7817785,51.4596006 C91.903362,52.0232066 89.0249455,51.9829491 86.1867867,51.2180552 C82.1409006,50.1311007 79.3027417,47.5948736 77.6119236,43.7704042 C76.9275449,42.2204876 76.5048404,40.5699271 76.2431661,38.8992379 C75.9814919,37.3895789 75.9009768,35.8597911 75.880848,34.4306473 Z M98.7672782,34.4105185 C98.7672782,34.0683291 98.7672782,33.7261397 98.7672782,33.3839504 C98.7471494,31.9950641 98.5861191,30.6263066 98.2640585,29.2776779 C97.9822555,28.0900795 97.559551,26.9628675 96.8953011,25.9362994 C95.9693769,24.5474131 94.7213921,23.6013601 93.0909604,23.2189132 C92.0643923,22.9773678 91.0176954,22.9371102 89.9709985,23.0578829 C88.3606956,23.2591708 86.9718093,23.9234207 85.8647261,25.1311479 C85.3816352,25.6544964 84.9991883,26.2583599 84.6771277,26.9024811 C84.0330065,28.1907235 83.7109459,29.5594809 83.5096581,30.968496 C83.2882414,32.4177686 83.2681126,33.88717 83.3083702,35.3364426 C83.3486278,36.7052001 83.4895293,38.0538288 83.7914611,39.3823287 C84.0933929,40.7108286 84.5764837,41.9789422 85.3816352,43.1061542 C86.3478169,44.4145253 87.6159305,45.3001919 89.2061046,45.6423813 C90.2125439,45.863798 91.2189833,45.8839268 92.2254226,45.763154 C94.3993315,45.5014798 96.0297632,44.4145253 97.1368465,42.5224194 C97.6400662,41.6770104 97.9822555,40.7510862 98.223801,39.8050332 C98.6465055,38.0337 98.787407,36.2221093 98.7672782,34.4105185 Z" id="Shape" fill="#131313"></path>
                        <path d="M175.196884,51.634195 C172.841816,51.634195 170.506877,51.634195 168.151809,51.634195 C168.151809,51.4731648 168.151809,51.3322633 168.151809,51.171233 C168.151809,46.2396803 168.151809,41.3081276 168.151809,36.3765749 C168.151809,35.4103932 168.071294,34.4442114 167.78949,33.4981584 C167.708975,33.2364842 167.62846,32.9949388 167.507687,32.7533933 C167.004468,31.6261813 166.13893,31.0625753 164.931203,30.9619313 C164.367597,30.9216738 163.803991,30.9619313 163.260514,31.1028329 C162.213817,31.3645071 161.469052,32.0086282 160.945703,32.9345524 C160.50287,33.7195751 160.261324,34.5649841 160.120423,35.4506507 C159.899006,36.6986355 159.83862,37.966749 159.83862,39.2348626 C159.83862,43.2002335 159.83862,47.1857332 159.83862,51.1511042 C159.83862,51.2920057 159.83862,51.4329072 159.83862,51.5536799 C159.556817,51.634195 153.598696,51.6744526 152.853931,51.5939375 C152.773416,51.352392 152.753287,26.2719241 152.833802,25.808962 C154.605135,25.808962 156.376469,25.808962 158.167931,25.808962 C158.469862,26.8757877 158.791923,27.9627422 159.093855,29.0295678 C159.456173,29.1302118 159.476302,29.1302118 159.617203,28.8886663 C160.623643,27.2381059 162.093044,26.2115377 163.924763,25.6881893 C165.937642,25.1044545 167.97065,25.1447121 169.983528,25.7485757 C172.157437,26.4128256 173.586581,27.9023558 174.411861,29.9957496 C174.794308,30.9619313 175.015725,31.9683707 175.09624,33.0150676 C175.156626,33.6994463 175.176755,34.3636963 175.176755,35.048075 C175.176755,40.4023322 175.176755,45.7565894 175.176755,51.1108466 C175.196884,51.3322633 175.196884,51.4731648 175.196884,51.634195 Z" id="Shape" fill="#131313"></path>
                        <path d="M180.247438,25.272234 C182.582378,25.272234 184.897188,25.272234 187.232127,25.272234 C187.232127,33.8672259 187.232127,42.4420889 187.232127,51.0572095 C184.897188,51.0572095 182.582378,51.0572095 180.247438,51.0572095 C180.247438,42.4622177 180.247438,33.8873546 180.247438,25.272234 Z" id="Shape" fill="#131313"></path>
                        <path d="M53.9089342,3.34057782 C57.6528885,3.30032025 61.3968428,3.30032025 65.140797,3.30032025 C65.140797,7.0845321 65.140797,10.8284864 65.140797,14.5724407 C62.1818654,10.0434637 58.4379111,6.31963822 53.9089342,3.34057782 Z" id="Shape" fill="#1C347A"></path>
                        <path d="M65.140797,54.1103709 C65.140797,57.9348403 65.140797,61.6787946 65.140797,65.4428777 C61.3968428,65.4428777 57.6528885,65.4428777 53.9089342,65.4428777 C58.4379111,62.4436885 62.1818654,58.6997342 65.140797,54.1103709 Z" id="Shape" fill="#1C347A"></path>
                        <path d="M14.3911328,3.35157614 C9.80176944,6.31050776 6.07794395,10.0343333 3.09888355,14.5431814 C3.09888355,10.8193559 3.09888355,7.09553043 3.09888355,3.37170493 C3.34042899,3.29118979 13.6061101,3.271061 14.3911328,3.35157614 Z" id="Shape" fill="#1C347A"></path>
                        <path d="M14.3417447,65.3824913 C10.6179192,65.3824913 6.89409373,65.3824913 3.17026823,65.3824913 C3.08975309,65.1208171 3.0696243,54.573333 3.15013945,54.1103709 C6.08894227,58.6594766 9.83289655,62.4034309 14.3417447,65.3824913 Z" id="Shape" fill="#1C347A"></path>
                        <path d="M184.071908,22.6140175 C183.508302,22.5737599 182.944696,22.5133735 182.401219,22.3523433 C181.193491,21.9698963 180.509113,21.1446161 180.307825,19.8966313 C180.22731,19.3732829 180.22731,18.8499344 180.307825,18.3064572 C180.468855,17.09873 181.274007,16.1728058 182.461605,15.870874 C183.528431,15.589071 184.595256,15.589071 185.682211,15.870874 C186.889938,16.1728058 187.695089,17.1188588 187.876249,18.3467147 C187.956764,18.9304496 187.956764,19.4940556 187.835991,20.0576616 C187.554188,21.3257751 186.769165,22.1107978 185.501052,22.4127296 C185.017961,22.5133735 184.554999,22.5536311 184.071908,22.6140175 Z" id="Shape" fill="#131313"></path>
                    </g>
                </g>
            </g>
        </g>
    </g>
</svg>