<?xml version="1.0" encoding="UTF-8"?>
<svg width="28px" height="23px" viewBox="0 0 28 23" version="1.1" xmlns="http://www.w3.org/2000/svg" xmlns:xlink="http://www.w3.org/1999/xlink">
    <!-- Generator: Sketch 47.1 (45422) - http://www.bohemiancoding.com/sketch -->
    <title>Reddit</title>
    <desc>Created with Sketch.</desc>
    <defs></defs>
    <g id="Page-1" stroke="none" stroke-width="1" fill="none" fill-rule="evenodd">
        <g id="Artboard-Copy-3" transform="translate(-920.000000, -6252.000000)" fill-rule="nonzero">
            <g id="Dev-Social-Icons" transform="translate(732.000000, 6252.000000)">
                <g id="Reddit" transform="translate(188.000000, 0.000000)">
                    <g id="Group">
                        <path d="M18.100963,18.3437778 C17.0644444,19.3644667 15.3953333,19.5612444 13.9937778,19.5612444 C12.5937778,19.5612444 10.9231111,19.3644667 9.88814815,18.3437778 L18.100963,18.3437778 Z M21.2701481,2.18551111 L16.0217037,0.968044444 L13.9839259,7.09933333 L16.0222222,0.968044444 L21.2701481,2.18551111 Z M25.4805185,2.60411111 C25.4805185,3.73008889 24.554963,4.64344444 23.4116296,4.64344444 C22.2693333,4.64344444 21.3427407,3.7306 21.3427407,2.60411111 C21.3427407,1.47813333 22.2688148,0.564266667 23.4116296,0.564266667 C24.5539259,0.564266667 25.4805185,1.47762222 25.4805185,2.60411111 Z M25.8232593,14.8227333 C25.8232593,19.0455333 20.5017037,22.4694667 13.9377778,22.4694667 C7.37333333,22.4694667 2.0522963,19.0460444 2.0522963,14.8227333 C2.0522963,10.5999333 7.37333333,7.176 13.9377778,7.176 C20.5017037,7.176 25.8232593,10.5994222 25.8232593,14.8227333 Z M2.20681481,13.6344 C1.2822963,13.2342 0.637259259,12.3239111 0.637259259,11.2648889 C0.637259259,9.83633333 1.8117037,8.67815556 3.26096296,8.67815556 C4.06674074,8.67815556 4.78851852,9.03644444 5.27022222,9.6002 L2.20681481,13.6344 Z M22.6758519,9.65284444 C23.157037,9.05944444 23.896963,8.67815556 24.7276296,8.67815556 C26.1768889,8.67815556 27.3518519,9.83633333 27.3518519,11.2648889 L27.3518519,11.2648889 C27.3518519,12.3632667 26.657037,13.3021778 25.677037,13.6773333 L22.6758519,9.65284444 Z" id="Shape" fill="#1C347A" opacity="0.217334692"></path>
                        <path d="M13.9372593,22.9810889 C7.09748148,22.9810889 1.53325926,19.3215333 1.53325926,14.8232444 C1.53325926,14.5124889 1.5597037,14.2048 1.61155556,13.9027333 C0.692740741,13.3440889 0.118740741,12.3494667 0.118740741,11.2648889 C0.118740741,9.55675556 1.52859259,8.16704444 3.26096296,8.16704444 C4.03511111,8.16704444 4.77296296,8.44611111 5.34385185,8.94495556 C7.49518519,7.58386667 10.389037,6.72724444 13.5815556,6.66795556 L15.6774074,0.362888889 L16.1347407,0.4692 C16.1383704,0.469711111 16.142,0.470733333 16.1456296,0.471755556 L21.0305926,1.6054 C21.4262222,0.694088889 22.344,0.0536666667 23.4116296,0.0536666667 C24.8385926,0.0536666667 25.999037,1.19804444 25.999037,2.60462222 C25.999037,4.01068889 24.8385926,5.15506667 23.4116296,5.15506667 C21.9857037,5.15506667 20.8257778,4.01273333 20.8242222,2.60768889 L16.367037,1.5732 L14.6699259,6.6792 C17.7462963,6.79726667 20.5245185,7.65644444 22.5985926,8.98788889 C23.1757037,8.46195556 23.9296296,8.16755556 24.7286667,8.16755556 C26.4615556,8.16755556 27.8714074,9.55726667 27.8714074,11.2654 C27.8714074,12.4036444 27.256963,13.4207556 26.2743704,13.9640667 C26.3194815,14.2467111 26.3428148,14.5329333 26.3428148,14.8232444 C26.3417778,19.3215333 20.777037,22.9810889 13.9372593,22.9810889 Z M2.674,13.8562222 C2.60555556,14.1726 2.5702963,14.4951111 2.5702963,14.8232444 C2.5702963,18.7582889 7.66940741,21.9588667 13.9372593,21.9588667 C20.2051111,21.9588667 25.3042222,18.7577778 25.3042222,14.8232444 C25.3042222,14.5104444 25.2720741,14.2022444 25.2093333,13.8996667 C25.2031111,13.8874 25.1979259,13.8751333 25.1927407,13.8623556 C25.1688889,13.8015333 25.158,13.7386667 25.158,13.6773333 C24.8111111,12.3346444 23.8648148,11.1156444 22.498,10.1332889 C22.4461481,10.1148889 22.3974074,10.0878 22.3522963,10.0525333 C22.3232593,10.0300444 22.2983704,10.005 22.2755556,9.97791111 C20.1978519,8.5698 17.2293333,7.68711111 13.9372593,7.68711111 C10.6783704,7.68711111 7.73525926,8.55242222 5.66066667,9.93651111 C5.64355556,9.95593333 5.62437037,9.97433333 5.60362963,9.99171111 C5.55748148,10.0300444 5.50614815,10.0591778 5.45274074,10.0791111 C4.05637037,11.0619778 3.0857037,12.2891556 2.72533333,13.6436 C2.7242963,13.7090222 2.7102963,13.7759778 2.68177778,13.8398667 C2.67918519,13.8454889 2.67711111,13.8511111 2.674,13.8562222 Z M23.465037,9.60428889 C24.6674815,10.5524 25.55,11.6814444 26.0011111,12.9203778 C26.5196296,12.5355111 26.8333333,11.9308667 26.8333333,11.2648889 C26.8333333,10.1205111 25.8891111,9.18926667 24.7276296,9.18926667 C24.2656296,9.18926667 23.8254074,9.33697778 23.465037,9.60428889 Z M3.26096296,9.18926667 C2.1,9.18926667 1.15577778,10.1205111 1.15577778,11.2648889 C1.15577778,11.8848667 1.43577778,12.4608889 1.90037037,12.8493333 C2.36651852,11.6201111 3.25785185,10.5002667 4.46496296,9.56135556 C4.11496296,9.32164444 3.69651852,9.18926667 3.26096296,9.18926667 Z M23.4111111,1.07537778 C22.5565926,1.07537778 21.8607407,1.76128889 21.8607407,2.60411111 C21.8607407,3.44693333 22.5565926,4.13233333 23.4111111,4.13233333 C24.2656296,4.13233333 24.9614815,3.44693333 24.9614815,2.60411111 C24.9614815,1.76128889 24.2661481,1.07537778 23.4111111,1.07537778 Z M13.9937778,20.0718444 C11.9171111,20.0718444 10.4538519,19.6246222 9.52103704,18.7046222 C9.31881481,18.5047778 9.31881481,18.1817556 9.52103704,17.9819111 C9.72325926,17.7820667 10.052,17.7820667 10.2547407,17.9819111 C10.9832593,18.7000222 12.2059259,19.0496222 13.9937778,19.0496222 C15.7811111,19.0496222 17.0048148,18.7000222 17.7343704,17.9819111 C17.9365926,17.7820667 18.2648148,17.7820667 18.4675556,17.9819111 C18.6697778,18.1817556 18.6697778,18.5052889 18.467037,18.7046222 C17.5331852,19.6246222 16.0704444,20.0718444 13.9937778,20.0718444 Z" id="Shape" fill="#FFFFFF" opacity="0.245131341"></path>
                    </g>
                    <path d="M18.1984444,11.4233333 C17.1417037,11.4233333 16.2545185,12.2958 16.2545185,13.3374444 C16.2545185,14.3785778 17.1417037,15.2224222 18.1984444,15.2224222 C19.2551852,15.2224222 20.1107407,14.3785778 20.1107407,13.3374444 C20.1107407,12.2958 19.2546667,11.4233333 18.1984444,11.4233333 Z M9.82022222,11.4233333 C8.76451852,11.4233333 7.87837037,12.2968222 7.87837037,13.3374444 C7.87837037,14.3780667 8.764,15.2224222 9.82022222,15.2224222 C10.8764444,15.2224222 11.7325185,14.3780667 11.7325185,13.3374444 C11.7325185,12.2968222 10.8759259,11.4233333 9.82022222,11.4233333 Z" id="eyes" fill="#FFFFFF" opacity="0.245131341"></path>
                </g>
            </g>
        </g>
    </g>
</svg>