<?xml version="1.0" encoding="UTF-8"?>
<svg width="65px" height="63px" viewBox="0 0 65 63" version="1.1" xmlns="http://www.w3.org/2000/svg" xmlns:xlink="http://www.w3.org/1999/xlink">
    <!-- Generator: Sketch 47.1 (45422) - http://www.bohemiancoding.com/sketch -->
    <title>SecureWallet</title>
    <desc>Created with Sketch.</desc>
    <defs></defs>
    <g id="Page-1" stroke="none" stroke-width="1" fill="none" fill-rule="evenodd">
        <g id="Artboard-Copy-3" transform="translate(-248.000000, -2674.000000)" fill-rule="nonzero">
            <g id="Section-2" transform="translate(0.000000, 1323.000000)">
                <g id="Section-2-List">
                    <g id="Lower" transform="translate(0.000000, 1267.000000)">
                        <g id="Colored-Icons" transform="translate(248.000000, 79.000000)">
                            <g id="SecureWallet" transform="translate(0.000000, 5.000000)">
                                <circle id="Oval" fill="#CAE4FF" cx="30.2379431" cy="32.7263524" r="30.0871304"></circle>
                                <path d="M32.9902746,62.2102321 C15.8353318,62.2102321 1.88515855,48.2600588 1.88515855,31.105116 C1.88515855,13.9501733 15.8353318,0 32.9902746,0 C50.1452174,0 64.0953906,13.9501733 64.0953906,31.105116 C64.0953906,48.2600588 50.1452174,62.2102321 32.9902746,62.2102321 Z M32.9902746,1.13109513 C16.4762857,1.13109513 3.01625368,14.5911272 3.01625368,31.105116 C3.01625368,47.6191049 16.4762857,61.079137 32.9902746,61.079137 C49.5042635,61.079137 62.9642955,47.6191049 62.9642955,31.105116 C62.9642955,14.5911272 49.5042635,1.13109513 32.9902746,1.13109513 Z" id="Shape" fill="#586A99"></path>
                                <path d="M52.7844393,30.9166002 L52.0303759,30.9166002 C52.0303759,14.5911272 45.9601654,1.31961098 38.4572344,1.31961098 L38.4572344,0.565547564 C46.3749003,0.565547564 52.7844393,14.1763923 52.7844393,30.9166002 Z" id="Shape" fill="#7A90CC"></path>
                                <path d="M38.4572344,61.2676528 L38.4572344,60.5135894 C45.9601654,60.5135894 52.0303759,47.2420732 52.0303759,30.9166002 L52.7844393,30.9166002 C52.7844393,47.6568081 46.3749003,61.2676528 38.4572344,61.2676528 Z" id="Shape" fill="#7A90CC"></path>
                                <path d="M27.5233148,31.2936319 L26.7692514,31.2936319 C26.7692514,14.2895018 31.8968826,0.942579274 38.4572344,0.942579274 L38.4572344,1.69664269 C32.424727,1.69664269 27.5233148,14.9681589 27.5233148,31.2936319 Z" id="Shape" fill="#7A90CC"></path>
                                <path d="M38.4572344,61.6446845 C31.8968826,61.6446845 26.7692514,48.297762 26.7692514,31.2936319 L27.5233148,31.2936319 C27.5233148,47.6191049 32.424727,60.8906211 38.4572344,60.8906211 L38.4572344,61.6446845 Z" id="Shape" fill="#7A90CC"></path>
                                <path d="M24.7709833,54.1040503 C24.3939516,54.1040503 23.9792167,54.1040503 23.602185,54.0663472 C16.099254,53.7647218 9.65201177,50.6353586 5.42925662,45.206102 L6.03250735,44.7536639 C10.1044498,49.9944047 16.3631762,53.0483615 23.6398882,53.3122837 C30.9543034,53.6139091 38.4195312,51.0877967 44.6782576,46.2240876 L45.1306956,46.8273383 C39.0604851,51.5402347 31.8591795,54.1040503 24.7709833,54.1040503 Z" id="Shape" fill="#7A90CC"></path>
                                <path d="M45.1306956,46.8273383 L44.6782576,46.2240876 C57.5727421,36.1950441 61.1922465,19.2663204 52.7844393,8.40780712 L53.3876901,7.95536907 C62.0217162,19.1532108 58.3268055,36.5720758 45.1306956,46.8273383 Z" id="Shape" fill="#7A90CC"></path>
                                <circle id="Oval" fill="#9FC5F8" cx="51.8418601" cy="39.3998137" r="2.0736744"></circle>
                                <circle id="Oval" fill="#9FC5F8" cx="30.5395685" cy="53.1614711" r="1.88515855"></circle>
                                <path d="M36.6851853,44.4897417 L18.0975221,44.4897417 C16.6648016,44.4897417 15.4583001,43.3209434 15.4583001,41.8505198 L15.4583001,28.5413004 C15.4583001,27.1085799 16.6648016,25.9020785 18.0975221,25.9020785 L36.6851853,25.9020785 C38.1179058,25.9020785 39.3244073,27.1085799 39.3244073,28.5413004 L39.3244073,41.8505198 C39.3244073,43.3209434 38.155609,44.4897417 36.6851853,44.4897417 Z" id="Shape" fill="#F6F8FF"></path>
                                <path d="M25.2611245,25.9020785 L25.5250467,20.058087 C25.5250467,20.058087 25.5250467,17.418865 28.6921131,16.8910206 C31.8968826,16.3631762 27.1462831,15.8353318 27.1462831,15.8353318 C27.1462831,15.8353318 22.8858248,17.9467094 23.4136692,21.1514789 C23.9415136,24.3185453 23.4136692,25.6758594 23.4136692,25.6758594 L25.2611245,25.9020785 Z" id="Shape" fill="#D9DEFF"></path>
                                <path d="M25.7889689,44.338929 L23.9415136,44.338929 C23.7152945,44.338929 23.5644819,44.1881164 23.5644819,43.9618973 C23.5644819,43.7356783 23.7152945,43.5848656 23.9415136,43.5848656 L25.7889689,43.5848656 C26.015188,43.5848656 26.1660006,43.7356783 26.1660006,43.9618973 C26.1660006,44.1881164 26.015188,44.338929 25.7889689,44.338929 Z" id="Shape" fill="#586A99"></path>
                                <path d="M37.2130297,44.338929 L28.0511592,44.338929 C27.8249402,44.338929 27.6741275,44.1881164 27.6741275,43.9618973 C27.6741275,43.7356783 27.8249402,43.5848656 28.0511592,43.5848656 L37.2130297,43.5848656 C39.0604851,43.5848656 40.568612,42.0767388 40.568612,40.2292834 L40.568612,29.106848 C40.568612,27.2593926 39.0604851,25.7512658 37.2130297,25.7512658 L21.3022916,25.7512658 C19.4548362,25.7512658 17.9467094,27.2593926 17.9467094,29.106848 L17.9467094,40.2669866 C17.9467094,42.114442 19.4548362,43.6225688 21.3022916,43.6225688 L21.9809487,43.6225688 C22.2071677,43.6225688 22.3579804,43.7733815 22.3579804,43.9996005 C22.3579804,44.2258195 22.2071677,44.3766322 21.9809487,44.3766322 L21.3022916,44.3766322 C19.0401013,44.3766322 17.192646,42.5291768 17.192646,40.2669866 L17.192646,29.106848 C17.192646,26.8446577 19.0401013,24.9972023 21.3022916,24.9972023 L37.2130297,24.9972023 C39.47522,24.9972023 41.3226754,26.8446577 41.3226754,29.106848 L41.3226754,40.2669866 C41.3226754,42.4914737 39.47522,44.338929 37.2130297,44.338929 Z" id="Shape" fill="#586A99"></path>
                                <path d="M34.9508395,25.5250467 L34.1967761,25.5250467 L34.1967761,21.6793233 C34.1967761,18.964695 31.972289,16.7402079 29.2576607,16.7402079 C26.5430324,16.7402079 24.3185453,18.964695 24.3185453,21.6793233 L24.3185453,25.4119372 L23.5644819,25.4119372 L23.5644819,21.6793233 C23.5644819,18.5499601 26.1282975,15.9861445 29.2576607,15.9861445 C32.3870239,15.9861445 34.9508395,18.5499601 34.9508395,21.6793233 L34.9508395,25.5250467 Z" id="Shape" fill="#586A99"></path>
                                <path d="M29.2576607,35.8557156 C28.1642687,35.8557156 27.2970958,34.9885427 27.2970958,33.8951507 C27.2970958,32.8017587 28.1642687,31.9345858 29.2576607,31.9345858 C30.3510526,31.9345858 31.2182256,32.8017587 31.2182256,33.8951507 C31.2182256,34.9508395 30.3510526,35.8557156 29.2576607,35.8557156 Z M29.2576607,32.6509461 C28.5790036,32.6509461 28.0511592,33.1787904 28.0511592,33.8574475 C28.0511592,34.5361046 28.5790036,35.063949 29.2576607,35.063949 C29.9363177,35.063949 30.4641621,34.5361046 30.4641621,33.8574475 C30.4641621,33.2164936 29.9363177,32.6509461 29.2576607,32.6509461 Z" id="Shape" fill="#586A99"></path>
                                <path d="M29.2576607,39.5506263 C29.0314416,39.5506263 28.880629,39.3998137 28.880629,39.1735946 L28.880629,36.0065283 C28.880629,35.7803092 29.0314416,35.6294966 29.2576607,35.6294966 C29.4838797,35.6294966 29.6346924,35.7803092 29.6346924,36.0065283 L29.6346924,39.1735946 C29.6346924,39.3998137 29.4461765,39.5506263 29.2576607,39.5506263 Z" id="Shape" fill="#586A99"></path>
                            </g>
                        </g>
                    </g>
                </g>
            </g>
        </g>
    </g>
</svg>