<?xml version="1.0" encoding="UTF-8"?>
<svg width="397px" height="303px" viewBox="0 0 397 303" version="1.1" xmlns="http://www.w3.org/2000/svg" xmlns:xlink="http://www.w3.org/1999/xlink">
    <!-- Generator: Sketch 47.1 (45422) - http://www.bohemiancoding.com/sketch -->
    <title>SendTokens</title>
    <desc>Created with Sketch.</desc>
    <defs></defs>
    <g id="Page-1" stroke="none" stroke-width="1" fill="none" fill-rule="evenodd">
        <g id="Artboard-Copy-3" transform="translate(-354.000000, -2181.000000)">
            <g id="Section-2" transform="translate(0.000000, 1323.000000)">
                <g id="Section-2-List">
                    <g id="Upper" transform="translate(318.000000, 0.000000)">
                        <g id="SendTokens" transform="translate(36.000000, 822.000000)">
                            <g id="Layer_2" transform="translate(0.000000, 36.000000)">
                                <path d="M50.7868829,185.160444 L204.771368,44.525878" id="Shape"></path>
                                <path d="M40.0919605,60.5439926 L202.979549,258.194085" id="Shape" stroke-opacity="0.339249321" stroke="#EA9F6C"></path>
                                <path d="M48.9950635,184.264325 L202.083639,42.7336414" id="Shape" stroke-opacity="0.339249321" stroke="#EA9F6C"></path>
                                <path d="M351.64457,141.530684 L53.4746121,189.641035" id="Shape" stroke-opacity="0.339249321" stroke="#EA9F6C"></path>
                                <path d="M44.5715092,52.5349353 L343.637377,236.799261" id="Shape" stroke-opacity="0.339249321" stroke="#EA9F6C"></path>
                                <path d="M227.001128,44.525878 L355.172214,232.374677" id="Shape" stroke-opacity="0.339249321" stroke="#EA9F6C"></path>
                                <path d="M233.272496,266.203142 L360.547673,152.228096" id="Shape" stroke-opacity="0.339249321" stroke="#EA9F6C"></path>
                                <path d="M351.64457,119.295749 L237.696051,36.5168207" id="Shape" stroke-opacity="0.339249321" stroke="#EA9F6C"></path>
                                <path d="M237.696051,278.636784 L341.845557,261.722551" id="Shape" stroke-opacity="0.339249321" stroke="#EA9F6C"></path>
                                <path d="M22.2857546,64.1284658 L31.1888575,174.519039" id="Shape" stroke-opacity="0.339249321" stroke="#EA9F6C"></path>
                                <ellipse id="Oval" fill="#9EB6C6" fill-rule="nonzero" opacity="0.51" cx="166.975176" cy="171.326617" rx="9.40705219" ry="9.40924214"></ellipse>
                                <ellipse id="Oval" fill="#86A1B7" fill-rule="nonzero" opacity="0.78" cx="176.606206" cy="169.75841" rx="10.0789845" ry="10.0813309"></ellipse>
                                <ellipse id="Oval" fill="#6A89A8" fill-rule="nonzero" cx="185.173343" cy="168.246211" rx="10.6949224" ry="10.6974122"></ellipse>
                                <ellipse id="Oval" fill="#C9C88C" fill-rule="nonzero" opacity="0.51" transform="translate(278.259797, 119.251167) rotate(-24.814756) translate(-278.259797, -119.251167) " cx="278.259797" cy="119.251167" rx="9.4073691" ry="9.40955914"></ellipse>
                                <ellipse id="Oval" fill="#BFBF82" fill-rule="nonzero" opacity="0.78" transform="translate(272.816267, 111.178883) rotate(-24.814756) translate(-272.816267, -111.178883) " cx="272.816267" cy="111.178883" rx="10.079324" ry="10.0816705"></ellipse>
                                <ellipse id="Oval" fill="#A8A76A" fill-rule="nonzero" transform="translate(267.843749, 104.015240) rotate(-24.814756) translate(-267.843749, -104.015240) " cx="267.843749" cy="104.01524" rx="10.6952827" ry="10.6977726"></ellipse>
                                <ellipse id="Oval" fill="#6CA3C8" fill-rule="nonzero" opacity="0.51" transform="translate(259.658350, 274.898210) rotate(-1.497356) translate(-259.658350, -274.898210) " cx="259.65835" cy="274.89821" rx="9.40744241" ry="9.40963246"></ellipse>
                                <ellipse id="Oval" fill="#6CA3C8" fill-rule="nonzero" opacity="0.78" transform="translate(269.177259, 273.050441) rotate(-1.497356) translate(-269.177259, -273.050441) " cx="269.177259" cy="273.050441" rx="10.0794026" ry="10.0817491"></ellipse>
                                <ellipse id="Oval" fill="#6CA3C8" fill-rule="nonzero" transform="translate(277.744173, 271.314218) rotate(-1.497356) translate(-277.744173, -271.314218) " cx="277.744173" cy="271.314218" rx="10.6953661" ry="10.697856"></ellipse>
                                <ellipse id="Oval" fill="#F4BA85" fill-rule="nonzero" opacity="0.51" transform="translate(27.815377, 137.907364) rotate(-84.249500) translate(-27.815377, -137.907364) " cx="27.8153766" cy="137.907364" rx="9.4073581" ry="9.40954813"></ellipse>
                                <ellipse id="Oval" fill="#C59A71" fill-rule="nonzero" opacity="0.78" transform="translate(28.415255, 147.596509) rotate(-84.249500) translate(-28.415255, -147.596509) " cx="28.4152554" cy="147.596509" rx="10.0793122" ry="10.0816587"></ellipse>
                                <ellipse id="Oval" fill="#B1845A" fill-rule="nonzero" transform="translate(29.053882, 156.320400) rotate(-84.249500) translate(-29.053882, -156.320400) " cx="29.0538823" cy="156.3204" rx="10.6952702" ry="10.6977601"></ellipse>
                                <g id="Group" transform="translate(348.844852, 108.654344)" fill-rule="nonzero">
                                    <ellipse id="Oval" fill="#B4C2D6" cx="24.077574" cy="23.6911275" rx="23.6856135" ry="23.6911275"></ellipse>
                                    <g transform="translate(12.878702, 6.160813)" fill="#EDEFF2">
                                        <ellipse id="Oval" cx="11.1988717" cy="6.60887246" rx="6.21537377" ry="6.2168207"></ellipse>
                                        <path d="M17.4702398,13.4417745 L5.48744711,13.4417745 C2.57574048,13.4417745 0.167983075,15.8500924 0.167983075,18.7624769 L0.167983075,34.8926063 C0.167983075,37.8049908 2.57574048,40.2133087 5.48744711,40.2133087 L17.4702398,40.2133087 C20.3819464,40.2133087 22.7897038,37.8049908 22.7897038,34.8926063 L22.7897038,18.7624769 C22.7897038,15.8500924 20.3819464,13.4417745 17.4702398,13.4417745 Z" id="Shape"></path>
                                    </g>
                                </g>
                                <g id="Group" transform="translate(340.445698, 229.070240)" fill-rule="nonzero">
                                    <ellipse id="Oval" fill="#B4C2D6" cx="23.8535966" cy="24.0271719" rx="23.6856135" ry="23.6911275"></ellipse>
                                    <g transform="translate(12.318759, 6.720887)" fill="#EDEFF2">
                                        <ellipse id="Oval" cx="11.5348378" cy="6.38484288" rx="6.21537377" ry="6.2168207"></ellipse>
                                        <path d="M17.8062059,13.2737523 L5.82341326,13.2737523 C2.91170663,13.2737523 0.503949224,15.6820702 0.503949224,18.5944547 L0.503949224,34.7245841 C0.503949224,37.6369686 2.91170663,40.0452865 5.82341326,40.0452865 L17.8062059,40.0452865 C20.7179126,40.0452865 23.12567,37.6369686 23.12567,34.7245841 L23.12567,18.5944547 C23.12567,15.6260628 20.7179126,13.2737523 17.8062059,13.2737523 Z" id="Shape"></path>
                                    </g>
                                </g>
                                <g id="Group" transform="translate(0.000000, 20.722736)" fill-rule="nonzero">
                                    <ellipse id="Oval" fill="#B4C2D6" cx="23.6856135" cy="23.7471349" rx="23.6856135" ry="23.6911275"></ellipse>
                                    <g transform="translate(12.318759, 6.160813)" fill="#EDEFF2">
                                        <ellipse id="Oval" cx="11.3668547" cy="6.66487985" rx="6.21537377" ry="6.2168207"></ellipse>
                                        <path d="M17.6382228,13.5537893 L5.71142454,13.5537893 C2.79971791,13.5537893 0.391960508,15.9621072 0.391960508,18.8744917 L0.391960508,35.0046211 C0.391960508,37.9170055 2.79971791,40.3253235 5.71142454,40.3253235 L17.6942172,40.3253235 C20.6059238,40.3253235 23.0136812,37.9170055 23.0136812,35.0046211 L23.0136812,18.8744917 C22.9576869,15.9060998 20.6059238,13.5537893 17.6382228,13.5537893 Z" id="Shape"></path>
                                    </g>
                                </g>
                                <g id="Group" transform="translate(189.820874, 254.833641)" fill-rule="nonzero">
                                    <ellipse id="Oval" fill="#B4C2D6" cx="24.077574" cy="24.0831793" rx="23.6856135" ry="23.6911275"></ellipse>
                                    <g transform="translate(12.878702, 6.720887)" fill="#EDEFF2">
                                        <ellipse id="Oval" cx="11.1988717" cy="6.44085028" rx="6.21537377" ry="6.2168207"></ellipse>
                                        <path d="M17.4702398,13.2737523 L5.48744711,13.2737523 C2.57574048,13.2737523 0.167983075,15.6820702 0.167983075,18.5944547 L0.167983075,34.7245841 C0.167983075,37.6369686 2.57574048,40.0452865 5.48744711,40.0452865 L17.4702398,40.0452865 C20.3819464,40.0452865 22.7897038,37.6369686 22.7897038,34.7245841 L22.7897038,18.5944547 C22.7897038,15.6820702 20.3819464,13.2737523 17.4702398,13.2737523 Z" id="Shape"></path>
                                    </g>
                                </g>
                                <g id="Group" transform="translate(193.740480, 0.000000)" fill-rule="nonzero">
                                    <ellipse id="Oval" fill="#B4C2D6" cx="24.0215797" cy="23.6911275" rx="23.6856135" ry="23.6911275"></ellipse>
                                    <g transform="translate(12.878702, 6.160813)" fill="#EDEFF2">
                                        <ellipse id="Oval" cx="11.1428773" cy="6.66487985" rx="6.21537377" ry="6.2168207"></ellipse>
                                        <path d="M17.4142454,13.4977819 L5.43145275,13.4977819 C2.51974612,13.4977819 0.111988717,15.9060998 0.111988717,18.8184843 L0.111988717,34.9486137 C0.111988717,37.8609982 2.51974612,40.2693161 5.43145275,40.2693161 L17.4142454,40.2693161 C20.325952,40.2693161 22.7337094,37.8609982 22.7337094,34.9486137 L22.7337094,18.8184843 C22.7337094,15.8500924 20.325952,13.4977819 17.4142454,13.4977819 Z" id="Shape"></path>
                                    </g>
                                </g>
                                <g id="Group" transform="translate(7.839210, 175.303142)" fill-rule="nonzero">
                                    <ellipse id="Oval" fill="#B4C2D6" cx="24.1895628" cy="23.8031423" rx="23.6856135" ry="23.6911275"></ellipse>
                                    <g transform="translate(12.878702, 6.160813)" fill="#EDEFF2">
                                        <ellipse id="Oval" cx="11.3108604" cy="6.72088725" rx="6.21537377" ry="6.2168207"></ellipse>
                                        <path d="M17.5822285,13.5537893 L5.59943583,13.5537893 C2.6877292,13.5537893 0.279971791,15.9621072 0.279971791,18.8744917 L0.279971791,35.0046211 C0.279971791,37.9170055 2.6877292,40.3253235 5.59943583,40.3253235 L17.5822285,40.3253235 C20.4939351,40.3253235 22.9016925,37.9170055 22.9016925,35.0046211 L22.9016925,18.8744917 C22.9016925,15.9621072 20.4939351,13.5537893 17.5822285,13.5537893 Z" id="Shape"></path>
                                    </g>
                                </g>
                            </g>
                        </g>
                    </g>
                </g>
            </g>
        </g>
    </g>
</svg>