<?xml version="1.0" encoding="UTF-8"?>
<svg width="71px" height="69px" viewBox="0 0 71 69" version="1.1" xmlns="http://www.w3.org/2000/svg" xmlns:xlink="http://www.w3.org/1999/xlink">
    <!-- Generator: Sketch 47.1 (45422) - http://www.bohemiancoding.com/sketch -->
    <title>SMgithub-icon</title>
    <desc>Created with Sketch.</desc>
    <defs></defs>
    <g id="Page-1" stroke="none" stroke-width="1" fill="none" fill-rule="evenodd">
        <g id="Artboard-Copy-3" transform="translate(-441.000000, -4728.000000)" fill-rule="nonzero" fill="#1C347A">
            <g id="Section-4" transform="translate(0.000000, 4201.000000)">
                <g id="Protocol" transform="translate(301.000000, 470.000000)">
                    <g id="SMgithub-icon" transform="translate(140.000000, 57.000000)">
                        <path d="M35.0752905,0 C15.7062815,0 0,15.8368621 0,35.373444 C0,51.0023581 10.0501383,64.2618348 23.9866243,68.9392036 C25.7395756,69.2666484 26.3831377,68.1718455 26.3831377,67.2375433 C26.3831377,66.3940352 26.3506111,63.6075301 26.3355094,60.6517377 C16.5775297,62.7915533 14.5184799,56.4781304 14.5184799,56.4781304 C12.9229339,52.3894601 10.6240005,51.3022718 10.6240005,51.3022718 C7.4416212,49.1068082 10.863884,49.1519122 10.863884,49.1519122 C14.3860501,49.4014499 16.2406471,52.7971555 16.2406471,52.7971555 C19.3690089,58.2049788 24.4460625,56.6415602 26.4476101,55.7377178 C26.7624211,53.4514599 27.6714235,51.89097 28.6745203,51.0076298 C20.8838191,50.1131597 12.6940861,47.0800457 12.6940861,33.525927 C12.6940861,29.6639491 14.064269,26.5084095 16.3080236,24.0311906 C15.9438418,23.1402353 14.7432619,19.5424395 16.6478104,14.6700095 C16.6478104,14.6700095 19.5932102,13.7193057 26.2960128,18.2959221 C29.0938814,17.5121627 32.0944599,17.1191114 35.0752905,17.1056387 C38.056121,17.1191114 41.059023,17.5121627 43.8621186,18.2959221 C50.5567899,13.7193057 53.4981235,14.6700095 53.4981235,14.6700095 C55.407319,19.5424395 54.2061581,23.1402353 53.8419763,24.0311906 C56.0909584,26.5084095 57.4518479,29.6639491 57.4518479,33.525927 C57.4518479,47.1122632 49.2464325,50.1037877 41.4359831,50.9795128 C42.6940655,52.077245 43.8150713,54.2299472 43.8150713,57.5301724 C43.8150713,62.2631896 43.7744133,66.0724479 43.7744133,67.2375433 C43.7744133,68.1788748 44.4057776,69.2818785 46.1837046,68.9345172 C60.1126399,64.2518764 70.15,50.9970861 70.15,35.373444 C70.15,15.8368621 54.4460421,0 35.0752905,0 Z M13.769094,50.342487 C13.6770626,50.6039626 13.3504551,50.6824053 13.0529102,50.5028589 C12.7498295,50.3311561 12.5796062,49.9746777 12.6778652,49.7123308 C12.7678206,49.4430105 13.0951201,49.3680542 13.3975087,49.5484723 C13.7012814,49.7201748 13.8742726,50.0801396 13.769094,50.342487 Z M14.8307157,51.6608637 C14.6437482,51.8300245 14.2782527,51.7514629 14.0302611,51.4841003 C13.7738299,51.2173712 13.7257897,50.8606762 13.9153539,50.688981 C14.1081642,50.5198201 14.4626235,50.5990154 14.7197038,50.8657446 C14.9761348,51.1356415 15.0261227,51.4898021 14.8307157,51.6608637 Z M15.9286356,53.9952555 C15.7058775,54.1315246 15.3416378,54.0037391 15.1164714,53.719006 C14.8937132,53.4342727 14.8937132,53.0928048 15.1212879,52.9560056 C15.3470562,52.8192064 15.7058775,52.9422198 15.9340541,53.2248321 C16.1562102,53.5143373 16.1562102,53.855805 15.9286356,53.9952555 Z M18.3039814,56.2357597 C18.1356005,56.4254417 17.7769646,56.3745133 17.5144735,56.1157151 C17.245878,55.8626329 17.1710986,55.5035373 17.3399882,55.3138558 C17.5104039,55.1236548 17.8710747,55.1771813 18.1356005,55.4339008 C18.4021612,55.6864633 18.4835538,56.0481573 18.3039814,56.2357597 Z M20.6881549,57.1562976 C20.6223714,57.4454493 20.3164328,57.5768817 20.0082413,57.4540077 C19.7005004,57.3274658 19.4990946,56.9887979 19.5612736,56.6965897 C19.6252548,56.4056043 19.9325451,56.2686697 20.2429894,56.4001022 C20.5502797,56.526033 20.7521362,56.8622557 20.6881549,57.1562976 Z M22.9998385,56.9125209 C23.0073711,57.2303665 22.7503745,57.4939615 22.4322304,57.499706 C22.1123138,57.5099179 21.8535448,57.2527055 21.85,56.9399655 C21.85,56.6189285 22.1012364,56.3578866 22.4211529,56.3502276 C22.7392971,56.3412922 22.9998385,56.5965898 22.9998385,56.9125209 Z M26.4457126,56.7820003 C26.4839816,57.0860705 26.2619326,57.3982736 25.9446561,57.4814863 C25.6327195,57.5615704 25.3439223,57.373873 25.3043183,57.0723058 C25.2656044,56.7607279 25.4916583,56.4485245 25.8031499,56.3678149 C26.1208714,56.2902332 26.4052187,56.4729251 26.4457126,56.7820003 Z" id="Shape"></path>
                    </g>
                </g>
            </g>
        </g>
    </g>
</svg>