<?xml version="1.0" encoding="utf-8"?>
<!-- Generator: Adobe Illustrator 22.0.1, SVG Export Plug-In . SVG Version: 6.00 Build 0)  -->
<svg version="1.1" id="Layer_1" xmlns="http://www.w3.org/2000/svg" xmlns:xlink="http://www.w3.org/1999/xlink" x="0px" y="0px"
	 viewBox="0 0 37 23" style="enable-background:new 0 0 37 23;" xml:space="preserve">
<style type="text/css">
	.st0{opacity:0.25;}
	.st1{fill:#FFFFFF;}
</style>
<g id="Layer_2">
</g>
<title>googleplusicon</title>
<desc>Created with Sketch.</desc>
<g id="XMLID_496_" class="st0">
	<path id="XMLID_497_" class="st1" d="M6,10.9l6,2.2l2.3,7.4c0.1,0.5,0.7,0.7,1.1,0.3l3.3-2.7c0.3-0.3,0.8-0.3,1.2,0l6,4.4
		c0.4,0.3,1,0.1,1.1-0.4l4.4-21.2c0.1-0.5-0.4-1-0.9-0.8L6,9.5C5.4,9.8,5.4,10.6,6,10.9z M13.9,11.9l11.7-7.2
		C25.8,4.6,26,4.9,25.9,5l-9.7,9c-0.3,0.3-0.6,0.7-0.6,1.2l-0.3,2.4c0,0.3-0.5,0.4-0.6,0l-1.3-4.4C13.3,12.7,13.5,12.2,13.9,11.9z"
		/>
</g>
</svg>
