<?xml version="1.0" encoding="UTF-8"?>
<svg width="64px" height="63px" viewBox="0 0 64 63" version="1.1" xmlns="http://www.w3.org/2000/svg" xmlns:xlink="http://www.w3.org/1999/xlink">
    <!-- Generator: Sketch 47.1 (45422) - http://www.bohemiancoding.com/sketch -->
    <title>Tether2</title>
    <desc>Created with Sketch.</desc>
    <defs></defs>
    <g id="Page-1" stroke="none" stroke-width="1" fill="none" fill-rule="evenodd">
        <g id="Artboard-Copy-3" transform="translate(-657.000000, -2779.000000)">
            <g id="Section-2" transform="translate(0.000000, 1323.000000)">
                <g id="Section-2-List">
                    <g id="Lower" transform="translate(0.000000, 1267.000000)">
                        <g id="Colored-Icons" transform="translate(248.000000, 79.000000)">
                            <g id="Tether2" transform="translate(409.000000, 111.000000)">
                                <circle id="Oval" fill="#99E5C3" fill-rule="nonzero" cx="30.1952663" cy="31.6863905" r="30.1952663"></circle>
                                <circle id="Oval" stroke="#586A99" stroke-width="1.3" cx="32.6183432" cy="30.3816568" r="30.1952663"></circle>
                                <g id="Group" transform="translate(9.915976, 7.455621)" fill-rule="nonzero">
                                    <circle id="Oval" fill="#99E5C3" cx="23.112426" cy="23.112426" r="23.112426"></circle>
                                    <path d="M19.6455621,27.3248521 L19.6455621,41.0059172 L26.952071,41.0059172 C26.952071,41.0059172 26.952071,27.3248521 26.952071,27.3248521 C28.6668639,27.3248521 30.3816568,27.2502959 32.0591716,27.0639053 C34.5940828,26.7656805 37.464497,26.2810651 39.6639053,24.9017751 C39.7011834,24.864497 39.7757396,24.864497 39.8130178,24.8272189 C39.9994083,24.6408284 40.6704142,24.3798817 40.6704142,23.4852071 C40.6704142,23.4106509 40.6704142,23.0378698 40.3349112,22.5905325 C39.9994083,22.1804734 39.3284024,21.8822485 38.843787,21.6585799 C38.843787,21.6585799 34.8923077,19.7573964 26.8402367,19.6828402 C23.8207101,19.6455621 20.8757396,19.7201183 17.856213,19.8319527 C14.9485207,19.943787 11.9289941,20.2792899 9.1704142,21.2112426 C8.79763314,21.3230769 8.6112426,21.3976331 8.49940828,21.4349112 C7.4183432,21.8449704 4.54792899,23.4852071 6.56094675,24.7153846 C8.72307692,26.0201183 11.4816568,26.616568 13.9792899,26.9147929 C13.9420118,26.8402367 19.4218935,27.5485207 19.6455621,27.3248521 Z" id="Shape" fill="#FFFFFF"></path>
                                    <path d="M19.8692308,20.2420118 C19.8692308,20.2420118 15.060355,20.4656805 13.2337278,20.9130178 C11.4071006,21.360355 10.9597633,21.1366864 7.97751479,22.5159763 C7.97751479,22.5159763 6.82189349,23.1869822 8.20118343,24.1189349 C8.20118343,24.1189349 9.58047337,25.0136095 14.352071,25.7218935 C19.1609467,26.3928994 28.5177515,25.9455621 28.5177515,25.9455621 C28.5177515,25.9455621 34.4449704,25.7218935 36.7189349,24.5662722 C36.7189349,24.5662722 38.9928994,24.1189349 38.9928994,22.9633136 C38.9928994,21.8076923 33.960355,21.1366864 33.960355,21.1366864 C33.960355,21.1366864 31.7982249,20.5775148 26.8402367,20.2792899 L19.8692308,20.2420118 Z" id="Shape" fill="#99E5C3"></path>
                                    <path d="M10.1769231,8.94674556 L10.1769231,15.5822485 L19.7573964,15.5822485 L19.7573964,24.9390533 L26.8402367,24.9390533 L26.8402367,15.5822485 L36.6443787,15.5822485 L36.6443787,8.94674556 C36.6443787,8.94674556 10.2142012,8.98402367 10.1769231,8.94674556 Z" id="Shape" fill="#FFFFFF"></path>
                                </g>
                            </g>
                        </g>
                    </g>
                </g>
            </g>
        </g>
    </g>
</svg>