<?xml version="1.0" encoding="UTF-8"?>
<svg width="29px" height="23px" viewBox="0 0 29 23" version="1.1" xmlns="http://www.w3.org/2000/svg" xmlns:xlink="http://www.w3.org/1999/xlink">
    <!-- Generator: Sketch 47.1 (45422) - http://www.bohemiancoding.com/sketch -->
    <title>twitter</title>
    <desc>Created with Sketch.</desc>
    <defs></defs>
    <g id="Page-1" stroke="none" stroke-width="1" fill="none" fill-rule="evenodd" opacity="0.245131341">
        <g id="Artboard-Copy-3" transform="translate(-787.000000, -6253.000000)" fill-rule="nonzero" fill="#FFFFFF">
            <g id="Dev-Social-Icons" transform="translate(732.000000, 6252.000000)">
                <g id="twitter" transform="translate(55.000000, 1.000000)">
                    <path d="M28.8646748,2.7096875 C27.7863973,3.17668228 26.6427662,3.48326772 25.4717483,3.61926562 C26.6896748,2.90339062 27.6265414,1.77207812 28.0674198,0.422085937 C26.9078681,1.09514896 25.6392128,1.56934706 24.3162796,1.8241875 C23.1997572,0.657859612 21.6383667,-0.00277352022 20.0048564,-4.75655622e-13 C16.743826,-4.76294001e-13 14.0970861,2.58642187 14.0970861,5.77695312 C14.0970861,6.23030469 14.1492568,6.67215625 14.2513936,7.0940625 C9.34111064,6.85274219 4.98927365,4.55364062 2.07506757,1.05764062 C1.56622044,1.90989844 1.27597551,2.90339062 1.27597551,3.96246875 C1.27597551,5.96598437 2.31846917,7.73464844 3.90324324,8.77090625 C2.96495507,8.74277651 2.04724704,8.49494474 1.22711149,8.04820312 L1.22711149,8.121875 C1.22711149,10.9203281 3.2636022,13.2555469 5.96471706,13.7874219 C5.09478335,14.0178246 4.18266269,14.0516201 3.29740287,13.88625 C4.04946791,16.1819375 6.23181588,17.8519531 8.81573057,17.9004687 C6.79430321,19.4475781 4.24749578,20.3729687 1.47914696,20.3729687 C1.00841532,20.3724419 0.538103924,20.3454442 0.0705405405,20.2921094 C2.68458193,21.9308594 5.7903864,22.8885937 9.12618243,22.8885937 C19.9919975,22.8885937 25.9328336,14.0831875 25.9328336,6.4471875 C25.9328336,6.19742187 25.9328336,5.94765625 25.9144637,5.6996875 C27.0704493,4.88159384 28.0687372,3.8692119 28.8628378,2.7096875 L28.8646748,2.7096875 Z" id="Shape"></path>
                </g>
            </g>
        </g>
    </g>
</svg>