<?xml version="1.0" encoding="UTF-8"?>
<svg width="120px" height="11px" viewBox="0 0 120 11" version="1.1" xmlns="http://www.w3.org/2000/svg" xmlns:xlink="http://www.w3.org/1999/xlink">
    <!-- Generator: Sketch 47.1 (45422) - http://www.bohemiancoding.com/sketch -->
    <title>wall-street-journal</title>
    <desc>Created with Sketch.</desc>
    <defs></defs>
    <g id="Page-1" stroke="none" stroke-width="1" fill="none" fill-rule="evenodd" opacity="0.81567029">
        <g id="Artboard-Copy-3" transform="translate(-560.000000, -779.000000)" fill-rule="nonzero" fill="#FFFFFF">
            <g id="Featured-Logos" transform="translate(0.000000, 721.000000)">
                <g id="wall-street-journal" transform="translate(560.000000, 58.000000)">
                    <path d="M119.246617,8.76390977 C118.897744,8.76390977 118.607519,9.05413534 118.607519,9.44661654 C118.607519,9.83909774 118.897744,10.1293233 119.246617,10.1293233 C119.595489,10.1293233 119.887218,9.83909774 119.887218,9.44661654 C119.887218,9.05413534 119.595489,8.76390977 119.246617,8.76390977 L119.246617,8.76390977 Z M96.1097744,10.0857143 L99.0451128,10.0857143 L99.0451128,9.82406015 L98.7263158,9.7518797 C98.4345865,9.67969925 98.3037594,9.51879699 98.3037594,9.11278195 L98.3037594,5.1593985 L98.9879699,5.1593985 C99.4090226,5.1593985 99.6270677,5.26165414 99.6556391,6.14736842 L99.7293233,8.0075188 C99.7864662,9.67969925 100.266165,10.1443609 101.081203,10.1443609 C101.908271,10.1443609 102.126316,9.57744361 102.126316,8.77894737 L102.126316,8.44360902 L101.821053,8.44360902 L101.821053,8.69022556 C101.821053,9.22857143 101.748872,9.60601504 101.545865,9.60601504 C101.356391,9.60601504 101.341353,9.46165414 101.297744,8.7924812 L101.210526,7.51428571 C101.094737,5.79849624 100.876692,5.20300752 99.6120301,4.96992481 C100.818045,4.65112782 101.559398,3.76390977 101.559398,2.49924812 C101.559398,0.857142857 100.266165,0.0721804511 99.0315789,0.0721804511 L94.075188,0.0721804511 L94.075188,0.333834586 L94.3518797,0.392481203 C94.875188,0.508270677 94.8887218,0.784962406 94.8887218,1.96240602 L94.8887218,7.74586466 C94.8887218,9.0406015 94.5263158,9.66466165 93.6977444,9.66466165 C92.956391,9.66466165 92.5488722,9.30075188 92.5488722,7.89172932 L92.5488722,1.01804511 C92.5488722,0.610526316 92.6796992,0.494736842 93,0.421052632 L93.3924812,0.333834586 L93.3924812,0.0721804511 L90.3548872,0.0721804511 L90.3548872,0.333834586 L90.6736842,0.421052632 C90.9654135,0.508270677 91.0661654,0.62556391 91.0661654,1.03157895 L91.0661654,7.78947368 C91.0661654,9.31578947 91.9533835,10.1593985 93.3052632,10.1593985 C94.6571429,10.1593985 95.324812,9.31578947 95.324812,7.74586466 L95.324812,1.43909774 C95.324812,0.654135338 95.4857143,0.377443609 96.124812,0.377443609 C96.6330827,0.377443609 96.8511278,0.551879699 96.8511278,1.03157895 L96.8511278,9.11278195 C96.8511278,9.51879699 96.7203008,9.66466165 96.4300752,9.73684211 L96.1097744,9.82406015 L96.1097744,10.0857143 Z M115.613534,1.03157895 C115.613534,0.62556391 115.744361,0.494736842 116.034586,0.436090226 L116.427068,0.34887218 L116.427068,0.0721804511 L113.404511,0.0721804511 L113.404511,0.333834586 L113.724812,0.421052632 C114.015038,0.508270677 114.145865,0.62556391 114.145865,1.03157895 L114.145865,9.17142857 C114.145865,9.56240602 113.986466,9.78045113 113.535338,9.78045113 C113.01203,9.78045113 112.93985,9.60601504 112.750376,8.74887218 L110.890226,0.0436090226 L110.308271,0.0436090226 L108.536842,8.47368421 C108.332331,9.41804511 108.230075,9.63609023 107.837594,9.7518797 L107.590977,9.82406015 L107.590977,10.0857143 L109.669173,10.0857143 L109.669173,9.82406015 L109.36391,9.76691729 C108.92782,9.67969925 108.81203,9.44661654 109.030075,8.34285714 L110.076692,2.95037594 L111.22406,8.66165414 C111.398496,9.49022556 111.384962,9.64962406 110.759398,9.76691729 L110.454135,9.82406015 L110.454135,10.0857143 L118.156391,10.0857143 L118.156391,6.77293233 L117.881203,6.77293233 C117.735338,8.29924812 117.430075,9.73684211 116.195489,9.73684211 L115.613534,9.73684211 L115.613534,1.03157895 Z M111.079699,7.38345865 L111.079699,6.99097744 L109.117293,6.99097744 L109.058647,7.38345865 L111.079699,7.38345865 Z M102.969925,1.20601504 L102.969925,8.15338346 C102.969925,9.2 102.969925,9.69323308 102.446617,9.78045113 L102.184962,9.82406015 L102.184962,10.0857143 L104.321805,10.0857143 L104.321805,9.82406015 C103.390977,9.69323308 103.390977,9.37443609 103.390977,8.2406015 L103.390977,1.64210526 L103.042105,1.32330827 L106.603008,10.0857143 L107.213534,10.0857143 L107.213534,2.00601504 C107.213534,0.813533835 107.213534,0.551879699 107.795489,0.392481203 L107.998496,0.333834586 L107.998496,0.0721804511 L105.803008,0.0721804511 L105.803008,0.333834586 L106.051128,0.392481203 C106.792481,0.523308271 106.792481,0.813533835 106.792481,1.91879699 L106.792481,6.97593985 L106.936842,6.93233083 L104.234586,0.0721804511 L102.156391,0.0721804511 L102.156391,0.333834586 L102.359398,0.392481203 C102.592481,0.464661654 102.723308,0.726315789 102.969925,1.20601504 L102.969925,1.20601504 Z M98.3037594,0.421052632 L98.8857143,0.421052632 C99.4676692,0.421052632 100.004511,0.8 100.004511,2.6887218 C100.004511,4.62105263 99.5984962,4.81052632 98.7834586,4.81052632 L98.3037594,4.81052632 L98.3037594,0.421052632 Z M88.6255639,4.98496241 C88.6255639,9.18496241 88.2766917,9.78045113 87.5203008,9.78045113 C86.7654135,9.78045113 86.4300752,9.18496241 86.4300752,5.01353383 C86.4300752,0.97443609 86.793985,0.392481203 87.5203008,0.392481203 C88.2766917,0.392481203 88.6255639,0.97443609 88.6255639,4.98496241 L88.6255639,4.98496241 Z M90.2090226,5.07218045 C90.2090226,2.2962406 89.3233083,0 87.5203008,0 C85.7037594,0 84.8466165,2.2962406 84.8466165,5.07218045 C84.8466165,7.86315789 85.7323308,10.1593985 87.5203008,10.1593985 C89.3669173,10.1593985 90.2090226,7.86315789 90.2090226,5.07218045 L90.2090226,5.07218045 Z M83.9894737,1.03157895 C83.9894737,0.62556391 84.0902256,0.494736842 84.3819549,0.421052632 L84.7007519,0.333834586 L84.7007519,0.0721804511 L81.6932331,0.0721804511 L81.6932331,0.333834586 L82.0556391,0.421052632 C82.3458647,0.494736842 82.5067669,0.595488722 82.5067669,1.01804511 L82.5067669,8.0075188 C82.5067669,8.98195489 82.4195489,9.76691729 81.6932331,9.76691729 C81.2270677,9.76691729 80.8781955,9.40300752 80.8932331,9.14135338 C80.9368421,8.69022556 81.6932331,8.72030075 81.7503759,7.99398496 C81.793985,7.47067669 81.4601504,7.25263158 81.1548872,7.20902256 C80.7037594,7.15037594 80.1518797,7.52781955 80.1368421,8.28421053 C80.1218045,9.25714286 80.762406,10.1443609 81.8526316,10.1443609 C83.0586466,10.1443609 83.9894737,9.33082707 83.9894737,7.77593985 L83.9894737,1.03157895 Z M35.4466165,1.03157895 C35.4466165,0.62556391 35.5774436,0.494736842 35.8691729,0.436090226 L36.2616541,0.34887218 L36.2616541,0.0721804511 L33.237594,0.0721804511 L33.237594,0.333834586 L33.5578947,0.421052632 C33.8481203,0.508270677 33.9789474,0.62556391 33.9789474,1.03157895 L33.9789474,9.17142857 C33.9789474,9.56240602 33.8195489,9.78045113 33.3684211,9.78045113 C32.8451128,9.78045113 32.7578947,9.60601504 32.5699248,8.74887218 L30.7097744,0.0436090226 L30.1278195,0.0436090226 L28.3548872,8.47368421 C28.1518797,9.41804511 28.0496241,9.63609023 27.6571429,9.7518797 L27.4105263,9.82406015 L27.4105263,10.0857143 L29.4887218,10.0857143 L29.4887218,9.82406015 L29.1834586,9.76691729 C28.7473684,9.67969925 28.6315789,9.44661654 28.8496241,8.34285714 L29.8962406,2.92180451 L31.043609,8.66165414 C31.2030075,9.49022556 31.2030075,9.64962406 30.5789474,9.76691729 L30.2736842,9.82406015 L30.2736842,10.0857143 L37.9909774,10.0857143 L37.9909774,6.77293233 L37.7142857,6.77293233 C37.5699248,8.29924812 37.2646617,9.73684211 36.0285714,9.73684211 L35.4466165,9.73684211 L35.4466165,1.03157895 Z M75.9082707,0.421052632 L76.2285714,0.421052632 C77.1293233,0.421052632 77.4345865,1.86015038 77.5368421,3.38646617 L77.8120301,3.38646617 L77.8120301,0.0721804511 L72.5368421,0.0721804511 L72.5368421,3.38646617 L72.8120301,3.38646617 C72.9142857,1.86015038 73.2195489,0.421052632 74.1203008,0.421052632 L74.4406015,0.421052632 L74.4406015,9.11278195 C74.4406015,9.51879699 74.3097744,9.66466165 74.0195489,9.73684211 L73.6406015,9.82406015 L73.6406015,10.0857143 L76.7804511,10.0857143 L76.7804511,9.82406015 L76.3293233,9.72330827 C76.0541353,9.64962406 75.9082707,9.56240602 75.9082707,9.11278195 L75.9082707,0.421052632 Z M69.2661654,5.05714286 L69.7172932,5.07218045 C70.3714286,5.08721805 70.5593985,5.33383459 70.6917293,6.91879699 L70.9669173,6.91879699 L70.9669173,2.87819549 L70.6917293,2.87819549 C70.5308271,4.14285714 70.356391,4.67969925 69.7323308,4.69473684 L69.2661654,4.70977444 L69.2661654,0.421052632 L70.2691729,0.421052632 C71.3879699,0.421052632 71.6360902,1.83157895 71.7954887,3.38646617 L72.0721805,3.38646617 L72.0721805,0.0721804511 L67.0571429,0.0721804511 L67.0571429,0.333834586 L67.3774436,0.421052632 C67.7112782,0.508270677 67.7984962,0.712781955 67.7984962,1.04661654 L67.7984962,9.11278195 C67.7984962,9.52030075 67.6676692,9.66466165 67.3774436,9.73834586 L67.0571429,9.82556391 L67.0571429,10.0857143 L72.2165414,10.0857143 L72.2165414,6.77293233 L71.9413534,6.77293233 C71.7669173,8.28421053 71.5774436,9.73834586 70.2691729,9.73834586 L69.2661654,9.73834586 L69.2661654,5.05714286 Z M63.7879699,5.05714286 L64.237594,5.07218045 C64.8917293,5.08721805 65.081203,5.33383459 65.2120301,6.91879699 L65.487218,6.91879699 L65.487218,2.87819549 L65.2120301,2.87819549 C65.0526316,4.14285714 64.8781955,4.67969925 64.2526316,4.69473684 L63.7879699,4.70977444 L63.7879699,0.421052632 L64.7909774,0.421052632 C65.9097744,0.421052632 66.156391,1.86015038 66.3157895,3.38646617 L66.5924812,3.38646617 L66.5924812,0.0721804511 L61.4330827,0.0721804511 L61.4330827,0.333834586 L61.8977444,0.421052632 C62.2330827,0.508270677 62.3203008,0.712781955 62.3203008,1.04661654 L62.3203008,9.11278195 C62.3203008,9.52030075 62.1894737,9.66466165 61.8977444,9.73834586 L61.5789474,9.82556391 L61.5789474,10.0857143 L66.7383459,10.0857143 L66.7383459,6.77293233 L66.4616541,6.77293233 C66.287218,8.28421053 66.0977444,9.73834586 64.7909774,9.73834586 L63.7879699,9.73834586 L63.7879699,5.05714286 Z M57.8135338,0.421052632 L58.2496241,0.421052632 C58.8315789,0.421052632 59.3699248,0.8 59.3699248,2.6887218 C59.3699248,4.5924812 58.962406,4.81052632 58.1488722,4.81052632 L57.8135338,4.81052632 L57.8135338,0.421052632 Z M55.6195489,10.0857143 L58.5548872,10.0857143 L58.5548872,9.82406015 L58.2360902,9.7518797 C57.9443609,9.67969925 57.8135338,9.51879699 57.8135338,9.11278195 L57.8135338,5.1593985 L58.3518797,5.1593985 C58.7729323,5.1593985 58.9909774,5.33383459 59.0210526,6.14736842 L59.0932331,8.0075188 C59.1518797,9.67969925 59.6315789,10.1443609 60.4451128,10.1443609 C61.2736842,10.1443609 61.4917293,9.57744361 61.4917293,8.77894737 L61.4917293,8.44360902 L61.1864662,8.44360902 L61.1864662,8.69022556 C61.1864662,9.22857143 61.112782,9.60601504 60.9097744,9.60601504 C60.7203008,9.60601504 60.7067669,9.46165414 60.6631579,8.7924812 L60.5759398,7.51428571 C60.4586466,5.75488722 60.2270677,5.20300752 58.9774436,4.96992481 C60.1834586,4.65112782 60.924812,3.76390977 60.924812,2.49924812 C60.924812,0.857142857 59.6315789,0.0721804511 58.3954887,0.0721804511 L55.6195489,0.0721804511 L55.6195489,0.333834586 L55.9398496,0.421052632 C56.2300752,0.508270677 56.3609023,0.62556391 56.3609023,1.03157895 L56.3609023,9.11278195 C56.3609023,9.51879699 56.2300752,9.66466165 55.9398496,9.73684211 L55.6195489,9.82406015 L55.6195489,10.0857143 Z M53.3954887,0.421052632 L53.7157895,0.421052632 C54.6165414,0.421052632 54.9218045,1.86015038 55.0240602,3.38646617 L55.2992481,3.38646617 L55.2992481,0.0721804511 L50.0240602,0.0721804511 L50.0240602,3.38646617 L50.3007519,3.38646617 C50.4015038,1.86015038 50.7067669,0.421052632 51.6090226,0.421052632 L51.9278195,0.421052632 L51.9278195,9.11278195 C51.9278195,9.51879699 51.7969925,9.66466165 51.5067669,9.73684211 L51.1293233,9.82406015 L51.1293233,10.0857143 L54.1954887,10.0857143 L54.1954887,9.82406015 L53.8180451,9.73684211 C53.4390977,9.64962406 53.3954887,9.3593985 53.3954887,9.11278195 L53.3954887,0.421052632 Z M50.0390977,7.48421053 C50.0390977,4.50526316 46.7684211,3.72030075 46.7684211,1.55488722 C46.7684211,1.09022556 46.9428571,0.392481203 47.6691729,0.392481203 C48.7157895,0.392481203 49.1082707,1.7443609 49.2827068,3.38646617 L49.5593985,3.38646617 L49.5593985,0.0721804511 L49.3849624,0.0721804511 C49.312782,0.392481203 49.1819549,0.538345865 48.9924812,0.538345865 C48.6586466,0.538345865 48.4842105,0.015037594 47.6842105,0.015037594 C46.4496241,0.015037594 45.606015,1.04661654 45.606015,2.39849624 C45.606015,4.85413534 48.8766917,5.88571429 48.8766917,8.15338346 C48.8766917,9.18496241 48.3969925,9.76691729 47.7428571,9.76691729 C46.7684211,9.76691729 46.1293233,8.61804511 45.9548872,6.77293233 L45.6781955,6.77293233 L45.6781955,10.0857143 L45.8526316,10.0857143 C45.9984962,9.60601504 46.1879699,9.56240602 46.3473684,9.56240602 C46.6240602,9.56240602 46.9142857,10.1443609 47.756391,10.1443609 C49.0511278,10.1443609 50.0390977,9.02556391 50.0390977,7.48421053 L50.0390977,7.48421053 Z M40.518797,1.03157895 C40.518797,0.62556391 40.6496241,0.494736842 40.9413534,0.436090226 L41.3338346,0.34887218 L41.3338346,0.0721804511 L38.3097744,0.0721804511 L38.3097744,0.333834586 L38.6300752,0.421052632 C38.9203008,0.508270677 39.0511278,0.62556391 39.0511278,1.03157895 L39.0511278,9.11278195 C39.0511278,9.51879699 38.9203008,9.66466165 38.6300752,9.73684211 L38.3097744,9.82406015 L38.3097744,10.0857143 L43.0631579,10.0857143 L43.0631579,6.77293233 L42.7864662,6.77293233 C42.6421053,8.29924812 42.3368421,9.73684211 41.1007519,9.73684211 L40.518797,9.73684211 L40.518797,1.03157895 Z M30.8977444,7.38345865 L30.8977444,6.99097744 L28.9368421,6.99097744 L28.8781955,7.38345865 L30.8977444,7.38345865 Z M22.4977444,10.1157895 L23.0932331,10.1157895 L24.4451128,2.96541353 L24.2421053,2.96541353 L25.724812,10.1157895 L26.2481203,10.1157895 L28.0210526,1.68571429 C28.2090226,0.8 28.3112782,0.494736842 28.6601504,0.407518797 L28.9368421,0.333834586 L28.9368421,0.0721804511 L26.887218,0.0721804511 L26.887218,0.333834586 L27.1924812,0.392481203 C27.6285714,0.479699248 27.7293233,0.741353383 27.5263158,1.81654135 L26.3789474,7.47067669 L26.5533835,7.47067669 L25.3894737,1.5112782 C25.2736842,0.944360902 25.2015038,0.479699248 25.681203,0.392481203 L26,0.333834586 L26,0.0721804511 L23.1954887,0.0721804511 L23.1954887,0.333834586 L23.3849624,0.377443609 C23.675188,0.45112782 23.718797,0.62556391 23.8345865,1.17744361 L24.2857143,3.34285714 L24.1984962,2.03458647 L23.1954887,7.32481203 L23.3263158,7.32481203 L22.1488722,1.5112782 C22.0180451,0.915789474 21.9744361,0.464661654 22.4390977,0.377443609 L22.6586466,0.333834586 L22.6586466,0.0721804511 L19.7954887,0.0721804511 L19.7954887,0.333834586 L20.0706767,0.407518797 C20.3323308,0.479699248 20.4781955,0.610526316 20.6526316,1.40902256 L22.4977444,10.1157895 Z M14.7368421,5.05714286 L15.1879699,5.07218045 C15.8421053,5.08721805 16.0300752,5.33383459 16.1609023,6.91879699 L16.437594,6.91879699 L16.437594,2.87819549 L16.1609023,2.87819549 C16.0015038,4.14285714 15.8270677,4.67969925 15.2015038,4.69473684 L14.7368421,4.70977444 L14.7368421,0.421052632 L15.7398496,0.421052632 C16.8586466,0.421052632 17.1067669,1.86015038 17.2661654,3.38646617 L17.5413534,3.38646617 L17.5413534,0.0721804511 L12.5278195,0.0721804511 L12.5278195,0.333834586 L12.8481203,0.421052632 C13.1819549,0.508270677 13.2691729,0.712781955 13.2691729,1.04661654 L13.2691729,9.11278195 C13.2691729,9.52030075 13.1383459,9.66466165 12.8481203,9.73834586 L12.5278195,9.82556391 L12.5278195,10.0857143 L17.687218,10.0857143 L17.687218,6.77293233 L17.4105263,6.77293233 C17.237594,8.28421053 17.0481203,9.73834586 15.7398496,9.73834586 L14.7368421,9.73834586 L14.7368421,5.05714286 Z M5.59518797,10.0857143 L8.57413534,10.0857143 L8.57413534,9.82406015 L8.24030075,9.7518797 C7.97864662,9.69323308 7.80421053,9.51879699 7.80421053,9.11278195 L7.80421053,5.1443609 L9.99819549,5.1443609 L9.99819549,9.11278195 C9.99819549,9.51879699 9.82526316,9.69323308 9.56360902,9.7518797 L9.22827068,9.82406015 L9.22827068,10.0857143 L12.2090226,10.0857143 L12.2090226,9.82406015 L11.8887218,9.73684211 C11.5981955,9.66466165 11.4673684,9.50526316 11.4673684,9.09774436 L11.4673684,1.03157895 C11.4673684,0.62556391 11.5981955,0.494736842 11.8887218,0.421052632 L12.2090226,0.333834586 L12.2090226,0.0721804511 L9.22827068,0.0721804511 L9.22827068,0.333834586 L9.56360902,0.421052632 C9.81022556,0.494736842 9.99819549,0.595488722 9.99819549,1.01804511 L9.99819549,4.7518797 L7.80421053,4.7518797 L7.80421053,1.01804511 C7.80421053,0.610526316 7.96360902,0.494736842 8.24030075,0.421052632 L8.57413534,0.333834586 L8.57413534,0.0721804511 L5.59518797,0.0721804511 L5.59518797,0.333834586 L5.91548872,0.421052632 C6.20571429,0.508270677 6.33654135,0.62556391 6.33654135,1.03157895 L6.33654135,9.11278195 C6.33654135,9.51879699 6.20571429,9.66466165 5.91548872,9.73684211 L5.59518797,9.82406015 L5.59518797,10.0857143 Z M3.37172932,0.421052632 L3.69157895,0.421052632 C4.59233083,0.421052632 4.89759398,1.86015038 4.99954887,3.38646617 L5.27473684,3.38646617 L5.27473684,0.0721804511 L0,0.0721804511 L0,3.38646617 L0.276240602,3.38646617 C0.377894737,1.86015038 0.683157895,0.421052632 1.58406015,0.421052632 L1.9037594,0.421052632 L1.9037594,9.11278195 C1.9037594,9.51879699 1.77323308,9.66466165 1.48240602,9.73684211 L1.10451128,9.82406015 L1.10451128,10.0857143 L4.24390977,10.0857143 L4.24390977,9.82406015 L3.79323308,9.72330827 C3.51714286,9.64962406 3.37172932,9.56240602 3.37172932,9.11278195 L3.37172932,0.421052632 Z" id="Shape"></path>
                </g>
            </g>
        </g>
    </g>
</svg>